<svg width="180" height="180" viewBox="0 0 180 180" fill="none" xmlns="http://www.w3.org/2000/svg">
<path d="M90 0C132.426 0 153.64 0 166.82 13.1802C180 26.3604 180 47.5736 180 90C180 132.426 180 153.64 166.82 166.82C153.64 180 132.426 180 90 180C47.5736 180 26.3604 180 13.1802 166.82C0 153.64 0 132.426 0 90C0 47.5736 0 26.3604 13.1802 13.1802C26.3604 0 47.5736 0 90 0Z" fill="#5462E3"/>
<path d="M83.363 63.4596C85.3805 51.786 89.9609 47.8505 91.5525 46.0049C91.6263 45.9193 91.5873 45.7883 91.4793 45.755C80.4072 42.3414 66.0147 47.1241 60.9569 50.0442C51.3084 56.0674 47.1311 63.7929 46.0573 70.3208C44.1272 82.0557 50.7457 87.6339 56.8341 90.2851C65.2322 93.9423 74.0294 90.1572 77.4955 86.1839C82.5265 80.4168 81.8239 72.3648 83.363 63.4596Z" fill="#CCD3FF"/>
<path d="M97.0706 116.165C95.0531 127.839 90.4727 131.774 88.8811 133.62C88.8073 133.706 88.8463 133.837 88.9543 133.87C100.026 137.284 114.419 132.501 119.477 129.581C129.125 123.558 133.303 115.832 134.376 109.304C136.306 97.5693 129.688 91.9911 123.6 89.3399C115.201 85.6827 106.404 89.4678 102.938 93.4411C97.9071 99.2082 98.6097 107.26 97.0706 116.165Z" fill="#CCD3FF"/>
<path d="M116.972 82.5573C128.646 84.5748 132.581 89.1553 134.427 90.7468C134.512 90.8207 134.643 90.7816 134.677 90.6736C138.09 79.6016 133.308 65.209 130.387 60.1512C124.364 50.5027 116.639 46.3254 110.111 45.2517C98.376 43.3215 92.7978 49.9401 90.1465 56.0284C86.4894 64.4265 90.2745 73.2238 94.2477 76.6898C100.015 81.7208 108.067 81.0182 116.972 82.5573Z" fill="#F1F2F9"/>
<path d="M63.4596 97.0677C51.786 95.0502 47.8505 90.4697 46.0049 88.8782C45.9193 88.8043 45.7883 88.8434 45.755 88.9514C42.3414 100.023 47.1241 114.416 50.0442 119.474C56.0674 129.122 63.7929 133.3 70.3208 134.373C82.0557 136.304 87.6339 129.685 90.2851 123.597C93.9423 115.198 90.1572 106.401 86.1839 102.935C80.4168 97.9042 72.3648 98.6068 63.4596 97.0677Z" fill="#F1F2F9"/>
</svg>
