<svg width="16" height="16" viewBox="0 0 16 16" fill="none" xmlns="http://www.w3.org/2000/svg">
<path d="M12.4226 4.76676C12.4493 5.17343 12.4159 5.63343 12.3359 6.14676L11.8493 9.27343C11.4359 11.8801 10.2293 12.7601 7.6226 12.3534L4.49593 11.8601C3.59593 11.7201 2.9026 11.4801 2.39593 11.1201M12.4226 4.76676C12.3359 3.10009 11.3559 2.24676 9.2626 1.92009L6.13593 1.42676C3.52927 1.02009 2.3226 1.90009 1.90927 4.50676L1.41593 7.63343C1.14927 9.34009 1.42927 10.4468 2.39593 11.1201M12.4226 4.76676C14.0159 5.61343 14.3626 6.89343 13.6693 8.98009L12.6693 11.9868C11.8359 14.4934 10.5026 15.1601 7.99593 14.3268L4.98926 13.3268C3.47593 12.8268 2.63593 12.1334 2.39593 11.1201M6.65593 4.82676C6.65593 5.46741 6.13658 5.98676 5.49593 5.98676C4.85528 5.98676 4.33593 5.46741 4.33593 4.82676C4.33593 4.18611 4.85528 3.66676 5.49593 3.66676C6.13658 3.66676 6.65593 4.18611 6.65593 4.82676Z" stroke="#69696A" stroke-linecap="round" stroke-linejoin="round"/>
</svg>
