<svg width="28" height="28" viewBox="0 0 28 28" fill="none" xmlns="http://www.w3.org/2000/svg">
<rect width="28" height="28" rx="6" fill="#ECECEF"/>
<path d="M19.3922 18.0251L19.7172 20.6584C19.8005 21.3501 19.0589 21.8334 18.4672 21.4751L14.9755 19.4001C14.5922 19.4001 14.2172 19.3751 13.8505 19.3251C14.4672 18.6001 14.8339 17.6834 14.8339 16.6917C14.8339 14.3251 12.7839 12.4084 10.2505 12.4084C9.28386 12.4084 8.39219 12.6834 7.65053 13.1667C7.62553 12.9584 7.61719 12.7501 7.61719 12.5334C7.61719 8.74174 10.9089 5.66675 14.9755 5.66675C19.0422 5.66675 22.3339 8.74174 22.3339 12.5334C22.3339 14.7834 21.1755 16.7751 19.3922 18.0251Z" stroke="#5462E3" stroke-width="1.5" stroke-linecap="round" stroke-linejoin="round"/>
<path d="M14.8385 16.6917C14.8385 17.6834 14.4719 18.6001 13.8552 19.3251C13.0302 20.3251 11.7219 20.9667 10.2552 20.9667L8.08021 22.2584C7.71354 22.4834 7.24687 22.1751 7.29687 21.7501L7.50521 20.1084C6.38854 19.3334 5.67188 18.0917 5.67188 16.6917C5.67188 15.2251 6.45521 13.9334 7.65521 13.1668C8.39688 12.6834 9.28854 12.4084 10.2552 12.4084C12.7885 12.4084 14.8385 14.3251 14.8385 16.6917Z" stroke="#5462E3" stroke-width="1.5" stroke-linecap="round" stroke-linejoin="round"/>
</svg>
