<svg width="24" height="24" viewBox="0 0 24 24" fill="none" xmlns="http://www.w3.org/2000/svg">
<path fill-rule="evenodd" clip-rule="evenodd" d="M12.998 3.22791L20.996 7.84491C21.3 8.02044 21.5525 8.27291 21.728 8.57694C21.9036 8.88097 21.996 9.22585 21.996 9.57691V14.4229C21.996 14.774 21.9036 15.1189 21.728 15.4229C21.5525 15.7269 21.3 15.9794 20.996 16.1549L12.998 20.7719C12.694 20.9474 12.3491 21.0399 11.998 21.0399C11.6469 21.0399 11.302 20.9474 10.998 20.7719L3 16.1549C2.69597 15.9794 2.4435 15.7269 2.26796 15.4229C2.09243 15.1189 2.00001 14.774 2 14.4229V9.57691C2.00001 9.22585 2.09243 8.88097 2.26796 8.57694C2.4435 8.27291 2.69597 8.02044 3 7.84491L10.998 3.22791C11.302 3.05237 11.6469 2.95996 11.998 2.95996C12.3491 2.95996 12.694 3.05237 12.998 3.22791ZM8.196 13.1549L5 14.9999L10.998 18.4629V14.7729L8.196 13.1549ZM15.8 13.1549L12.998 14.7719V18.4619L18.996 14.9999L15.8 13.1549ZM4 10.7319V13.2679L6.196 11.9999L4 10.7319ZM19.996 10.7319L17.8 11.9999L19.996 13.2679V10.7319ZM11.998 10.9599L10.196 11.9999L11.998 13.0399L13.8 11.9999L11.998 10.9599ZM10.998 5.53691L5 8.99991L8.196 10.8449L10.998 9.22791V5.53691ZM12.998 5.53691V9.22691L15.8 10.8449L18.996 8.99991L12.998 5.53691Z" fill="#3B3B3C"/>
</svg>
