<svg width="148" height="44" viewBox="0 0 148 44" fill="none" xmlns="http://www.w3.org/2000/svg">
<path d="M0 22C0 11.6291 1.43051e-06 6.44365 3.22183 3.22182C3.22183 3.22182 3.22183 3.22183 3.22183 3.22182C6.44365 0 11.6291 0 22 0C32.3709 0 37.5563 0 40.7782 3.22182C40.7782 3.22182 40.7782 3.22183 40.7782 3.22182C44 6.44365 44 11.6291 44 22C44 32.3709 44 37.5563 40.7782 40.7782C40.7782 40.7782 40.7782 40.7782 40.7782 40.7782C37.5563 44 32.3709 44 22 44C11.6291 44 6.44365 44 3.22183 40.7782C3.22183 40.7782 3.22183 40.7782 3.22183 40.7782C1.43051e-06 37.5563 0 32.3709 0 22Z" fill="#5462E3"/>
<path d="M20.4102 15.5517C20.9034 12.6982 22.023 11.7362 22.4121 11.2851C22.4301 11.2641 22.4206 11.2321 22.3942 11.224C19.6877 10.3895 16.1695 11.5586 14.9332 12.2724C12.5746 13.7448 11.5535 15.6332 11.2911 17.2289C10.8192 20.0975 12.4371 21.461 13.9254 22.1091C15.9782 23.0031 18.1287 22.0778 18.9759 21.1066C20.2057 19.6969 20.034 17.7286 20.4102 15.5517Z" fill="#CCD3FF"/>
<path d="M23.7695 28.4365C23.2763 31.2901 22.1566 32.2521 21.7676 32.7032C21.7495 32.7241 21.7591 32.7562 21.7855 32.7643C24.492 33.5987 28.0102 32.4297 29.2465 31.7158C31.605 30.2435 32.6262 28.355 32.8886 26.7593C33.3605 23.8908 31.7426 22.5273 30.2543 21.8792C28.2014 20.9852 26.051 21.9105 25.2038 22.8817C23.974 24.2914 24.1457 26.2597 23.7695 28.4365Z" fill="#CCD3FF"/>
<path d="M28.6318 20.2227C31.4854 20.7159 32.4474 21.8355 32.8985 22.2246C32.9195 22.2426 32.9515 22.2331 32.9596 22.2067C33.7941 19.5002 32.625 15.982 31.9112 14.7457C30.4388 12.3871 28.5504 11.366 26.9547 11.1036C24.0861 10.6317 22.7226 12.2496 22.0745 13.7379C21.1805 15.7907 22.1058 17.9412 23.077 18.7884C24.4867 20.0182 26.455 19.8465 28.6318 20.2227Z" fill="#F1F2F9"/>
<path d="M15.5478 23.7695C12.6943 23.2763 11.7323 22.1566 11.2812 21.7676C11.2602 21.7495 11.2282 21.7591 11.2201 21.7855C10.3856 24.492 11.5547 28.0102 12.2685 29.2465C13.7409 31.6051 15.6293 32.6262 17.225 32.8886C20.0936 33.3605 21.4571 31.7426 22.1052 30.2543C22.9992 28.2015 22.0739 26.051 21.1027 25.2038C19.6929 23.974 17.7247 24.1457 15.5478 23.7695Z" fill="#F1F2F9"/>
<path d="M147.008 20.542L144.185 21.042C144.067 20.6809 143.88 20.3372 143.623 20.0108C143.373 19.6844 143.033 19.417 142.602 19.2087C142.172 19.0004 141.633 18.8962 140.988 18.8962C140.106 18.8962 139.369 19.0941 138.779 19.4899C138.189 19.8788 137.894 20.3823 137.894 21.0004C137.894 21.5351 138.092 21.9656 138.488 22.292C138.883 22.6184 139.522 22.8858 140.404 23.0941L142.946 23.6774C144.418 24.0177 145.515 24.542 146.238 25.2504C146.96 25.9587 147.321 26.8788 147.321 28.0108C147.321 28.9691 147.043 29.8233 146.488 30.5733C145.939 31.3163 145.172 31.8997 144.185 32.3233C143.206 32.7469 142.071 32.9587 140.779 32.9587C138.988 32.9587 137.526 32.5767 136.394 31.8129C135.262 31.042 134.567 29.9483 134.31 28.5316L137.321 28.0733C137.508 28.858 137.894 29.4517 138.477 29.8545C139.06 30.2504 139.821 30.4483 140.758 30.4483C141.779 30.4483 142.595 30.2365 143.206 29.8129C143.817 29.3823 144.123 28.858 144.123 28.2399C144.123 27.7399 143.935 27.3198 143.56 26.9795C143.192 26.6392 142.626 26.3823 141.863 26.2087L139.154 25.6149C137.661 25.2747 136.557 24.733 135.842 23.9899C135.133 23.2469 134.779 22.3059 134.779 21.167C134.779 20.2226 135.043 19.3962 135.571 18.6879C136.099 17.9795 136.828 17.4274 137.758 17.0316C138.689 16.6288 139.755 16.4274 140.956 16.4274C142.685 16.4274 144.047 16.8024 145.04 17.5524C146.033 18.2955 146.689 19.292 147.008 20.542Z" fill="black"/>
<path d="M118.666 32.6342V11.3009H121.781V19.228H121.968C122.149 18.8946 122.409 18.5092 122.749 18.0717C123.09 17.6342 123.562 17.2523 124.166 16.9259C124.77 16.5925 125.569 16.4259 126.562 16.4259C127.854 16.4259 129.006 16.7523 130.02 17.405C131.034 18.0578 131.829 18.9988 132.406 20.228C132.989 21.4571 133.281 22.9363 133.281 24.6655C133.281 26.3946 132.992 27.8773 132.416 29.1134C131.84 30.3425 131.048 31.2905 130.041 31.9571C129.034 32.6169 127.885 32.9467 126.593 32.9467C125.621 32.9467 124.826 32.7835 124.208 32.4571C123.597 32.1307 123.117 31.7488 122.77 31.3113C122.423 30.8738 122.156 30.4849 121.968 30.1446H121.708V32.6342H118.666ZM121.718 24.6342C121.718 25.7592 121.881 26.7453 122.208 27.5926C122.534 28.4398 123.006 29.103 123.624 29.5821C124.242 30.0544 124.999 30.2905 125.895 30.2905C126.826 30.2905 127.604 30.0439 128.229 29.5509C128.854 29.0509 129.326 28.3738 129.645 27.5196C129.972 26.6655 130.135 25.7037 130.135 24.6342C130.135 23.5787 129.975 22.6307 129.656 21.7905C129.343 20.9502 128.871 20.287 128.239 19.8009C127.614 19.3148 126.833 19.0717 125.895 19.0717C124.992 19.0717 124.229 19.3044 123.604 19.7696C122.985 20.2349 122.517 20.8842 122.197 21.7176C121.878 22.5509 121.718 23.5231 121.718 24.6342Z" fill="black"/>
<path d="M108.131 32.9899C107.117 32.9899 106.2 32.8024 105.381 32.4274C104.562 32.0455 103.912 31.4934 103.433 30.7712C102.961 30.049 102.725 29.1636 102.725 28.1149C102.725 27.2122 102.898 26.4691 103.246 25.8858C103.593 25.3024 104.062 24.8406 104.652 24.5004C105.242 24.1601 105.902 23.9031 106.631 23.7295C107.36 23.5559 108.103 23.424 108.86 23.3337C109.818 23.2226 110.596 23.1323 111.193 23.0629C111.791 22.9865 112.225 22.8649 112.496 22.6983C112.766 22.5316 112.902 22.2608 112.902 21.8858V21.8129C112.902 20.9031 112.645 20.1983 112.131 19.6983C111.624 19.1983 110.867 18.9483 109.86 18.9483C108.812 18.9483 107.985 19.1809 107.381 19.6462C106.784 20.1045 106.371 20.6149 106.141 21.1774L103.214 20.5108C103.562 19.5386 104.068 18.7538 104.735 18.1566C105.409 17.5524 106.183 17.1149 107.058 16.8441C107.933 16.5663 108.853 16.4274 109.818 16.4274C110.457 16.4274 111.134 16.5038 111.85 16.6566C112.572 16.8024 113.246 17.0733 113.871 17.4691C114.503 17.8649 115.02 18.4309 115.423 19.167C115.825 19.8962 116.027 20.8441 116.027 22.0108V32.6358H112.985V30.4483H112.86C112.659 30.8511 112.357 31.2469 111.954 31.6358C111.551 32.0247 111.034 32.3476 110.402 32.6045C109.77 32.8615 109.013 32.9899 108.131 32.9899ZM108.808 30.4899C109.669 30.4899 110.405 30.3198 111.016 29.9795C111.634 29.6393 112.103 29.1948 112.423 28.6462C112.749 28.0906 112.912 27.4969 112.912 26.8649V24.8024C112.801 24.9136 112.586 25.0177 112.266 25.1149C111.954 25.2052 111.596 25.2851 111.193 25.3545C110.791 25.417 110.398 25.4761 110.016 25.5316C109.634 25.5802 109.315 25.6219 109.058 25.6566C108.454 25.733 107.902 25.8615 107.402 26.042C106.909 26.2226 106.513 26.483 106.214 26.8233C105.923 27.1566 105.777 27.6011 105.777 28.1566C105.777 28.9274 106.062 29.5108 106.631 29.9066C107.2 30.2955 107.926 30.4899 108.808 30.4899Z" fill="black"/>
<path d="M101.042 11.3009V32.6342H97.9271V11.3009H101.042Z" fill="black"/>
<path d="M95.4979 11.3009V32.6342H92.3833V11.3009H95.4979Z" fill="black"/>
<path d="M83.2024 32.9587C81.7024 32.9587 80.3934 32.6149 79.2753 31.9274C78.1573 31.2399 77.2892 30.2781 76.6712 29.042C76.0531 27.8059 75.7441 26.3615 75.7441 24.7087C75.7441 23.049 76.0531 21.5976 76.6712 20.3545C77.2892 19.1115 78.1573 18.1462 79.2753 17.4587C80.3934 16.7712 81.7024 16.4274 83.2024 16.4274C84.7024 16.4274 86.0114 16.7712 87.1295 17.4587C88.2476 18.1462 89.1156 19.1115 89.7337 20.3545C90.3517 21.5976 90.6608 23.049 90.6608 24.7087C90.6608 26.3615 90.3517 27.8059 89.7337 29.042C89.1156 30.2781 88.2476 31.2399 87.1295 31.9274C86.0114 32.6149 84.7024 32.9587 83.2024 32.9587ZM83.2128 30.3441C84.1851 30.3441 84.9906 30.0872 85.6295 29.5733C86.2684 29.0594 86.7406 28.3754 87.0462 27.5212C87.3587 26.667 87.5149 25.7261 87.5149 24.6983C87.5149 23.6774 87.3587 22.7399 87.0462 21.8858C86.7406 21.0247 86.2684 20.3337 85.6295 19.8129C84.9906 19.292 84.1851 19.0316 83.2128 19.0316C82.2337 19.0316 81.4212 19.292 80.7753 19.8129C80.1364 20.3337 79.6608 21.0247 79.3483 21.8858C79.0427 22.7399 78.8899 23.6774 78.8899 24.6983C78.8899 25.7261 79.0427 26.667 79.3483 27.5212C79.6608 28.3754 80.1364 29.0594 80.7753 29.5733C81.4212 30.0872 82.2337 30.3441 83.2128 30.3441Z" fill="black"/>
<path d="M74.4062 18.2392H71.1562C71.0312 17.5448 70.7986 16.9337 70.4583 16.4059C70.1181 15.8781 69.7014 15.4302 69.2083 15.0621C68.7153 14.6941 68.1632 14.4163 67.5521 14.2288C66.9479 14.0413 66.3056 13.9476 65.625 13.9476C64.3958 13.9476 63.2951 14.2566 62.3229 14.8746C61.3576 15.4927 60.5937 16.3989 60.0312 17.5934C59.4757 18.7878 59.1979 20.2462 59.1979 21.9684C59.1979 23.7045 59.4757 25.1698 60.0312 26.3642C60.5937 27.5587 61.3611 28.4614 62.3333 29.0726C63.3056 29.6837 64.3993 29.9892 65.6146 29.9892C66.2882 29.9892 66.9271 29.8989 67.5312 29.7184C68.1424 29.5309 68.6944 29.2566 69.1875 28.8955C69.6806 28.5344 70.0972 28.0934 70.4375 27.5726C70.7847 27.0448 71.0243 26.4406 71.1562 25.7601L74.4062 25.7705C74.2326 26.8191 73.8958 27.7844 73.3958 28.6663C72.9028 29.5413 72.2674 30.2983 71.4896 30.9371C70.7188 31.5691 69.8368 32.0587 68.8438 32.4059C67.8507 32.7531 66.7674 32.9267 65.5938 32.9267C63.7465 32.9267 62.1007 32.4892 60.6562 31.6142C59.2118 30.7323 58.0729 29.4719 57.2396 27.833C56.4132 26.1941 56 24.2392 56 21.9684C56 19.6906 56.4167 17.7358 57.25 16.1038C58.0833 14.4649 59.2222 13.208 60.6667 12.333C62.1111 11.451 63.7535 11.0101 65.5938 11.0101C66.7257 11.0101 67.7812 11.1732 68.7604 11.4996C69.7465 11.8191 70.6319 12.2913 71.4167 12.9163C72.2014 13.5344 72.8507 14.2913 73.3646 15.1871C73.8785 16.076 74.2257 17.0934 74.4062 18.2392Z" fill="black"/>
</svg>
