<svg width="24" height="24" viewBox="0 0 24 24" fill="none" xmlns="http://www.w3.org/2000/svg">
<path d="M12 22C17.5228 22 22 17.5228 22 12C22 6.47715 17.5228 2 12 2C6.47715 2 2 6.47715 2 12C2 17.5228 6.47715 22 12 22Z" stroke="#3B3B3C" stroke-width="1.7" stroke-linecap="round" stroke-linejoin="round"/>
<path d="M22 13.264C21.0592 13.0881 20.1041 12.9997 19.147 13C13.795 13 9.034 15.742 6 20M19 5C15.87 8.667 11.168 11 5.91 11C4.564 11 3.255 10.847 2 10.559" stroke="#3B3B3C" stroke-width="1.7" stroke-linecap="round" stroke-linejoin="round"/>
<path d="M14.618 22C14.8727 20.7629 15.0007 19.5031 15 18.24C15 11.926 11.834 6.347 7 3" stroke="#3B3B3C" stroke-width="1.7" stroke-linecap="round" stroke-linejoin="round"/>
</svg>
