<svg width="129" height="52" viewBox="0 0 129 52" fill="none" xmlns="http://www.w3.org/2000/svg">
<g clip-path="url(#clip0_700_27517)">
<rect width="52" height="52" rx="26" fill="#5564EB"/>
<path fill-rule="evenodd" clip-rule="evenodd" d="M47.1096 81.309C46.9487 79.8141 46.8495 78.3087 46.7926 76.8062C46.7358 75.3054 46.8101 73.7863 46.8428 72.285C46.9093 69.2309 47.0174 66.1696 46.7743 63.1202C46.5446 60.2383 46.0173 57.3765 45.1851 54.6074C44.7799 53.2588 44.3528 51.856 43.6863 50.6099C43.0161 49.3571 41.9545 48.5228 40.7884 47.7577C39.5469 46.9431 38.3153 46.1131 37.0786 45.291C36.0405 44.6009 34.1723 43.7977 33.3206 42.8751C32.4244 41.9043 32.2559 39.498 31.659 38.348C31.0778 37.2278 29.4324 36.4972 28.1655 36.4972C26.0685 36.4972 24.4796 36.3899 22.7553 38.3305C21.895 39.2988 22.5795 40.2776 21.6778 41.2069C20.8487 42.0613 18.7285 42.9393 17.6599 43.4351C16.3801 44.0289 15.068 44.5531 13.7369 45.0201C12.379 45.4965 10.9869 45.8515 9.62145 46.3011C8.3126 46.7321 6.60353 48.5083 5.58744 49.4482C4.64278 50.322 4.40834 50.2242 3.69018 51.2857C2.11404 53.6153 0.536184 55.9717 -0.718941 58.494C-1.34412 59.7504 -1.94946 61.0721 -2.17629 62.4674C-2.41824 63.9557 -2.17835 65.3939 -1.78597 66.8348C-1.38656 68.3012 -0.118241 69.6974 0.294961 71.1601C0.485378 71.8341 -0.168249 72.5697 0.1324 73.205C0.282559 73.5222 0.47165 73.8047 0.68694 74.0811C0.852817 74.2941 1.4997 74.2469 1.5834 74.5076C1.66797 74.7708 1.19996 75.3172 1.193 75.5897C1.18311 75.9796 1.16759 76.3696 1.15479 76.7595L1.07918 79.0649C1.02951 80.5798 0.979829 82.0948 0.930152 83.6097C0.913902 84.1042 0.890224 84.5873 1.00875 85.0566C0.965967 85.0169 0.92531 84.9737 0.888168 84.9252C0.779462 84.7832 0.548918 84.9036 0.641176 85.0696C0.795181 85.3468 1.01664 85.5419 1.27683 85.682C1.5792 86.1279 47.3712 87.124 47.5966 85.8202C47.723 85.0887 47.4929 84.3055 47.4009 83.5787C47.3051 82.8218 47.1913 82.068 47.1096 81.309Z" fill="#FCFCFD"/>
<path fill-rule="evenodd" clip-rule="evenodd" d="M0.597165 62.4732C0.709187 62.1522 1.22161 62.2911 1.10879 62.6143C0.528851 64.2761 0.940261 66.0845 1.56723 67.6708C1.69304 67.9891 1.17969 68.1259 1.0556 67.8119C0.396069 66.1432 -0.0119598 64.2184 0.597165 62.4732ZM4.4857 71.9654C6.12127 72.1956 7.75816 72.3376 9.40499 72.4524C9.47861 72.4577 9.54229 72.4465 9.59734 72.4225C9.54826 73.1769 9.50846 73.932 9.47729 74.6871C9.02827 74.6745 8.56997 74.7043 8.12493 74.6924C7.54326 74.6764 6.96226 74.6473 6.38192 74.6029C5.25839 74.5179 4.13684 74.3825 3.0259 74.1954C2.61071 74.1257 2.08343 74.0833 1.61054 73.9453C1.16351 73.8146 0.765563 73.5983 0.55664 73.1909C0.378891 72.8458 0.346392 72.4233 0.346392 72.0417C0.346392 71.7789 0.391492 71.5122 0.418686 71.2475C0.452511 71.2236 0.48302 71.195 0.50756 71.1633C1.00101 71.3191 1.51304 71.4287 2.01445 71.5348C2.83091 71.7086 3.6593 71.8493 4.4857 71.9654ZM3.56326 65.8305C3.57228 66.3376 3.71256 66.7983 3.98549 67.2252C4.17013 67.5142 3.7107 67.78 3.52732 67.4931C3.20604 66.9904 3.04328 66.4261 3.03267 65.8305C3.02657 65.4882 3.55716 65.4893 3.56326 65.8305ZM45.4889 71.3629C45.7103 71.3753 45.9332 71.3829 46.1553 71.3947C46.3512 71.5623 46.6225 71.6482 46.8702 71.5949C46.8787 71.6163 46.8865 71.6404 46.8936 71.6681C46.9374 71.8386 46.9593 72.0218 46.9845 72.1956C47.0097 72.3668 47.0289 72.5394 47.0422 72.7119C47.0488 72.7987 47.0906 72.9951 47.0375 73.0708C46.9898 73.1391 46.8843 73.1331 46.8114 73.1418C46.615 73.163 46.4161 73.173 46.2184 73.1896C45.845 73.222 45.4716 73.2546 45.0989 73.2871C44.7334 73.319 44.3322 73.309 43.9747 73.4052C43.9136 72.6879 43.8579 71.9707 43.8062 71.2528C44.36 71.3344 44.939 71.3324 45.4889 71.3629ZM-0.946273 70.1733C-0.723423 70.6039 -0.517817 71.0272 -0.0913502 71.2859C-0.0356376 71.3191 0.0267077 71.337 0.0903792 71.3417C0.0426256 71.5467 0.0127794 71.7564 -0.0137505 71.9501C-0.072116 72.3768 -0.0847178 72.818 0.0220647 73.2386C0.126194 73.648 0.298638 74.0137 0.636893 74.2758C0.794082 74.3978 0.965863 74.4907 1.14627 74.5643C1.11576 74.6499 1.09785 74.7349 1.10713 74.8285C1.06402 75.0454 1.0355 75.2664 1.00433 75.478C0.936017 75.9477 0.867702 76.4181 0.813979 76.8906C0.706534 77.8301 0.622302 78.7696 0.551334 79.7124C0.480367 80.6526 0.429297 81.5942 0.38685 82.5364C0.364963 83.0181 0.345728 83.4997 0.327821 83.9821C0.309913 84.4778 0.229661 84.9847 0.448531 85.4445C0.624955 85.8161 1.22121 85.7948 1.40427 85.4445C1.6364 84.9993 1.56809 84.4704 1.57406 83.9821C1.58003 83.5223 1.58799 83.0619 1.59794 82.602C1.61783 81.6606 1.64702 80.7196 1.67023 79.7782C1.69278 78.8592 1.72064 77.9409 1.73921 77.0219C1.74849 76.5409 1.74916 76.0599 1.75181 75.5788C1.75313 75.3121 1.76441 75.0275 1.74451 74.7494C1.91032 74.7886 2.07746 74.8218 2.24261 74.8556C3.50344 75.1144 4.77753 75.3028 6.05959 75.4196C6.7036 75.478 7.3496 75.5191 7.9956 75.5424C8.47048 75.5596 8.96261 75.5927 9.44479 75.5749C9.40698 76.7267 9.38974 77.8792 9.39173 79.0318C9.39306 79.8631 9.40433 80.6944 9.42489 81.5258C9.43617 81.9631 9.44545 82.4003 9.45872 82.8376C9.46469 83.034 9.46469 83.2323 9.47795 83.4281C9.48193 83.4891 9.49055 83.5482 9.50183 83.6066C9.45805 83.7307 9.42158 83.8534 9.39173 83.9682C9.24582 84.5255 9.24581 85.061 9.31081 85.6289C9.36653 86.1106 9.77177 86.5572 10.307 86.388C10.3939 86.3608 10.4808 86.3322 10.567 86.303C11.3549 86.3926 12.1475 86.4132 12.9467 86.4284C14.1147 86.4511 15.2833 86.4583 16.452 86.4643C18.7441 86.4763 21.037 86.4823 23.3298 86.4888C27.9374 86.5021 32.545 86.5147 37.1525 86.528C38.4313 86.532 39.71 86.5353 40.9887 86.5393C41.6507 86.5412 42.3112 86.5419 42.9725 86.5672C43.2809 86.5791 43.59 86.5957 43.8984 86.6004C44.2559 86.6063 44.5722 86.5034 44.9138 86.4099C45.1068 86.3561 45.1831 86.1624 45.142 85.9986C45.451 86.0721 45.8258 85.9156 45.9312 85.5673C46.0082 85.3144 45.9797 85.0404 45.8649 84.8062V84.8055C45.6434 83.4062 45.3622 82.0135 45.1413 80.6135C44.8992 79.0801 44.6664 77.5435 44.4615 76.0042C44.3076 74.8417 44.1809 75.6657 44.0715 74.498C44.5484 74.5351 45.0876 74.3899 45.5598 74.3281C45.8987 74.2844 46.2403 74.2492 46.5799 74.2027C46.5547 74.5451 46.562 74.8941 46.5527 75.2225C46.5348 75.8747 46.5427 76.5243 46.5593 77.1766C46.5912 78.4352 46.6621 77.7027 46.7755 78.9561C46.8903 80.2187 47.0309 81.4767 47.2013 82.7334C47.2889 83.3804 47.3824 84.0266 47.4812 84.6721C47.527 84.9734 47.5741 85.274 47.6225 85.5752C47.6802 85.9302 47.6988 86.2666 47.9647 86.5333C48.167 86.7356 48.5802 86.7184 48.7142 86.4364C48.884 86.0801 48.8071 85.7749 48.7441 85.4007C48.693 85.1001 48.6439 84.7995 48.5955 84.499C48.492 83.8547 48.3939 83.2098 48.3017 82.5643C48.1239 81.3202 47.9561 80.0741 47.8062 78.8267C47.655 77.5693 47.4985 78.3038 47.3499 77.0466C47.275 76.4122 47.2 75.7792 47.1125 75.1469C47.068 74.8218 47.0402 74.4755 46.9818 74.1403C47.0004 74.1377 47.019 74.1344 47.0375 74.131C47.4408 74.0574 47.785 73.8298 47.8865 73.4145C47.9833 73.017 47.8679 72.5599 47.7863 72.1698C47.7167 71.8375 47.6537 71.4133 47.4399 71.1286C48.1934 70.1685 48.6834 68.9604 48.996 67.799C49.3365 66.5336 49.4791 65.2127 49.5092 63.9051C49.5443 62.3902 49.4301 60.884 49.1706 59.4028C49.1645 59.0889 49.15 58.7752 49.1268 58.4617C48.8986 55.3858 47.9409 51.7451 44.9045 50.3079C44.8926 50.302 44.88 50.2966 44.8674 50.2913C44.6293 50.0067 44.3322 49.7506 44.0921 49.5111C43.6669 49.0864 43.2225 48.6803 42.7516 48.3061C41.8191 47.565 40.7964 46.9732 39.7332 46.4403C38.6581 45.9009 37.567 45.3947 36.5165 44.8061C35.6012 44.2926 34.7774 43.6742 33.9955 42.9762C33.1167 42.1912 32.4912 41.133 32.2458 39.9778C32.2332 39.9175 32.1437 39.9341 32.1424 39.9917C32.078 42.109 33.5067 43.9801 35.1508 45.1638C37.1167 46.5777 39.4905 47.2472 41.4842 48.618C41.9796 48.9584 42.4432 49.3426 42.8843 49.7506C42.2084 49.6816 41.5207 49.7253 40.8873 49.9125C40.6379 49.8972 40.3872 49.8926 40.1371 49.8806C39.5654 49.8521 38.993 49.8256 38.4206 49.8003C37.254 49.7486 36.0867 49.7015 34.9194 49.6604C32.6292 49.5794 30.3383 49.5183 28.0475 49.4779C23.4439 49.3962 18.8344 49.3803 14.2314 49.5138C12.9832 49.5496 6.41973 49.3008 5.8122 49.371C6.70559 48.5974 7.68586 47.9658 8.76364 47.4462C10.112 46.798 11.5055 46.3654 12.9454 45.9699C15.9108 45.1558 18.9902 44.3709 21.3633 42.3027C21.9529 41.7885 22.4769 41.1974 22.906 40.5425C23.3159 39.9175 23.7715 39.1172 23.7828 38.3549C23.7908 37.8135 23.0373 37.6164 22.7694 38.0802C22.6029 38.3675 22.5207 38.6826 22.3847 38.9839C22.2494 39.2824 22.0889 39.5704 21.9105 39.8458C21.5596 40.3872 21.1245 40.8702 20.651 41.3061C19.6415 42.2364 18.4185 42.9178 17.153 43.4333C14.2798 44.6031 11.1374 45.0967 8.41477 46.6388C7.22358 47.3135 6.08346 48.2445 5.36782 49.4321C5.25242 49.4501 5.13768 49.4712 5.02293 49.4951C5.10849 49.387 5.19471 49.2789 5.2816 49.1713C5.33864 49.101 5.25043 49.0082 5.18079 49.0705C3.8271 50.2754 2.5802 51.5765 1.45003 52.9951C0.368942 54.3526 -0.639191 55.7752 -1.35284 57.365C-2.63556 60.2207 -2.9181 63.4871 -2.25552 66.5406C-2.07512 67.3726 -1.82043 68.1874 -1.4961 68.975C-1.32897 69.3817 -1.1479 69.7824 -0.946273 70.1733Z" fill="#1D1E20"/>
<path fill-rule="evenodd" clip-rule="evenodd" d="M28.2672 10.6093C32.0332 10.6093 36.7499 14.9068 38.1303 16.7356C39.291 18.2732 39.1268 26.1942 39.1268 30.8929C39.1268 31.8756 38.6827 33.7355 38.5215 34.6755C37.9308 38.1201 35.3573 41.0089 30.2636 41.0089C26.1162 41.0089 22.9245 39.6948 19.8381 36.3335C19.1339 35.5667 15.6951 38.3119 14.9918 37.3233C13.1549 37.3233 11.6189 20.1533 15.2255 15.0032C18.8321 9.85323 24.5013 10.6093 28.2672 10.6093Z" fill="#FCFCFD"/>
<path fill-rule="evenodd" clip-rule="evenodd" d="M16.956 11.8198C19.1321 9.83921 22.0312 8.88642 24.9561 8.95675C26.4709 8.99324 27.9805 9.28187 29.4111 9.77618C30.1267 10.0243 30.8198 10.3481 31.4824 10.7144C31.7212 10.8461 31.9413 11.0003 32.1532 11.1642L32.206 11.2054H32.2067C32.7751 11.4097 33.2825 11.7766 33.7428 12.2059C34.6653 12.1323 35.5952 12.2152 36.4873 12.4999C37.7289 12.8966 38.8783 13.6232 39.6854 14.6549C40.6256 15.8561 40.9382 17.3131 40.8267 18.8171L40.8061 19.0726C40.6958 20.4013 40.4982 22.1102 39.4082 22.9832C39.3253 23.0496 39.2338 23.1 39.1389 23.1305C39.8413 24.3341 40.4177 25.6704 40.7625 27.02C42.0791 32.1748 41.067 37.5505 39.4838 42.5188C39.3538 42.9282 38.735 43.2002 38.42 42.8001C37.8575 42.0849 37.0404 41.5395 36.1212 41.4373C35.5541 41.3743 34.9897 41.4884 34.4538 41.231C34.2435 41.1294 34.0406 40.9636 33.8946 40.7619C32.99 41.1049 32.0157 41.2668 31.0493 41.227C29.4635 41.162 27.7682 40.6126 26.6772 39.4076C26.5021 39.2142 26.4577 38.9971 26.4981 38.8013C26.6349 38.7525 26.7754 38.7161 26.9201 38.6934C28.3036 39.5091 29.8287 40.0542 31.4677 40.0884C32.4147 40.1082 33.3385 39.9757 34.1064 39.3841C34.2726 39.256 34.4254 39.1142 34.5666 38.9619C36.1722 37.9287 37.3041 36.1738 37.8423 34.294C38.3437 32.541 38.282 30.7157 38.1096 28.9176L38.0186 27.9688C37.886 26.5761 37.7629 25.1793 37.7285 23.7808L37.7389 23.7802C38.0779 23.7584 38.0804 23.2273 37.7389 23.2494C36.8555 23.3066 35.9788 23.1617 35.0982 23.2248C35.0908 22.8083 35.0608 22.3937 34.9385 21.992C34.8686 21.7625 34.4691 21.7173 34.4268 21.992C34.3702 22.3596 34.3495 22.7251 34.3433 23.0944C33.0254 23.0769 31.7087 22.9659 30.3906 23.0115C30.1474 22.7521 30.07 22.2921 29.9563 21.9721C29.9397 21.925 29.9231 21.8785 29.9059 21.8314C29.8059 22.2887 29.6643 22.736 29.4779 23.1738L29.1546 23.1749C27.3204 23.1835 25.4489 23.2384 23.6578 23.6194C23.5334 23.5238 23.4593 23.357 23.4392 23.2055C23.3093 22.2198 23.1239 21.2603 22.7953 20.321L22.7483 20.1885C22.7444 20.1775 22.7404 20.1658 22.7361 20.1535C22.494 20.5445 22.2051 20.909 21.89 21.2484C21.7043 21.4484 21.5095 21.6397 21.3097 21.8256C21.1156 22.0412 20.9149 22.2536 20.7205 22.4699C20.7281 22.5092 20.7347 22.5492 20.7401 22.5899C20.7996 23.0387 20.8058 23.4939 20.7622 23.9445C20.6834 24.7591 20.4535 25.544 20.0842 26.2702L20.0725 26.3429C20.0165 26.6832 19.9367 27.0349 19.7503 27.2911C19.9829 27.5517 20.162 27.8631 20.2659 28.2089C20.3583 28.5169 19.9325 28.7837 19.7116 28.5317C19.5362 28.3316 19.3412 28.1659 19.1272 28.0337C19.1136 28.0521 19.0892 28.0611 19.0618 28.0458C18.4656 27.7147 17.4528 27.8149 16.8572 28.1267C16.1164 28.5142 15.8272 29.3098 15.9094 30.1159C15.9883 30.8863 16.3253 31.7866 16.9786 32.1814C17.2784 32.3625 17.5118 32.3778 17.8302 32.2909C17.932 32.2632 18.0582 32.1784 18.1123 32.1363L18.1656 32.0935C18.3743 31.9285 18.5687 31.8155 18.8151 31.8112C19.0671 31.7326 19.3203 31.8416 19.4167 32.1059L19.4226 32.123C19.4677 32.2577 19.55 32.4269 19.5321 32.6326C19.5135 32.8529 19.4127 33.0533 19.2621 33.2145C19.2363 33.2424 19.2084 33.2702 19.1799 33.2961C21.7732 36.1047 22.1061 40.4812 20.7763 43.9898C20.7186 44.1437 20.6569 44.2957 20.5926 44.4463C20.3704 44.9625 19.5148 44.8026 19.406 44.291C19.3735 44.1378 19.3377 43.9852 19.2986 43.8339C19.2267 43.5543 19.1443 43.2774 19.0514 43.0045L19.0161 42.9023C18.9371 42.6767 18.8635 42.4492 18.7839 42.2236L18.776 42.1978C18.773 42.1876 18.7697 42.1758 18.766 42.1625L18.6314 42.4564L18.2222 43.3436C18.0307 43.7575 17.4222 43.5325 17.3996 43.1336L17.3991 43.12C17.3971 43.0463 17.3944 42.9733 17.3898 42.901C17.3606 42.3589 17.2671 41.8321 17.1185 41.3165L17.0649 41.3832C16.2668 42.3703 15.33 43.2956 14.045 43.5234C13.7227 43.5804 13.3579 43.2434 13.5794 42.9176C13.671 42.7829 13.7592 42.6449 13.8427 42.5049C13.7705 42.471 13.7021 42.4359 13.6391 42.4001C13.1516 42.126 12.7457 41.7359 12.4101 41.2933C11.6985 40.3551 11.4438 39.1741 11.3814 38.0183C11.3151 36.7968 11.4226 35.5089 11.7562 34.3305C11.9008 33.8209 12.0964 33.3319 12.3226 32.8575C12.3067 32.8151 12.2914 32.7726 12.2762 32.7301C12.0321 32.0494 11.8318 31.3534 11.6653 30.6494C11.3297 29.2282 11.1493 27.7618 11.1274 26.3014C11.0876 23.6852 11.5386 21.0272 12.4891 18.5875C13.4707 16.0715 14.947 13.6477 16.956 11.8198ZM15.7337 34.6934C15.5534 34.4095 15.1024 34.6654 15.2698 34.9513L15.276 34.9615C15.5619 35.412 15.6959 35.9242 15.8603 36.4265C15.9658 36.7496 16.4785 36.6116 16.3717 36.2852L16.3363 36.1762C16.1727 35.6669 16.0234 35.1492 15.7337 34.6934ZM17.3036 29.2739L17.4233 29.216C17.801 29.0356 18.132 28.9128 18.5783 29.0702C19.1759 29.2806 19.8159 29.95 19.412 30.5996C19.2634 30.8391 18.9995 30.9347 18.7275 30.8783C18.2691 30.7832 18.1508 30.3702 17.9182 30.0312L17.8781 29.9738C17.7363 29.7686 17.5569 29.485 17.3208 29.4046C17.2671 29.3861 17.2445 29.3025 17.3036 29.2739ZM17.6404 15.4824L17.679 15.4478C17.9356 15.2209 17.5589 14.8467 17.3036 15.0723C16.1349 16.1054 15.729 17.7223 15.1228 19.1004C14.9868 19.4103 15.4438 19.681 15.5811 19.3685C16.1594 18.0534 16.5432 16.4804 17.6404 15.4824ZM31.684 15.0305C31.3787 14.8928 31.1115 15.3374 31.4051 15.4837L31.4161 15.489C32.4481 15.9554 32.8872 17.0117 33.3077 17.9924C33.4416 18.3055 33.8986 18.0355 33.766 17.725L33.6901 17.549C33.2513 16.5384 32.7396 15.5083 31.684 15.0305ZM33.3017 14.3922C32.978 14.2801 32.8394 14.7923 33.1604 14.9044C34.0352 15.209 34.6355 15.8658 35.1415 16.6169C35.3312 16.8982 35.7909 16.6328 35.5992 16.3489C35.0115 15.477 34.3138 14.7452 33.3017 14.3922Z" fill="#1D1E20"/>
<path fill-rule="evenodd" clip-rule="evenodd" d="M31.5352 36.3518C31.0894 36.1698 30.6915 35.8663 30.4007 35.4786C30.2996 35.3438 30.2734 35.2014 30.2946 35.0713C30.3184 34.9249 30.405 34.7922 30.5231 34.7032C30.6415 34.614 30.7896 34.5699 30.9328 34.5924C31.0573 34.6119 31.1812 34.68 31.2792 34.8214L31.2997 34.8497C31.4726 35.0837 31.6979 35.2757 31.9546 35.3995C32.2021 35.5187 32.4788 35.5744 32.7652 35.542C33.3107 35.4804 33.6866 35.1853 34.0862 34.7846C34.1357 34.734 34.1853 34.6818 34.2351 34.6288C34.2665 34.5807 34.3102 34.5498 34.3586 34.5336C34.4124 34.5156 34.4733 34.5166 34.5291 34.5361C34.5828 34.5549 34.6309 34.5904 34.6631 34.6378C34.6938 34.6828 34.7111 34.7384 34.7055 34.8023C34.6689 35.2176 34.4519 35.5882 34.1436 35.8793C33.8012 36.2025 33.3473 36.4261 32.92 36.5045C32.4493 36.5909 31.9696 36.529 31.5352 36.3518ZM33.1421 29.945C33.6429 30.2495 34.4061 30.9597 33.8673 31.7147C33.2331 32.3804 32.32 31.6171 31.87 31.2719C31.4528 31.0044 30.984 31.6925 31.3711 32.0049C34.6226 34.4131 35.9421 30.0246 33.3954 29.5869C33.115 29.5387 33.0109 29.8508 33.1421 29.945ZM27.3154 27.1436C27.3708 26.4565 28.4169 26.3004 28.5209 26.9804C28.6141 27.5895 28.5044 28.149 28.2302 28.6974C27.9681 29.2213 27.3095 28.9769 27.2597 28.4998C27.1929 27.8604 27.281 27.5711 27.3154 27.1436ZM35.2786 26.8394C35.4244 26.6483 35.635 26.5179 35.8873 26.5916C36.6756 26.822 36.4433 27.9416 36.1664 28.4865C36.016 28.7824 35.5298 28.8575 35.31 28.5969C34.9519 28.172 34.7804 27.3234 35.2357 26.9049C35.248 26.8833 35.2617 26.8614 35.2786 26.8394ZM28.2191 24.1369L28.3436 24.1151C28.7288 24.0484 29.2077 23.9844 29.4802 24.2942C29.6248 24.4585 29.6745 24.7638 29.4802 24.9211C29.1385 25.1978 28.7607 25.0905 28.3513 25.114C28.0138 25.1333 27.6895 25.1892 27.3644 25.2822C26.6513 25.4861 26.0702 25.8583 25.4612 26.267C25.3812 26.3206 25.2997 26.2184 25.3378 26.1436C25.6894 25.4547 26.3707 24.8888 27.0532 24.5438C27.4175 24.3597 27.8161 24.207 28.2191 24.1369ZM34.56 23.8283L34.6553 23.8478C35.6925 24.0647 37.0399 24.4979 37.5311 25.517C37.5498 25.6611 37.53 25.692 37.5139 25.7122L37.5086 25.7189C37.4953 25.7361 37.4848 25.7599 37.4223 25.7795C37.405 25.7754 37.3875 25.771 37.3698 25.7663C37.1447 25.7073 36.9666 25.626 36.7941 25.5417L36.6072 25.4495C36.3902 25.3431 36.1714 25.2406 35.9395 25.1649C35.4446 25.0034 34.9355 24.8896 34.4185 24.8289C34.3065 24.8157 34.1986 24.7779 34.1135 24.7131C34.0327 24.6515 33.971 24.5663 33.9428 24.4531C33.9064 24.3065 33.9168 24.1955 33.9954 24.0633C34.0546 23.964 34.1391 23.8952 34.2363 23.8556C34.3353 23.8153 34.448 23.8058 34.56 23.8283Z" fill="#1D1E20"/>
<path fill-rule="evenodd" clip-rule="evenodd" d="M38.7356 30.5396C38.289 31.1398 37.4612 31.3309 36.6976 31.2649C35.0507 31.1063 34.5324 29.2352 34.4784 27.7808C35.5827 28.0916 34.385 25.8905 38.1601 25.6485C39.4909 25.5375 39.124 26.3416 39.712 26.929C39.6999 28.162 39.4948 29.5016 38.7356 30.5396ZM30.8913 29.1229C29.919 33.6781 24.5946 32.5946 24.0353 28.4884C24.5518 28.1237 24.4157 27.2233 25.0574 26.8971C26.0742 26.2471 27.3454 26.2749 28.5002 26.2901C29.9763 26.3916 30.3969 27.0033 31.1551 27.6706C31.1186 28.1164 31.0134 28.6447 30.8913 29.1229ZM40.8448 24.8941C40.7902 24.885 40.7356 24.8764 40.6809 24.8684C40.6383 24.8442 40.5882 24.8255 40.5299 24.8143C40.397 24.7805 40.2649 24.7578 40.1331 24.7455C38.2407 24.3195 33.8628 24.9244 33.6821 26.5399C33.0795 26.7411 32.5581 26.5609 31.8596 26.5788C31.3279 24.3558 22.1365 24.6695 21.6944 26.0098C21.6928 26.0093 21.6911 26.009 21.6894 26.0084C21.2647 25.8769 20.6385 25.9086 20.1523 25.8878C19.1143 25.866 18.075 25.9586 17.0594 26.1776C15.1576 26.48 12.562 26.834 13.8847 29.2098C13.8849 29.2102 13.8851 29.2107 13.8855 29.2111C14.1134 29.4448 14.5005 29.2564 14.5149 28.94C14.0702 27.8144 15.0746 27.6793 15.8474 27.3558C17.7704 26.6647 19.7281 26.5689 21.7169 26.7827C21.8666 26.9589 22.0936 27.1126 22.3335 27.193C23.6633 27.4138 22.9625 28.4006 23.803 28.5441C23.6486 31.9838 27.8232 33.8614 30.2419 31.6002C31.2077 30.6557 31.4379 29.2564 31.6618 27.9952C31.7802 27.9685 31.8555 27.9038 31.8995 27.8181C32.1842 27.5337 32.3631 27.2711 32.9261 27.193C33.4891 27.1149 33.9226 27.2716 33.9812 27.3196C33.996 27.3494 34.0118 27.3792 34.0303 27.4091C34.056 27.4536 34.091 27.4891 34.1308 27.517C33.5748 30.9423 36.2329 33.1085 38.9163 31.332C40.0823 30.2347 40.3287 28.5549 40.3774 27.0555C40.5355 26.9601 40.6355 26.7752 40.5808 26.5427C40.5054 26.2222 40.6822 25.9447 40.9638 25.8054C41.3298 25.6244 41.265 24.9637 40.8448 24.8941Z" fill="#1D1E20"/>
</g>
<rect x="1" y="1" width="50" height="50" rx="25" stroke="#FCFCFD" stroke-width="2"/>
<g clip-path="url(#clip1_700_27517)">
<rect x="38.125" width="52" height="52" rx="26" fill="#5564EB"/>
<path fill-rule="evenodd" clip-rule="evenodd" d="M87.6885 87.1144C89.073 87.0476 88.5162 84.6249 88.4168 83.7352C87.3207 80.4857 87.5784 76.9402 87.1472 73.5341C86.8787 70.3545 86.5336 67.1848 86.2433 64.0076C85.6732 57.5582 81.5794 44.4289 76.9076 42.3173C76.3191 39.7341 73.8884 37.3227 70.813 37.3227C68.7155 34.8389 66.1908 33.0908 62.9526 33.4438C61.6144 33.5047 60.3166 34.9245 59.0344 35.1987C58.3165 35.2977 51.9451 35.0428 50.6688 35.8011C49.7798 36.2577 48.9772 37.1016 49.2386 38.1759C49.6557 39.4775 48.3596 38.0692 45.6558 39.4584C40.1424 42.771 43.4369 47.2025 43.5829 47.3398C40.1424 52.1286 37.1351 56.0138 35.7437 61.8672C34.842 66.2129 34.9435 70.699 34.1879 75.067C33.9211 76.5816 33.5119 78.0443 33.069 79.5151C32.589 81.4399 32.3557 86.2375 32.0911 86.2803C31.6092 86.4001 32.3696 87.3899 32.8802 87.3907C47.0374 89.74 61.4177 87.488 75.6509 87.1201C79.6621 86.9806 83.6776 86.9484 87.6885 87.1144Z" fill="#FCFCFD"/>
<path fill-rule="evenodd" clip-rule="evenodd" d="M66.2337 47.7629C66.2403 47.6981 66.3277 47.6982 66.3344 47.7629L66.4343 48.7282C66.556 49.9071 66.673 51.0837 66.7579 52.2681C66.8637 53.745 66.9345 55.2216 66.9686 56.7018C67.0875 61.8572 67.1112 67.0153 67.1212 72.1719C67.8183 72.1236 68.5155 72.0771 69.213 72.0321C69.6862 72.0016 70.1595 71.9722 70.6328 71.9434L71.8397 71.8701L72.3366 71.8396C72.6723 71.8189 73.0538 71.7343 73.2886 72.0318C73.3825 72.1509 73.4297 72.3057 73.3421 72.4471C73.14 72.7733 72.8296 72.7619 72.4785 72.776C72.1472 72.7894 71.816 72.8025 71.4847 72.8153C70.7749 72.8429 70.0651 72.8689 69.355 72.8888C68.6099 72.9097 67.8651 72.9267 67.1202 72.9394C67.1126 75.1163 67.0226 77.2906 66.9253 79.4651L66.8812 80.4437C66.7621 83.09 66.6339 85.7386 66.4519 88.3813C66.4369 88.5977 66.1309 88.5973 66.1161 88.3813C65.9111 85.4052 65.7758 82.4226 65.6417 79.4424C65.5445 77.2817 65.4879 75.1203 65.4609 72.9587C65.3624 72.9593 65.264 72.9607 65.1656 72.9611C62.3698 72.9732 59.5747 72.9854 56.779 72.9592C56.7836 72.9647 56.7882 72.9702 56.7913 72.9775C56.9936 73.4553 57.0129 74.065 57.0079 74.5778C57.0022 75.1659 56.9231 75.7468 56.7877 76.3187C56.3026 78.3675 55.0514 80.2025 53.6264 81.7196L53.5799 81.769C53.2437 82.1243 52.8581 82.4812 52.6517 82.9338C52.4409 83.3959 52.3677 83.9364 52.2637 84.4329L52.2516 84.49L51.8448 86.3695C51.7156 86.9665 51.6789 87.8371 51.2065 88.2678C50.7658 88.6697 50.182 88.4598 49.9746 87.9424C49.8126 87.5386 49.9739 87.095 50.0699 86.6914L50.8214 83.531C50.9449 83.0156 51.0798 82.4968 51.3464 82.0338C51.6194 81.5596 52.0196 81.2159 52.428 80.8641C53.2013 80.1981 53.9113 79.4355 54.5116 78.61C55.1118 77.7847 55.6247 76.875 55.9844 75.9184C56.1645 75.4395 56.3121 74.942 56.4139 74.4405C56.5107 73.9646 56.5098 73.4717 56.6133 73.0008C56.6204 72.9683 56.6479 72.946 56.6793 72.9361C56.6719 72.9151 56.6832 72.8867 56.7126 72.8849L58.9991 72.7379C61.0316 72.6067 63.0639 72.4722 65.0946 72.3185L65.4534 72.2926C65.4255 69.4084 65.4492 66.5237 65.5013 63.6384C65.549 60.9926 65.55 58.3461 65.6286 55.7007C65.6677 54.3877 65.7521 53.0778 65.8459 51.7676C65.9419 50.4276 66.0956 49.0989 66.2337 47.7629ZM44.7646 63.1039C44.7403 62.957 44.925 62.866 45.0102 63.0003C45.9838 64.5355 46.4533 66.2031 46.6511 67.9997C46.8259 69.5853 46.7744 71.1937 46.6874 72.7835C46.5945 74.4791 46.4862 76.1742 46.3767 77.8689L46.2084 80.4677L45.7861 86.9827C45.7559 87.4487 45.6501 87.8725 45.2491 88.0891C45.1983 88.1315 45.1453 88.1696 45.0836 88.2025C44.8669 88.3184 44.5795 88.2599 44.4542 88.0374L44.5045 88.0705C44.5482 88.0981 44.4991 88.0596 44.357 87.9552L44.2365 87.7991C44.1489 87.6674 44.0929 87.5379 44.0704 87.3813C44.0355 87.138 44.0807 86.8711 44.0966 86.6266L44.3734 82.3545C44.5887 79.0333 44.8401 75.7131 45.0296 72.3902C45.1178 70.8415 45.1796 69.2913 45.1378 67.7399C45.0961 66.1971 45.0175 64.6281 44.7646 63.1039ZM53.1873 34.5056L53.2413 34.4965C55.1751 34.1752 57.278 34.2353 59.0453 35.1679C59.0599 35.1756 59.0533 35.1999 59.0369 35.1991L58.468 35.1764C56.6671 35.1059 54.8718 35.0641 53.1011 35.4874L52.9198 35.5311C52.2821 35.6867 51.6162 35.8771 51.104 36.2985C50.6144 36.7012 50.3707 37.3225 50.1363 37.8945L50.1049 37.9699C49.8671 38.5348 49.5661 39.0706 49.0448 39.4238C48.3696 39.8812 47.5576 39.8252 46.7834 39.8873C45.4203 39.9969 44.3059 40.9851 43.7514 42.1945C43.4156 42.9268 43.2724 43.7478 43.2441 44.5485C43.2295 44.9562 43.2275 45.3799 43.2818 45.7848C43.2991 45.9143 43.4591 46.3861 43.5407 46.3748C43.722 46.3496 43.8878 46.4442 43.9443 46.5892C44.3922 46.1564 44.853 45.736 45.3286 45.3307C46.5141 44.3207 47.791 43.4053 49.1358 42.6188C50.1621 42.0183 51.2447 41.4235 52.3658 40.9738C52.2769 40.972 52.1893 40.9896 52.1046 41.0337C52.0675 41.0531 52.0306 41.0065 52.0599 40.9757C52.413 40.604 52.8359 40.5511 53.2623 40.6503C53.3533 40.6213 53.4443 40.5933 53.5357 40.5667C53.5812 40.5534 53.6039 40.6161 53.5667 40.6404L53.462 40.7073C53.9272 40.8632 54.3838 41.1695 54.7454 41.4113C55.784 42.1057 56.6981 42.9546 57.6248 43.7875L57.7933 43.9385C58.609 44.6671 59.4455 45.3752 60.3723 45.9597C60.8574 46.2656 61.3669 46.5486 61.9014 46.7591C62.3598 46.9398 63.1062 47.0535 63.3209 47.5382C63.5117 47.7701 63.432 48.0661 63.2085 48.2222C62.8316 48.6372 62.0775 48.3691 61.6283 48.1962C61.0868 47.9878 60.5622 47.7374 60.0619 47.4436C59.0906 46.8731 58.195 46.1639 57.3607 45.4094C56.4894 44.6214 55.6675 43.7842 54.82 42.9715C54.4528 42.6193 54.0941 42.2589 53.7264 41.9073L53.5417 41.7323C53.354 41.5562 53.0866 41.2817 52.8007 41.1156C52.262 41.437 51.7151 41.7452 51.1813 42.0749C50.4362 42.5351 49.713 43.0285 49.001 43.5382C47.6303 44.5194 46.3314 45.6183 45.1256 46.7962C42.914 48.9563 41.0298 51.423 39.3838 54.0349L39.2588 54.234C38.3234 55.7289 37.4389 57.2721 36.8117 58.924C36.1216 60.7418 35.786 62.6533 35.6037 64.5829C35.4228 66.4987 35.3617 68.4241 35.1595 70.3381C34.9521 72.301 34.5435 74.2206 34.0787 76.1367L33.9679 76.5909C33.5473 78.3069 33.1132 80.0229 32.8971 81.7794C32.7816 82.7176 32.7122 83.6687 32.7279 84.6145C32.7437 85.5659 32.8931 86.4961 33.0137 87.4375C33.0599 87.7981 32.7051 88.0991 32.3877 88.1469C32.0226 88.2017 31.709 87.9687 31.5956 87.6295C31.2418 86.5719 31.1775 85.4028 31.1887 84.2928C31.1998 83.1659 31.3436 82.0463 31.5459 80.9388C31.9438 78.7603 32.5578 76.6269 33.0714 74.4746C33.5241 72.5774 33.8279 70.677 33.9917 68.7335C34.1617 66.7172 34.2635 64.6941 34.5736 62.6923C34.8797 60.716 35.4556 58.8284 36.3242 57.0264C37.1151 55.3857 38.101 53.8413 39.1346 52.3445C40.3897 50.5268 41.7682 48.7972 43.3091 47.2213C43.1707 47.2153 43.0286 47.1706 42.8981 47.0891C42.4988 46.84 42.3128 46.3526 42.2556 45.9075C42.1218 44.8665 42.1541 43.7796 42.4218 42.7617C42.8535 41.1197 43.9741 39.6608 45.5981 39.0689C46.0161 38.9165 46.4604 38.8609 46.9034 38.85C47.3238 38.8395 47.7829 38.8943 48.1885 38.761C48.8341 38.5487 49.1109 37.7881 49.3533 37.2114L49.3645 37.185C49.6753 36.4502 50.0484 35.8204 50.7216 35.3616C51.4399 34.872 52.3398 34.6494 53.1873 34.5056ZM71.562 37.4115C72.1431 37.2098 72.8696 37.3928 73.4379 37.569C74.0711 37.7653 74.6561 38.127 75.1577 38.5565C75.6869 39.0094 76.1243 39.5687 76.4332 40.1934L76.4628 40.2536C76.745 40.8332 77.0664 41.6288 76.9241 42.2655C76.92 42.2835 76.9153 42.301 76.91 42.3178C78.063 42.8856 79.1279 43.5968 80.0551 44.4982C81.1348 45.5477 82.0491 46.742 82.8227 48.0323C85.8955 53.1569 86.4363 59.3115 86.7993 65.1557L86.8898 66.6375C87.0868 69.8372 87.3174 73.0294 87.9165 76.185L87.9602 76.4128C88.6005 79.7168 89.5172 83.046 89.4243 86.4353C89.3964 87.4508 87.8962 87.4439 87.8527 86.4353C87.689 82.639 86.8034 78.9736 86.2037 75.2366C85.1486 68.662 85.6773 61.8839 84.1822 55.3752C83.5955 52.8209 82.6866 50.3432 81.3888 48.0632C80.7477 46.9368 80.0142 45.8484 79.155 44.8767C78.4158 44.0406 77.6475 43.236 76.7836 42.5331C76.5075 42.8097 75.956 42.6687 75.8118 42.2655C75.7128 41.9884 75.7417 41.6644 75.6782 41.374C75.6192 41.1047 75.5379 40.8376 75.4296 40.5839C75.2137 40.0783 74.8968 39.5927 74.5309 39.1835C74.1357 38.7412 73.6814 38.3737 73.1732 38.0703C72.6614 37.7648 72.1017 37.6735 71.562 37.4503C71.5438 37.4428 71.5421 37.4184 71.562 37.4115ZM73.8197 72.5484C73.8206 72.5218 73.852 72.5092 73.8714 72.527C74.0751 72.7146 74.1982 72.9837 74.3482 73.2144C74.5211 73.4804 74.7027 73.741 74.8931 73.9949C75.2747 74.5034 75.6994 74.9827 76.1275 75.4523C76.5257 75.889 76.95 76.3073 77.3902 76.7016C77.8672 77.129 78.4017 77.5102 78.835 77.9833C79.7392 78.9706 79.8853 80.3256 80.0761 81.5979L80.097 81.7355C80.2133 82.4905 80.3175 83.2476 80.4115 84.0057C80.4572 84.3745 80.5028 84.7437 80.54 85.1134L80.5514 85.2305C80.5846 85.5925 80.5936 85.9597 80.3858 86.2759C80.1634 86.6143 79.6577 86.7329 79.357 86.4085C78.8405 85.8511 78.9373 84.8611 78.8701 84.1441C78.8146 83.5512 78.7516 82.9591 78.6811 82.3678L78.6453 82.0722C78.5622 81.3996 78.4947 80.7135 78.3409 80.0526C78.2053 79.4705 77.9469 79.0312 77.5229 78.6095C77.0958 78.1848 76.652 77.7882 76.2578 77.3308C75.8397 76.8456 75.4625 76.3254 75.1227 75.7825C74.832 75.3181 74.599 74.8127 74.3855 74.3079L74.3501 74.2238C74.1438 73.7316 73.8036 73.0907 73.8197 72.5484ZM81.278 51.4041C81.2825 51.3354 81.384 51.3344 81.3855 51.4041C81.3983 51.9946 81.4106 52.5851 81.4229 53.1757C81.5214 57.9344 81.4607 62.7044 81.9379 67.4467C82.163 69.6827 82.5775 71.8859 83.0571 74.0798C83.3025 75.2025 83.56 76.3224 83.8046 77.4452C84.043 78.5395 84.2987 79.639 84.4878 80.7434C84.6737 81.8289 84.8401 82.9227 84.9148 84.0222L84.924 84.1656C84.9562 84.6981 85.1097 85.4814 84.8166 85.9535C84.4989 86.4649 83.8908 86.4741 83.5505 85.9859C83.2309 85.5276 83.3103 84.7123 83.2539 84.1656C83.1965 83.6085 83.1358 83.0511 83.0669 82.4953C82.9325 81.4112 82.7553 80.3296 82.5711 79.2529C82.1873 77.0106 81.6307 74.7966 81.2198 72.5579C80.7988 70.264 80.4995 67.9537 80.4868 65.6181C80.4743 63.2627 80.7235 60.9119 80.8493 58.5616C80.9771 56.1746 81.1224 53.7894 81.278 51.4041ZM58.8069 36.6028C58.9346 36.1726 59.3854 35.9037 59.8251 36.0245C60.228 36.1353 60.5607 36.6246 60.4032 37.0432C60.2313 37.5 59.9308 37.8895 59.6775 38.3046C59.4435 38.6882 59.1023 38.9903 58.8639 39.3671L59.1266 39.6504C59.258 39.7917 59.3897 39.9321 59.523 40.0701L59.9811 40.5448C60.3378 40.9137 60.6969 41.2807 61.066 41.6368C62.1514 42.6842 63.2541 43.6972 64.4697 44.5941C64.7464 44.7982 65.0253 45.0012 65.312 45.1913L65.4189 45.2621C65.6156 45.3909 65.835 45.5176 66.0726 45.4958C66.65 45.4427 67.1716 44.8293 67.5684 44.4475L67.5892 44.4277C68.5724 43.4918 69.4828 42.4686 70.2788 41.3684C70.4555 41.1239 70.6266 40.8753 70.7933 40.6238C70.4084 40.1741 70.5003 39.2962 70.4791 38.7509C70.4642 38.3674 70.463 37.9838 70.4609 37.6001L70.4599 37.5227C70.4552 37.2743 70.444 37.0361 70.6052 36.8317C70.6145 36.8199 70.634 36.8202 70.6459 36.8264C70.8666 36.9421 70.9346 37.1358 71.0288 37.3531L71.0386 37.3757C71.1532 37.6365 71.263 37.8997 71.374 38.162C71.4903 38.4366 71.5969 38.7152 71.7049 38.9932C71.7552 39.1224 71.8032 39.2522 71.8501 39.3827C71.8787 39.4661 71.9083 39.549 71.9387 39.6318L71.9458 39.6381C71.986 39.6722 72.02 39.7082 72.0493 39.7453C72.1724 39.8069 72.2703 39.9192 72.3162 40.0842C72.4161 40.4433 72.2093 40.7361 72.0249 41.0211C71.2755 42.1792 70.4213 43.2828 69.4719 44.2839C69.0002 44.7813 68.5041 45.2563 67.9876 45.7068L67.8973 45.785C67.4333 46.1839 66.9296 46.5618 66.3099 46.6551C65.5848 46.7642 64.9946 46.4035 64.4395 45.9879L64.3841 45.9462C63.8579 45.5476 63.3422 45.1351 62.8426 44.7036C61.824 43.8239 60.855 42.8793 59.995 41.8429C59.1584 40.8349 58.3315 39.7077 57.8159 38.4948C57.7844 38.4209 57.8671 38.3436 57.9319 38.4053C58.1837 38.6452 58.4261 38.8981 58.6656 39.1542C58.6722 38.7772 58.6027 38.3969 58.6414 38.0175C58.6886 37.5564 58.6749 37.0469 58.8069 36.6028Z" fill="#1D1E20"/>
<path fill-rule="evenodd" clip-rule="evenodd" d="M77.1375 27.1268C76.6882 23.8845 75.6608 20.7364 75.5133 17.4454C75.4255 16.0371 75.3378 14.6287 75.2501 13.2203C75.2168 12.3407 74.0746 12.0439 73.6383 12.8232C72.6466 11.723 70.8709 11.885 69.5162 11.9184C61.541 12.2012 53.9622 17.5954 51.2245 25.1165C51.1587 25.2959 51.1786 25.4867 51.2531 25.6575C49.977 29.9144 54.4898 32.6555 57.5676 34.5535C58.8161 35.8734 60.2837 36.97 61.9409 37.7211C63.8473 38.6182 65.9693 39.1185 68.0755 39.1663C68.5378 39.1769 68.8156 38.803 68.8489 38.4159C69.5209 38.2595 70.6707 38.4401 71.0261 37.7512C75.0784 35.9905 77.7187 31.5278 77.1375 27.1268Z" fill="#FCFCFD"/>
<path fill-rule="evenodd" clip-rule="evenodd" d="M75.2424 15.6272C75.2309 15.522 75.3826 15.5188 75.4139 15.604C75.6707 16.3039 75.937 16.9991 76.1404 17.7167C76.3366 18.4084 76.4778 19.1157 76.6209 19.82C76.8581 20.9889 77.0622 22.1663 77.2309 23.3476C77.5916 23.0658 78.0634 23.0401 78.5076 23.2594C78.716 23.3623 78.7958 23.6342 78.7458 23.8452C78.7057 24.0145 78.6567 24.1829 78.5978 24.3479C78.7236 24.4593 78.8306 24.5968 78.9082 24.7546C79.1128 25.1702 79.0469 25.6065 78.8634 26.0031C78.8774 26.0267 78.8912 26.0505 78.9042 26.0757C79.1698 26.5916 79.0277 27.0537 78.8337 27.557C78.6884 27.9337 78.7695 28.3578 78.4561 28.6422C78.3471 28.9923 78.1836 29.318 77.9457 29.6122C77.8916 29.7111 77.8107 29.7907 77.7146 29.8492C77.6905 30.4018 77.6322 30.9526 77.5225 31.4985C77.0966 33.6183 75.745 35.507 74.0717 36.8392C72.4344 38.1427 70.5115 38.9217 68.4366 39.1734C67.4291 39.2958 66.4201 39.2572 65.4208 39.0826L65.2963 39.0604C64.3743 38.8931 63.2585 38.6161 62.6209 37.9203C62.2856 37.5544 62.4816 36.749 63.0744 36.825C63.3885 36.8652 63.6618 36.9156 63.9575 37.0316C64.1881 37.122 64.4192 37.2092 64.6559 37.283C65.1094 37.4242 65.5784 37.5344 66.0492 37.5953C67.0302 37.7221 68.0496 37.6885 69.0193 37.4972C70.7825 37.1492 72.4956 36.3465 73.8337 35.1379C75.3892 33.733 76.3009 31.9148 76.4351 29.8178C76.5846 27.4822 76.315 25.0906 76.0912 22.7672C75.9748 21.5585 75.827 20.3523 75.6491 19.1512C75.4752 17.9776 75.371 16.8057 75.2424 15.6272ZM61.4768 8.08554L61.5522 8.07396C64.5466 7.61809 67.6972 7.65041 70.5118 8.88664C71.0512 9.12378 71.5792 9.40972 72.0764 9.74153C72.4325 9.70433 72.7906 9.67416 73.1424 9.66922C73.585 9.66341 74.017 9.89346 74.0714 10.3414C74.4862 10.393 74.8681 10.5456 75.1124 10.851C75.2076 10.9699 75.2714 11.1075 75.3037 11.2508C75.5586 11.3111 75.8086 11.4034 76.0458 11.5253C76.3337 11.6736 76.4999 12.0864 76.3982 12.3918C76.3747 12.4611 76.348 12.5286 76.3181 12.5947L76.2951 12.644L76.3087 12.6626C76.5386 13.0324 76.3789 13.5176 76.0264 13.7383C75.7621 13.9038 75.4669 14.0357 75.1632 14.0995C75.1883 14.2213 75.2112 14.3439 75.2298 14.4678C75.237 14.5181 75.1726 14.5539 75.1438 14.5044C75.2164 14.7304 75.3074 14.9678 75.4169 15.2168C75.4813 15.3636 75.2749 15.4941 75.1962 15.3457C74.987 14.9501 74.8573 14.5445 74.6675 14.1367C74.492 14.1253 74.3172 14.0851 74.1488 14.0085C74.0385 13.9583 73.9547 13.8737 73.8946 13.7727C73.8909 13.777 73.8888 13.782 73.8852 13.787C73.32 14.5144 72.2153 14.7695 71.3614 14.9996C70.4445 15.2469 69.506 15.3995 68.5641 15.512C66.9192 15.7076 65.2615 15.7442 63.6089 15.8202C63.4995 15.8252 63.3902 15.8307 63.2809 15.836C62.6097 16.4251 61.7451 16.7911 60.8582 16.9024C60.4088 16.9588 59.8773 16.9444 59.3734 16.8296C59.191 17.016 58.9606 17.154 58.709 17.2249C58.6637 18.1636 58.1405 19.0524 57.3494 19.5705L57.3635 19.6263C57.56 20.4279 57.5575 21.3041 56.8529 21.8612C56.7574 21.9366 56.6531 22.0013 56.5435 22.0549L56.5676 22.1102C56.9316 22.9612 57.0478 23.9012 56.3636 24.6073C56.0862 24.8935 55.5992 24.8257 55.3912 24.4972L55.381 24.4806C55.3695 24.461 55.357 24.4422 55.345 24.423C55.3265 24.461 55.2981 24.493 55.256 24.511C54.996 24.6228 54.8921 24.5403 54.655 24.425C54.4358 24.3175 54.2044 24.2372 53.968 24.1749C53.7753 24.1247 53.5833 24.0889 53.3899 24.0681C52.1677 24.5353 51.3783 25.9686 51.566 27.3138C51.6677 28.0462 52.0697 28.7714 52.7702 29.0753C53.0768 29.2086 53.4371 29.2645 53.7688 29.2194C54.218 29.1584 54.5633 28.8754 55.0282 29.0373C55.2116 29.1011 55.3263 29.2452 55.3362 29.4423C55.3528 29.7518 55.2431 29.984 55.0583 30.156C55.3842 30.4283 55.6471 30.8067 55.9301 31.1085C56.2841 31.4861 56.6429 31.8638 57.0254 32.2121C57.3865 32.5425 57.7705 32.8492 58.1774 33.1216L58.2201 33.1497C58.7299 33.4818 59.3722 33.7767 59.3966 34.471C59.4045 34.6803 59.2777 34.8723 59.1058 34.9791C58.4633 35.3775 57.764 34.8544 57.2604 34.471C57.0577 34.3169 56.8607 34.1571 56.6708 33.9915C56.544 34.0016 56.4058 33.9808 56.2618 33.917C56.1694 33.8769 56.0791 33.8296 55.9903 33.7794C55.7016 33.8518 55.4294 33.788 55.2051 33.6368C54.8821 33.7163 54.5396 33.7256 54.2488 33.6619C53.9831 33.6031 53.7459 33.4777 53.5503 33.3093C53.142 33.4397 52.6885 33.4153 52.2859 33.1681C52.0445 33.0198 51.8561 32.8083 51.7537 32.5611C51.7015 32.4794 51.6681 32.3841 51.6656 32.2792L51.6656 32.2393C51.3145 32.2472 50.9628 32.1268 50.6913 31.8488C50.442 31.5936 50.3203 31.2755 50.3066 30.9522C49.9534 30.852 49.6303 30.6461 49.3846 30.3287C48.9777 29.8027 48.9234 29.1527 49.1325 28.5722C49.1189 28.5414 49.1067 28.5099 49.0959 28.4783C48.7714 28.0204 48.5572 27.4679 48.5744 26.9139C48.5766 26.8279 48.588 26.7434 48.6052 26.6595C48.2857 26.4896 48.0508 26.1915 48.0257 25.8124C48.0063 25.515 48.1131 25.224 48.3058 25.004C48.2119 24.7797 48.1704 24.536 48.199 24.2924C48.2284 24.0423 48.3165 23.8251 48.4455 23.6439C48.4426 23.578 48.4462 23.5112 48.4569 23.4432C48.444 23.3765 48.4333 23.3077 48.4276 23.2375C48.3667 22.4692 48.8968 21.797 49.5422 21.4423C49.712 21.3491 49.8954 21.2731 50.0788 21.2086C50.212 21.1613 50.4126 21.1456 50.5301 21.0589C50.5251 21.0553 50.5738 20.9923 50.5824 20.9585C50.5917 20.917 50.6017 20.8761 50.6068 20.8338C50.6261 20.6561 50.6118 20.4734 50.6082 20.2949C50.5924 19.4851 50.6175 18.6717 50.7028 17.8662C50.8611 16.3727 51.2516 14.9114 52.0123 13.6064C52.6506 12.5128 53.5245 11.5891 54.5267 10.823C56.5229 9.29772 59.014 8.46841 61.4768 8.08554ZM52.2257 26.6588C51.9658 26.034 53.1892 26.0278 53.5126 26.0575L53.5221 26.0585C54.2502 26.1309 55.3884 26.4812 55.6863 27.2161C55.8096 27.5203 55.4446 27.8501 55.1525 27.75C54.8666 27.6521 54.7063 27.4419 54.4769 27.2579C54.4167 27.2096 54.3539 27.1645 54.29 27.121C54.3237 27.2282 54.3775 27.3273 54.4523 27.4012L54.4699 27.4179C54.8222 27.7345 54.1922 28.2321 53.9583 27.8127C53.8338 27.5896 53.784 27.3448 53.8228 27.0915C53.8343 27.0168 53.8544 26.9484 53.8836 26.8832C53.8603 26.8716 53.8375 26.859 53.814 26.8478L53.7721 26.8283C53.4916 26.701 52.2951 26.2013 52.3048 26.6481C52.3059 26.6976 52.2418 26.6976 52.2257 26.6588Z" fill="#1D1E20"/>
<path fill-rule="evenodd" clip-rule="evenodd" d="M69.0636 33.5277C68.5821 33.3312 68.1524 33.0033 67.8383 32.5845C67.729 32.439 67.7007 32.2852 67.7236 32.1446C67.7494 31.9865 67.8429 31.8432 67.9704 31.7471C68.0983 31.6507 68.2583 31.6031 68.413 31.6274C68.5474 31.6484 68.6812 31.7221 68.7871 31.8748L68.8092 31.9053C68.996 32.158 69.2394 32.3654 69.5167 32.4991C69.7839 32.6279 70.0828 32.6881 70.3922 32.6531C70.9813 32.5865 71.3873 32.2678 71.8189 31.835C71.8724 31.7803 71.926 31.724 71.9798 31.6667C72.0137 31.6148 72.0609 31.5814 72.1132 31.5639C72.1713 31.5445 72.2371 31.5456 72.2973 31.5666C72.3554 31.5869 72.4073 31.6253 72.4421 31.6764C72.4752 31.725 72.4939 31.7851 72.4879 31.8541C72.4483 32.3027 72.2139 32.703 71.8809 33.0174C71.5111 33.3665 71.0209 33.608 70.5594 33.6927C70.0509 33.786 69.5328 33.7191 69.0636 33.5277ZM70.7992 26.6078C71.3402 26.9367 72.1644 27.7037 71.5825 28.5192C70.8975 29.2383 69.9112 28.4138 69.4252 28.041C68.9746 27.752 68.4682 28.4952 68.8864 28.8326C72.3983 31.4337 73.8235 26.6938 71.0728 26.221C70.77 26.1689 70.6575 26.506 70.7992 26.6078ZM64.5059 23.582C64.5656 22.8398 65.6955 22.6713 65.8079 23.4057C65.9086 24.0636 65.7901 24.6679 65.4939 25.2603C65.2108 25.8261 64.4994 25.5621 64.4456 25.0468C64.3735 24.3561 64.4687 24.0437 64.5059 23.582ZM73.1068 23.2534C73.2644 23.047 73.4918 22.9061 73.7643 22.9858C74.6157 23.2346 74.3648 24.4439 74.0658 25.0324C73.9033 25.3521 73.3781 25.4331 73.1408 25.1517C72.754 24.6927 72.5687 23.7762 73.0605 23.3242C73.0738 23.3008 73.0887 23.2772 73.1068 23.2534ZM65.4819 20.3344L65.6164 20.3109C66.0324 20.2389 66.5497 20.1697 66.8441 20.5044C67.0001 20.6818 67.0539 21.0116 66.8441 21.1814C66.475 21.4803 66.0669 21.3645 65.6246 21.3898C65.2602 21.4107 64.9099 21.471 64.5588 21.5714C63.7885 21.7917 63.1609 22.1937 62.5031 22.6352C62.4167 22.6931 62.3286 22.5826 62.3698 22.5019C62.7496 21.7578 63.4855 21.1465 64.2226 20.774C64.6161 20.5751 65.0466 20.4101 65.4819 20.3344ZM72.3307 20.0011L72.4337 20.0222C73.5539 20.2564 75.0093 20.7244 75.5397 21.8251C75.56 21.9807 75.5386 22.0141 75.5212 22.0359L75.5154 22.0431C75.5011 22.0618 75.4897 22.0874 75.4223 22.1086C75.4036 22.1041 75.3847 22.0994 75.3656 22.0944C75.1224 22.0307 74.93 21.9428 74.7438 21.8517L74.5418 21.7522C74.3075 21.6373 74.0712 21.5265 73.8207 21.4448C73.2861 21.2703 72.7363 21.1475 72.1779 21.0819C72.0569 21.0676 71.9404 21.0268 71.8484 20.9568C71.7612 20.8903 71.6945 20.7983 71.6641 20.6759C71.6247 20.5176 71.636 20.3978 71.7209 20.2549C71.7848 20.1477 71.8761 20.0733 71.981 20.0306C72.088 19.9871 72.2097 19.9769 72.3307 20.0011Z" fill="#1D1E20"/>
<path fill-rule="evenodd" clip-rule="evenodd" d="M70.9714 37.0466C68.8514 37.3583 67.317 37.2939 66.368 36.8534C64.9489 36.1948 63.5684 35.5576 62.2811 34.6852C60.9623 33.7915 59.8433 32.7302 59.0446 31.3716C58.3017 30.1075 57.6842 28.7662 57.0624 27.4352C57.026 27.3575 56.6691 26.5842 56.543 26.3249C56.3489 25.9229 55.7813 26.0491 55.7813 26.6732C55.7813 27.2973 55.7536 32.0237 56.8439 33.883C57.8275 35.5622 59.4945 36.7355 61.1507 37.7596C62.9832 38.8919 65.4174 40.116 67.6038 40.4394C69.5824 40.7318 71.8404 39.9105 73.2731 38.5568C74.771 37.141 75.1951 35.2176 75.9681 33.3756C76.1407 32.9639 75.5287 32.7156 75.3491 33.1205C75.1238 33.6288 73.6645 34.9375 70.9714 37.0466Z" fill="#1D1E20"/>
<path fill-rule="evenodd" clip-rule="evenodd" d="M76.8204 25.538C76.6178 26.0896 76.3094 26.6637 75.9324 27.1279C74.407 28.4202 72.9247 27.7047 72.1721 25.9533C71.8862 24.7155 72.6454 23.3823 73.45 22.4718C74.6119 21.3067 76.5082 21.9182 77.0425 23.3032C77.075 23.4826 77.0946 23.6616 77.104 23.8401C77.0929 24.4199 77.023 24.9155 76.8204 25.4664M62.1577 24.4257C64.1673 22.0345 67.9268 21.9066 67.8309 25.587C67.3992 30.2455 60.1301 29.1021 62.1577 24.4257ZM77.4524 22.4309C77.382 22.3116 77.3038 22.1962 77.2185 22.0857C77.187 22.0669 77.1689 21.9004 77.053 21.8881C75.5037 20.1782 72.782 21.1483 71.7985 22.8521C71.6189 23.0675 71.4724 23.3197 71.3644 23.5862C70.3955 23.4084 69.2658 23.4429 68.3646 23.809C67.471 21.4748 64.7657 21.2664 62.9828 22.2637C61.874 22.8093 61.1549 23.9519 60.0765 24.5795C57.5414 24.762 54.8205 24.1938 52.3311 24.83C50.3678 25.2383 52.009 26.2328 52.3383 25.5691C54.6853 24.8754 57.4659 25.4616 59.9028 25.3053C60.1562 25.7341 60.6421 26.085 61.1264 26.07C61.6494 30.7082 68.4108 29.9391 68.644 25.816C68.9086 25.3976 69.2376 24.9971 69.7085 24.7364C69.8888 24.6991 70.063 24.6505 70.2222 24.5754C70.4942 24.537 70.9135 24.6524 71.1638 24.879C72.0212 30.0257 76.9609 29.4263 77.8437 24.9176C77.8612 24.8996 77.9103 24.8324 77.948 24.7246C78.2502 24.3249 78.9899 24.1763 78.8717 23.5016C78.7664 22.8267 77.9145 22.8348 77.4524 22.4309Z" fill="#1D1E20"/>
</g>
<rect x="39.125" y="1" width="50" height="50" rx="25" stroke="#FCFCFD" stroke-width="2"/>
<g clip-path="url(#clip2_700_27517)">
<rect x="76.2578" width="52" height="52" rx="26" fill="#5564EB"/>
<path fill-rule="evenodd" clip-rule="evenodd" d="M79.5574 79.7951C87.5947 81.0164 95.7779 81.0778 103.882 80.6343C107.089 80.3941 110.306 80.3509 113.511 80.658C115.405 80.7989 123.708 81.4338 124.386 79.737C123.959 70.7019 123.094 61.5899 120.442 52.9004C119.351 49.815 118.414 47.2541 116.285 44.7009C115.613 44.0038 114.166 42.5417 113.337 42.0649C112.619 41.6518 112.318 41.7992 111.906 41.1015C111.496 40.3308 111.193 39.0437 110.611 38.4998C110.019 37.9461 109.141 38.1442 108.052 38.3226C108.252 35.6189 107.004 34.9303 105.286 34.4161C102.265 33.2627 99.2813 33.8422 98.5209 37.5211C97.1111 37.5211 96.3192 38.1281 95.4631 38.7112C95.1131 38.9496 95.3565 39.557 94.9385 39.7444C94.1651 40.0198 92.7984 39.9524 92.0537 40.2914C88.6674 41.8331 85.6513 44.0687 83.6706 47.3338C79.23 54.3047 76.1797 68.989 76.7075 77.2512C76.4763 77.614 76.7961 78.1342 76.8773 78.5243C76.9799 78.8637 77.3122 79.0894 77.659 79.0509C78.1429 79.5715 78.8914 79.6874 79.5574 79.7951Z" fill="#FCFCFD"/>
<path fill-rule="evenodd" clip-rule="evenodd" d="M112.819 41.8609C112.77 41.8334 112.813 41.7628 112.863 41.7861C115.247 42.9048 117.075 44.8674 118.362 47.135C119.694 49.483 120.454 52.1489 121.108 54.7545L121.132 54.8487C121.83 57.636 122.423 60.4522 122.958 63.2752C123.499 66.1341 123.933 69.0106 124.283 71.899C124.456 73.3272 124.61 74.7578 124.73 76.1914C124.79 76.9078 124.845 77.6247 124.894 78.3419C124.913 78.6288 124.932 78.9156 124.948 79.2027L124.959 79.4181C124.969 79.6135 124.992 79.8093 124.944 80.002C124.902 80.1681 124.814 80.3185 124.737 80.471C124.584 80.7725 124.165 80.7228 124 80.471L123.952 80.3977C123.843 80.2287 123.752 80.0717 123.717 79.8614C123.684 79.6577 123.683 79.4443 123.668 79.2387C123.641 78.8602 123.617 78.4814 123.591 78.1028C123.535 77.306 123.472 76.5096 123.403 75.7138C123.266 74.1428 123.119 72.5732 122.938 71.0066C122.616 68.2223 122.213 65.4454 121.738 62.6832C121.274 59.985 120.687 57.3141 120.074 54.6466L120.011 54.3706C118.939 49.7133 117.286 44.3498 112.819 41.8609ZM87.4306 60.098C87.4481 60.0514 87.5235 60.0407 87.5363 60.098C87.6968 60.8212 87.7127 61.566 87.7372 62.3065C87.7614 63.0369 87.7604 63.7706 87.7498 64.5015C87.7105 67.1875 87.6368 69.8712 87.5731 72.5568C87.5412 73.9001 87.5113 75.2436 87.4884 76.5871C87.4797 77.0911 87.4724 77.5949 87.4664 78.0989L87.459 78.7635C87.4553 79.0573 87.4476 79.3476 87.4117 79.6411C87.3881 79.8342 87.3378 80.0183 87.2312 80.1838C87.1556 80.3013 87.0479 80.3609 86.9428 80.4407L86.9231 80.456C86.7892 80.5619 86.648 80.5626 86.5153 80.456L86.4768 80.4255C86.35 80.3263 86.2405 80.2488 86.1596 80.092C86.047 79.8739 86.0289 79.6371 86.0098 79.3968C85.9808 79.0324 86 78.6627 86.0038 78.2974C86.0113 77.5644 86.0214 76.8315 86.0343 76.0985C86.0815 73.4108 86.1747 70.7226 86.3447 68.0397C86.4248 66.776 86.5334 65.5081 86.679 64.2495L86.7068 64.0136C86.751 63.6433 86.7912 63.2664 86.8366 62.8883C86.1589 62.4114 85.5631 61.8327 85.0551 61.1763C85.0177 61.128 85.0792 61.0602 85.1244 61.107C85.6435 61.6447 86.2387 62.0734 86.8977 62.4104C87.0056 61.6189 87.1541 60.8316 87.4306 60.098ZM98.7536 36.1394C98.7629 36.1322 98.7774 36.1291 98.7863 36.1394C98.932 36.3094 98.9024 36.5691 98.9071 36.7844L98.9077 36.8045C98.9181 37.1193 98.9201 37.4331 98.919 37.7481L98.9158 38.7507C98.9153 38.8886 98.9042 39.0321 98.9112 39.1708L98.9149 39.2244C98.9914 39.3028 99.027 39.4161 99.001 39.5299C98.9964 39.6759 98.9201 39.7977 98.8088 39.8743L99.0473 40.2128L99.2861 40.5512C99.7782 41.2494 100.276 41.9414 100.794 42.6204C101.323 43.3127 101.887 43.979 102.477 44.6195C102.765 44.9325 103.059 45.2412 103.359 45.5429C103.481 45.6656 103.606 45.7852 103.729 45.9061L103.852 46.0277C103.925 46.1003 104.016 46.1722 104.065 46.2644C104.093 46.3187 104.1 46.4526 104.11 46.4748C104.201 46.675 104.045 46.9942 103.787 46.8943L103.799 46.8865C103.846 46.8538 103.816 46.8534 103.709 46.8852C103.641 46.8849 103.577 46.8693 103.518 46.8385L103.5 46.8288C103.417 46.7863 103.342 46.7042 103.275 46.6385L103.258 46.6225C103.103 46.4771 102.955 46.3229 102.806 46.171C102.496 45.854 102.193 45.5302 101.899 45.1977C101.314 44.5344 100.758 43.8442 100.233 43.1325C99.6969 42.4077 99.1991 41.6457 98.771 40.8524C98.6085 40.5513 98.4595 40.2444 98.3167 39.934C98.0388 39.8447 97.9743 39.549 97.9936 39.2159C97.8911 38.977 97.7987 38.7331 97.7441 38.484C97.7366 38.4498 97.7805 38.4176 97.8067 38.4475C97.8956 38.5485 97.978 38.6561 98.0571 38.7665C98.1048 38.5329 98.1652 38.3179 98.1936 38.1809L98.3169 37.576C97.6225 37.5398 96.8616 37.8252 96.3829 38.3248C96.3572 38.4549 96.2571 38.5481 96.1595 38.6697C96.048 38.8087 95.9508 38.9647 95.8783 39.1279C95.7174 39.4895 95.8082 40.0224 95.496 40.2877C95.4634 40.3154 95.4271 40.3346 95.3895 40.3465C95.5377 41.0732 95.4704 41.8739 95.4672 42.6112L95.4671 42.676C95.4678 43.5012 95.4403 44.327 95.4084 45.1514L95.376 45.9674C95.334 47.0556 95.3067 48.1444 95.4124 49.2266C95.895 48.799 96.3941 48.3909 96.9103 48.0021C97.2498 47.7464 97.596 47.4998 97.9485 47.2625L98.2349 47.071C98.5782 46.8408 98.9298 46.6038 99.3056 46.439C99.7971 46.2234 100.265 46.2975 100.739 46.5186C101.212 46.7389 101.67 46.9947 102.134 47.2334C102.605 47.4762 103.078 47.7169 103.55 47.9582C103.863 48.1181 104.321 48.2624 104.55 48.5567C104.565 48.4916 104.582 48.4267 104.602 48.362C104.579 48.2633 104.588 48.1567 104.643 48.0551C105.414 46.6382 106.127 45.1874 106.836 43.7384C107.194 43.0051 107.535 42.2631 107.894 41.5302L108.243 40.8164C108.302 40.6975 108.36 40.5787 108.419 40.4601C108.507 40.2825 108.599 40.1066 108.688 39.9294C108.726 39.8545 108.773 39.7802 108.809 39.7046L108.827 39.6667C108.828 39.6647 108.912 39.3986 108.847 39.424L108.841 39.4267C108.808 39.4456 108.781 39.4036 108.803 39.3768C108.895 39.2625 109.024 39.3638 109.077 39.4696C109.222 39.7607 108.956 40.2178 108.853 40.4965L108.848 40.5121C108.53 41.4119 108.17 42.2947 107.802 43.1745C107.095 44.8613 106.335 46.5221 105.578 48.1858L105.569 48.2145C105.73 48.0906 105.903 47.9781 106.051 47.8687C106.423 47.5926 106.807 47.33 107.19 47.0683C107.892 46.5884 108.613 46.1401 109.346 45.7095L109.493 45.6236C109.859 45.4102 110.222 45.2371 110.657 45.3012C111.061 45.3607 111.436 45.5777 111.801 45.754L111.839 45.7721L112.966 46.3083C112.845 45.8275 112.715 45.3491 112.579 44.8724C112.313 43.9426 112.021 43.0207 111.704 42.107C111.408 41.2533 111.089 40.409 110.75 39.5713L110.648 39.3199C110.51 38.975 110.373 38.5989 109.979 38.4927C109.585 38.3866 109.133 38.544 108.773 38.3193C108.74 38.2989 108.744 38.2449 108.784 38.2349L109.006 38.1789C109.423 38.0751 109.912 37.9706 110.307 38.0716C110.736 38.1816 111.091 38.5421 111.3 38.9168C111.531 39.3337 111.695 39.8002 111.87 40.2448L111.898 40.3148C112.1 40.8178 112.294 41.3239 112.48 41.8332C112.851 42.8511 113.189 43.8813 113.495 44.9208C113.642 45.4218 113.782 45.9252 113.916 46.4298C113.955 46.5749 114.019 46.7509 114.071 46.9344C114.131 46.9929 114.188 47.0581 114.241 47.1325C114.329 47.256 114.266 47.4007 114.156 47.4746C114.152 47.6009 114.124 47.7197 114.057 47.8215C113.795 48.219 113.103 48.1166 113.131 47.5822C113.135 47.5004 113.167 47.4223 113.215 47.3563L113.214 47.3456L113.209 47.3261C113.088 47.2685 112.968 47.2043 112.841 47.1414L111.657 46.5566C111.315 46.3871 110.935 46.1254 110.554 46.0608C110.199 46.0007 109.824 46.2654 109.519 46.4252L109.499 46.4354C108.761 46.8138 108.028 47.2048 107.299 47.5989C106.943 47.7913 106.591 47.9918 106.236 48.1865C105.94 48.3494 105.619 48.5831 105.286 48.675C105.144 48.7858 104.974 48.7709 104.838 48.6872C104.901 49.0721 104.897 49.4672 104.916 49.8608C104.942 50.3869 104.945 50.9146 104.954 51.4415L104.957 51.639C104.98 52.8038 104.992 53.9689 104.996 55.1339C105.012 59.2825 104.966 63.4324 104.955 67.581C104.95 69.6654 104.909 71.7516 104.855 73.8352C104.832 74.7181 104.784 75.5999 104.732 76.4815L104.703 76.9623C104.643 77.9769 104.607 79.0027 104.42 80.0036C104.395 80.1341 104.174 80.1374 104.153 80.0036C103.98 78.9311 103.97 77.835 103.937 76.75L103.93 76.5331C103.89 75.3681 103.871 74.2038 103.875 73.0381C103.89 68.8878 103.998 64.7402 104.086 60.591C104.13 58.5064 104.16 56.4208 104.229 54.3369C104.263 53.2941 104.302 52.252 104.349 51.2097C104.369 50.7443 104.389 50.2794 104.42 49.8147L104.434 49.6156C104.444 49.4857 104.451 49.3573 104.461 49.2302C104.041 49.3836 103.657 49.0996 103.28 48.9053C102.844 48.6813 102.409 48.457 101.974 48.2335L101.538 48.0103L100.666 47.5652C100.274 47.3648 99.9712 47.1653 99.5524 47.4004C98.0437 48.2471 96.6573 49.3738 95.401 50.556C95.1601 50.7827 94.651 50.7218 94.5899 50.3418C94.3293 48.7185 94.4878 47.0718 94.6209 45.4436L94.67 44.8391C94.7294 44.1171 94.7942 43.3951 94.8804 42.676C94.919 42.3544 94.9575 42.0329 95 41.7119L95.0327 41.4712C95.0859 41.0907 95.1206 40.7124 95.2339 40.3474C95.1981 40.3359 95.1638 40.3169 95.133 40.2877C94.7923 39.9644 94.9565 39.4033 95.112 39.0186C95.2655 38.639 95.4996 38.3076 95.7927 38.0224C95.8567 37.9601 95.9468 37.9201 96.0373 37.918C96.7481 37.4469 97.5278 37.2118 98.3393 37.4689C98.3621 37.3599 98.3854 37.2511 98.4098 37.1425L98.4347 37.034C98.4979 36.7646 98.5213 36.3196 98.7536 36.1394ZM106.038 78.6803C106.259 78.6196 106.5 78.6836 106.662 78.8453C106.823 79.0069 106.887 79.2484 106.826 79.4691C106.796 79.5777 106.741 79.672 106.662 79.7521C106.587 79.8258 106.501 79.8785 106.402 79.91L106.379 79.9169L106.343 79.932C106.232 79.9617 106.122 79.9617 106.011 79.932C105.905 79.9023 105.814 79.8488 105.736 79.7715C105.658 79.6936 105.605 79.6018 105.575 79.496C105.546 79.3854 105.546 79.2749 105.575 79.1643L105.59 79.1282C105.621 79.0196 105.676 78.9252 105.755 78.8453C105.835 78.7658 105.929 78.7108 106.038 78.6803ZM119.134 56.6942C119.17 56.6526 119.229 56.7059 119.206 56.7501C118.863 57.4238 118.48 58.0928 118.104 58.7494C118.134 58.9314 118.164 59.1119 118.198 59.2878C118.345 60.0378 118.524 60.7743 118.641 61.5314C119.062 64.2528 119.281 67.0038 119.468 69.7497C119.656 72.5054 119.68 75.2624 119.708 78.0235C119.711 78.2628 119.527 78.541 119.28 78.5861C119.167 78.6067 119.083 78.6027 118.97 78.5861C118.714 78.5483 118.553 78.2542 118.542 78.0235C118.468 76.4804 118.369 74.9392 118.255 73.3984C118.052 70.6668 117.927 67.9281 117.763 65.1936L117.705 64.2379C117.643 63.2024 117.586 62.1661 117.568 61.129C117.556 60.4419 117.592 59.755 117.57 59.0687C117.549 58.4351 117.485 57.7462 117.624 57.1237C117.63 57.1004 117.666 57.0945 117.677 57.1168C117.822 57.4225 117.914 57.7549 117.985 58.0941C118.359 57.6207 118.74 57.1463 119.134 56.6942ZM94.6242 39.9572C94.6768 39.9534 94.6747 40.0324 94.6242 40.0382C93.8899 40.1234 93.1806 40.4224 92.4872 40.6765L92.4278 40.6981C91.7274 40.9524 91.0444 41.248 90.3872 41.6004C89.1022 42.2895 87.9222 43.1779 86.879 44.195C82.7137 48.2553 80.8155 54.1103 79.4246 59.6125C78.6517 62.6695 78.1022 65.7782 77.746 68.9107C77.5698 70.4599 77.4453 72.015 77.3727 73.5725C77.3356 74.3707 77.3121 75.1697 77.3024 75.9687C77.2973 76.378 77.2958 76.7874 77.2963 77.1967C77.2966 77.3843 77.33 77.6204 77.2799 77.8025C77.2334 77.9712 77.1022 78.1198 77.0052 78.2604C76.8902 78.4271 76.6836 78.4183 76.567 78.2604L76.524 78.2029C76.3997 78.0379 76.278 77.8801 76.2603 77.6645C76.2412 77.4333 76.2547 77.195 76.2538 76.9628C76.2518 76.495 76.2576 76.0272 76.267 75.5595C76.285 74.663 76.3203 73.7669 76.3728 72.8718C76.4793 71.0553 76.6547 69.2425 76.9059 67.4403C77.3522 64.2369 78.0213 61.0641 78.8978 57.9509C79.7246 55.014 80.7041 52.0859 82.0996 49.3655C83.3952 46.8397 85.0949 44.49 87.3377 42.7247C88.3806 41.9038 89.516 41.2197 90.7401 40.7045C91.3574 40.4447 92.0057 40.2325 92.6651 40.1116C93.317 39.992 93.9662 40.0087 94.6242 39.9572ZM106.164 73.4893C106.281 73.4884 106.411 73.514 106.511 73.5784L106.644 73.6816C106.68 73.7281 106.716 73.7748 106.752 73.8215C106.836 73.9303 106.847 74.1064 106.829 74.2361C106.825 74.3227 106.8 74.4032 106.752 74.4778L106.651 74.6095C106.553 74.6892 106.471 74.7461 106.353 74.7844C106.291 74.8044 106.232 74.8086 106.172 74.8056L106.153 74.8043L106.164 74.8059L106.144 74.8035C106.124 74.8019 106.105 74.7998 106.085 74.7971C106.072 74.7955 106.059 74.7945 106.046 74.7926C106.033 74.7916 106.021 74.7911 106.008 74.7923C105.857 74.8064 105.706 74.7211 105.6 74.6232C105.503 74.5348 105.417 74.3476 105.431 74.2148L105.436 74.1593C105.446 74.0657 105.455 74.0289 105.494 73.9349C105.533 73.8434 105.587 73.7628 105.66 73.6946C105.8 73.564 105.972 73.4906 106.164 73.4893ZM105.699 66.6404C105.899 66.4228 106.241 66.4068 106.489 66.5384C106.549 66.5705 106.604 66.622 106.658 66.665C106.792 66.7733 106.844 66.9687 106.852 67.1333C106.859 67.2961 106.773 67.4894 106.658 67.6018L106.63 67.629C106.561 67.696 106.462 67.7544 106.365 67.7721C106.21 67.8007 106.079 67.7999 105.934 67.7387C105.81 67.6862 105.702 67.6017 105.629 67.4871L105.618 67.4677C105.613 67.4597 105.608 67.4515 105.603 67.4431L105.597 67.4305C105.458 67.1637 105.496 66.8618 105.699 66.6404ZM105.802 59.7554C105.892 59.7271 105.982 59.7231 106.072 59.7433C106.133 59.7434 106.19 59.7589 106.243 59.7895C106.3 59.8055 106.35 59.8346 106.393 59.8766C106.443 59.9067 106.484 59.9471 106.514 59.998C106.574 60.0635 106.614 60.1402 106.635 60.2283L106.659 60.4084L106.635 60.5884L106.567 60.7502C106.548 60.7747 106.529 60.7992 106.51 60.8236C106.48 60.8746 106.439 60.9153 106.388 60.9455C106.355 60.9785 106.317 61.0031 106.275 61.0202C106.124 61.1283 105.923 61.1636 105.745 61.1143C105.639 61.0847 105.546 61.031 105.468 60.9533C105.391 60.8752 105.337 60.7831 105.307 60.677L105.295 60.5923C105.279 60.4787 105.277 60.4158 105.309 60.2714C105.323 60.2079 105.364 60.1183 105.385 60.0806C105.477 59.9196 105.627 59.8092 105.802 59.7554ZM113.617 54.8021C113.876 54.8003 114.134 54.8008 114.393 54.8037L114.587 54.8062C114.911 54.8114 115.189 54.7779 115.444 55.0031C115.629 55.1666 115.548 55.4408 115.372 55.564C115.106 55.7505 114.772 55.6567 114.465 55.6361C114.143 55.6145 113.82 55.5965 113.496 55.582C112.87 55.554 112.244 55.5361 111.618 55.5333C110.993 55.5307 110.367 55.5366 109.742 55.5467C109.106 55.557 108.443 55.6163 107.811 55.5504C107.724 55.5414 107.705 55.4271 107.79 55.3974C108.386 55.1912 109.057 55.1243 109.681 55.0455C110.325 54.964 110.97 54.9064 111.618 54.8691C112.284 54.8309 112.951 54.8068 113.617 54.8021ZM105.801 52.7764L105.822 52.7769C105.936 52.7771 106.043 52.8039 106.142 52.8572L106.163 52.869L106.3 52.9745C106.383 53.0588 106.441 53.1581 106.473 53.2724L106.497 53.4519C106.501 53.5448 106.481 53.6315 106.439 53.712C106.412 53.7957 106.365 53.868 106.3 53.9292C106.239 53.995 106.166 54.0415 106.083 54.0688C106.008 54.1078 105.929 54.1273 105.844 54.1274L105.822 54.127C105.701 54.1265 105.587 54.0958 105.482 54.0348L105.345 53.9292C105.262 53.845 105.204 53.7457 105.172 53.6313L105.148 53.4519C105.144 53.359 105.164 53.2722 105.206 53.1918C105.233 53.1081 105.28 53.0357 105.345 52.9745C105.406 52.9087 105.479 52.8622 105.563 52.835C105.637 52.7959 105.716 52.7764 105.801 52.7764ZM107.802 36.9182C107.947 36.7075 108.211 36.8949 108.173 37.0642C108.183 37.5399 108.207 38.0016 108.315 38.4675C108.365 38.6808 108.43 38.8944 108.53 39.0898L108.572 39.1721C108.702 39.4281 108.802 39.6696 108.628 39.9506C108.545 40.083 108.397 40.1825 108.236 40.1755C107.521 40.1447 107.423 39.1497 107.379 38.5942C107.335 38.0222 107.474 37.3935 107.802 36.9182Z" fill="#1D1E20"/>
<path fill-rule="evenodd" clip-rule="evenodd" d="M115.192 24.1994C114.959 20.3712 113.717 16.031 110.063 14.1514C102.006 10.9168 91.413 19.0626 90.8522 27.3842C90.6566 30.2327 92.2376 33.3453 95.1267 34.1373C95.769 34.9886 96.7404 35.5086 97.6992 35.9598C109.119 41.887 116.496 37.0688 115.192 24.1994Z" fill="#FCFCFD"/>
<path fill-rule="evenodd" clip-rule="evenodd" d="M117.792 21.8183C117.389 20.6969 116.962 19.5842 116.514 18.4801C116.077 17.4055 115.683 16.3077 115.14 15.2841C111.9 9.17023 106.009 9.17023 102.964 9.96908C101.385 9.2884 98.4268 9.4804 96.7824 10.0946C94.1203 11.089 90.8751 15.0007 89.7656 16.7581C87.3159 20.6385 85.7871 25.8031 87.4143 30.287C87.627 30.8731 87.8982 31.4158 88.2036 31.9389C88.0113 32.1997 87.7898 32.4468 87.5446 32.6895C86.8157 33.4109 86.0868 34.1086 85.4571 34.9223C84.8314 35.7309 84.3126 36.5908 83.9265 37.5389C83.1983 39.3269 83.1632 41.3515 84.1259 43.0576C84.9635 44.542 86.4472 45.6474 88.1187 45.7529C88.2046 45.7648 88.2905 45.7758 88.3768 45.7844C88.5983 46.1494 88.8684 46.4854 89.1766 46.7784C90.1209 47.6769 92.372 48.1379 93.6559 48.1675C93.7217 48.2204 93.7882 48.2733 93.8546 48.3256C94.6402 48.9441 95.4646 49.5682 96.3665 50.0083C96.9774 50.3067 97.7784 50.556 98.4158 50.3406C98.7049 50.5339 99.1792 50.4932 99.4659 50.3351C99.9372 50.0753 100.32 49.6076 100.554 49.1288C101.119 47.9662 100.983 46.6941 100.838 45.4521C100.678 44.0803 100.524 42.7078 100.368 41.336C100.245 40.2633 100.117 39.1727 99.7914 38.1393C99.6228 37.6039 99.4019 37.0894 99.1165 36.6057C99.1239 36.565 99.1226 36.5244 99.1109 36.4863C99.0174 36.1822 98.8243 36.0228 98.5954 35.816C98.5659 35.7896 98.5363 35.7625 98.5074 35.7348C98.393 35.6043 98.2706 35.4831 98.1395 35.3803C98.0891 35.3292 98.0392 35.2775 97.9894 35.2258C97.5754 34.7919 97.1841 34.3359 96.8365 33.8472C96.4994 33.3733 96.1949 32.8785 95.9051 32.3744C95.6104 31.8618 95.4154 31.2962 95.1213 30.7872C95.0961 30.7435 95.0321 30.7349 94.9964 30.7712C94.9054 30.8654 94.8469 30.97 94.858 31.0802L94.8125 31.0869C94.7953 30.9208 94.6421 30.7854 94.4341 30.8217C94.1228 30.8758 93.8669 30.8961 93.5975 30.7927C93.6448 30.4783 93.6885 30.1631 93.7316 29.8474C93.8103 29.2664 93.8835 28.6836 93.9463 28.1008C94.0982 28.1371 94.249 28.1894 94.3966 28.2559C94.607 28.35 94.8057 28.4768 94.9755 28.6325C95.1429 28.7864 95.2585 28.9938 95.4628 29.1009C95.6978 29.2234 95.9814 29.0209 95.9125 28.755C95.7728 28.2177 94.9823 27.91 94.4932 27.8084C94.3252 27.7734 94.1536 27.7586 93.982 27.7623C94.0207 27.3881 94.0552 27.0139 94.0835 26.6391C94.097 26.4618 94.1093 26.2846 94.121 26.1067C94.5012 25.9916 94.9085 25.9572 95.304 26.0113C95.4345 26.1153 95.5649 26.2181 95.691 26.3221C96.0915 26.6533 96.4902 26.9862 96.8839 27.3253C96.9196 27.3555 96.9546 27.3856 96.9903 27.4164C97.2241 27.6177 97.5157 27.4183 97.4763 27.1333C97.1552 24.7983 98.5849 22.9409 100.259 21.502C102.112 19.9086 105.481 19.723 107.684 16.963C108.699 17.1697 110.965 17.7834 111.9 19.274C113.21 21.3629 113.039 23.2344 113.138 25.6039C113.238 27.9752 113.491 30.4487 112.953 32.7868C112.457 34.9427 111.112 36.7847 109.027 37.6316C108.975 37.6525 108.923 37.6728 108.871 37.6925C107.792 38.0993 106.615 38.2144 105.481 38.0003C104.225 37.7627 103.177 37.1879 102.132 36.4807C102.072 36.4407 101.984 36.5232 102.029 36.5835C103.406 38.4089 106.111 39.0188 108.256 38.5369C108.356 38.5142 108.456 38.4895 108.555 38.4625C108.075 39.8429 108.172 41.3581 108.797 42.7023C109.173 43.511 109.746 44.2107 110.444 44.7628C111.214 45.3709 112.169 45.862 112.703 46.7156C113.192 47.4978 113.047 48.3767 112.209 48.8284C111.998 48.9429 111.917 49.3128 112.126 49.4753C112.206 49.5368 112.286 49.5996 112.368 49.6611C112.837 50.015 114.124 50.6797 114.333 50.7043C116.185 50.924 117.43 49.5639 118.228 47.9594C119.165 46.0762 118.921 43.7812 117.889 41.9877C117.061 40.5488 115.43 39.1308 116.078 37.3097C116.31 36.6592 116.783 36.1047 117.242 35.6037C117.766 35.0332 118.33 34.499 118.833 33.9081C119.332 33.3216 119.775 32.6834 120.022 31.9473C120.384 30.8715 120.204 29.7083 119.933 28.6344C119.351 26.3289 118.596 24.0542 117.792 21.8183Z" fill="#1D1E20"/>
<path fill-rule="evenodd" clip-rule="evenodd" d="M107.422 33.854C107.008 33.6852 106.639 33.4037 106.369 33.044C106.275 32.919 106.251 32.787 106.271 32.6662C106.293 32.5305 106.373 32.4074 106.483 32.3249C106.593 32.2421 106.73 32.2012 106.863 32.222C106.978 32.2401 107.093 32.3033 107.184 32.4345L107.203 32.4607C107.363 32.6778 107.572 32.8559 107.811 32.9707C108.04 33.0813 108.297 33.1329 108.562 33.1029C109.068 33.0457 109.417 32.772 109.788 32.4003C109.834 32.3534 109.88 32.305 109.926 32.2558C109.955 32.2112 109.996 32.1826 110.041 32.1675C110.09 32.1508 110.147 32.1518 110.199 32.1698C110.248 32.1872 110.293 32.2202 110.323 32.2642C110.351 32.3059 110.367 32.3575 110.362 32.4168C110.328 32.802 110.127 33.1458 109.841 33.4157C109.523 33.7155 109.102 33.9229 108.706 33.9957C108.269 34.0758 107.824 34.0184 107.422 33.854ZM108.912 27.9113C109.377 28.1938 110.084 28.8525 109.585 29.5528C108.996 30.1703 108.149 29.4623 107.732 29.1421C107.345 28.8939 106.91 29.5322 107.269 29.822C110.285 32.0557 111.509 27.9851 109.147 27.5791C108.887 27.5344 108.79 27.8239 108.912 27.9113ZM103.507 25.3128C103.559 24.6754 104.529 24.5307 104.626 25.1614C104.712 25.7264 104.61 26.2454 104.356 26.754C104.113 27.24 103.502 27.0133 103.456 26.5708C103.394 25.9776 103.475 25.7093 103.507 25.3128ZM110.894 25.0306C111.029 24.8534 111.224 24.7324 111.458 24.8007C112.19 25.0145 111.974 26.0529 111.717 26.5584C111.578 26.8329 111.127 26.9025 110.923 26.6608C110.591 26.2667 110.432 25.4796 110.854 25.0914C110.865 25.0713 110.878 25.0511 110.894 25.0306ZM104.346 22.5238L104.461 22.5036C104.818 22.4418 105.263 22.3824 105.515 22.6698C105.649 22.8221 105.696 23.1054 105.515 23.2512C105.198 23.5079 104.848 23.4084 104.468 23.4301C104.155 23.4481 103.854 23.4999 103.553 23.5862C102.891 23.7753 102.352 24.1206 101.787 24.4997C101.713 24.5494 101.638 24.4546 101.673 24.3852C101.999 23.7462 102.631 23.2213 103.264 22.9013C103.602 22.7305 103.972 22.5888 104.346 22.5238ZM110.227 22.2376L110.316 22.2557C111.278 22.4569 112.528 22.8587 112.983 23.804C113.001 23.9377 112.982 23.9663 112.967 23.985L112.962 23.9913C112.95 24.0072 112.94 24.0293 112.882 24.0475C112.866 24.0436 112.85 24.0396 112.834 24.0353C112.625 23.9805 112.46 23.9051 112.3 23.8268L112.126 23.7414C111.925 23.6427 111.722 23.5476 111.507 23.4774C111.048 23.3276 110.576 23.2221 110.096 23.1657C109.992 23.1535 109.892 23.1184 109.813 23.0583C109.738 23.0012 109.681 22.9222 109.655 22.8171C109.621 22.6811 109.631 22.5782 109.704 22.4556C109.758 22.3635 109.837 22.2996 109.927 22.2629C110.019 22.2256 110.123 22.2168 110.227 22.2376Z" fill="#1D1E20"/>
</g>
<rect x="77.2578" y="1" width="50" height="50" rx="25" stroke="#FCFCFD" stroke-width="2"/>
<defs>
<clipPath id="clip0_700_27517">
<rect width="52" height="52" rx="26" fill="white"/>
</clipPath>
<clipPath id="clip1_700_27517">
<rect x="38.125" width="52" height="52" rx="26" fill="white"/>
</clipPath>
<clipPath id="clip2_700_27517">
<rect x="76.2578" width="52" height="52" rx="26" fill="white"/>
</clipPath>
</defs>
</svg>
