<svg width="28" height="28" viewBox="0 0 28 28" fill="none" xmlns="http://www.w3.org/2000/svg">
<rect width="28" height="28" rx="6" fill="#ECECEF"/>
<path d="M14.0059 5.6665V11.4998M14.0059 11.4998L15.6725 9.83317M14.0059 11.4998L12.3398 9.83321M5.65625 14.8332H9.33125C9.64792 14.8332 9.93125 15.0082 10.0729 15.2915L11.0479 17.2415C11.3312 17.8082 11.9062 18.1665 12.5396 18.1665H15.4813C16.1146 18.1665 16.6896 17.8082 16.9729 17.2415L17.9479 15.2915C18.0896 15.0082 18.3813 14.8332 18.6896 14.8332H22.3229M9.83854 7.44149C6.88854 7.87482 5.67188 9.60815 5.67188 13.1665V16.4998C5.67188 20.6665 7.33854 22.3332 11.5052 22.3332H16.5052C20.6719 22.3332 22.3385 20.6665 22.3385 16.4998V13.1665C22.3385 9.60815 21.1219 7.87482 18.1719 7.44149" stroke="#5462E3" stroke-width="1.5" stroke-linecap="round" stroke-linejoin="round"/>
</svg>
