<svg width="45" height="45" viewBox="0 0 45 45" fill="none" xmlns="http://www.w3.org/2000/svg">
<rect x="0.400504" y="0.455159" width="43.39" height="43.3906" rx="9.6" transform="rotate(-0.072246 0.400504 0.455159)" fill="#EFF0F6" stroke="#5462E3" stroke-width="0.8"/>
<path d="M31.4969 15.2074C31.4969 16.1174 31.0669 16.9274 30.4069 17.4474C29.9269 17.8274 29.3169 18.0574 28.6469 18.0574C27.0669 18.0574 25.7969 16.7874 25.7969 15.2074C25.7969 14.5374 26.0269 13.9374 26.4069 13.4474H26.4169C26.9269 12.7874 27.7369 12.3574 28.6469 12.3574C30.2269 12.3574 31.4969 13.6274 31.4969 15.2074Z" stroke="#5462E3" stroke-width="1.8" stroke-linecap="round" stroke-linejoin="round"/>
<path d="M18.2 15.2074C18.2 16.7874 16.93 18.0574 15.35 18.0574C14.68 18.0574 14.08 17.8274 13.59 17.4474C12.93 16.9274 12.5 16.1174 12.5 15.2074C12.5 13.6274 13.77 12.3574 15.35 12.3574C16.26 12.3574 17.07 12.7874 17.59 13.4474C17.97 13.9374 18.2 14.5374 18.2 15.2074Z" stroke="#5462E3" stroke-width="1.8" stroke-linecap="round" stroke-linejoin="round"/>
<path d="M31.4969 28.5075C31.4969 30.0875 30.2269 31.3575 28.6469 31.3575C27.7369 31.3575 26.9269 30.9275 26.4169 30.2675H26.4069C26.0269 29.7875 25.7969 29.1775 25.7969 28.5075C25.7969 26.9275 27.0669 25.6575 28.6469 25.6575C29.3169 25.6575 29.9169 25.8875 30.4069 26.2675V26.2775C31.0669 26.7875 31.4969 27.5975 31.4969 28.5075Z" stroke="#5462E3" stroke-width="1.8" stroke-linecap="round" stroke-linejoin="round"/>
<path d="M18.2 28.5075C18.2 29.1775 17.97 29.7775 17.59 30.2675C17.07 30.9375 16.26 31.3575 15.35 31.3575C13.77 31.3575 12.5 30.0875 12.5 28.5075C12.5 27.5975 12.93 26.7875 13.59 26.2775V26.2675C14.07 25.8875 14.68 25.6575 15.35 25.6575C16.93 25.6575 18.2 26.9275 18.2 28.5075Z" stroke="#5462E3" stroke-width="1.8" stroke-linecap="round" stroke-linejoin="round"/>
<path d="M31.5 21.8574C31.5 23.4574 31.11 24.9474 30.41 26.2674C29.93 25.8874 29.32 25.6574 28.65 25.6574C27.07 25.6574 25.8 26.9274 25.8 28.5074C25.8 29.1774 26.03 29.7774 26.41 30.2674C25.09 30.9674 23.6 31.3574 22 31.3574C20.41 31.3574 18.91 30.9674 17.59 30.2674C17.97 29.7874 18.2 29.1774 18.2 28.5074C18.2 26.9274 16.93 25.6574 15.35 25.6574C14.68 25.6574 14.08 25.8874 13.59 26.2674C12.89 24.9474 12.5 23.4574 12.5 21.8574C12.5 20.2674 12.89 18.7674 13.59 17.4474C14.08 17.8274 14.68 18.0574 15.35 18.0574C16.93 18.0574 18.2 16.7874 18.2 15.2074C18.2 14.5374 17.97 13.9374 17.59 13.4474C18.91 12.7474 20.41 12.3574 22 12.3574C23.6 12.3574 25.09 12.7474 26.41 13.4474C26.03 13.9274 25.8 14.5374 25.8 15.2074C25.8 16.7874 27.07 18.0574 28.65 18.0574C29.32 18.0574 29.92 17.8274 30.41 17.4474C31.11 18.7674 31.5 20.2674 31.5 21.8574Z" stroke="#5462E3" stroke-width="1.8" stroke-linecap="round" stroke-linejoin="round"/>
</svg>
