<svg width="45" height="45" viewBox="0 0 45 45" fill="none" xmlns="http://www.w3.org/2000/svg">
<rect x="0.400504" y="0.455159" width="43.39" height="43.3906" rx="9.6" transform="rotate(-0.072246 0.400504 0.455159)" fill="#EFF0F6" stroke="#5462E3" stroke-width="0.8"/>
<path d="M27 13H31V17" stroke="#5462E3" stroke-width="1.8" stroke-linecap="round" stroke-linejoin="round"/>
<path d="M25 19L31 13" stroke="#5462E3" stroke-width="1.8" stroke-linecap="round" stroke-linejoin="round"/>
<path d="M17 31H13V27" stroke="#5462E3" stroke-width="1.8" stroke-linecap="round" stroke-linejoin="round"/>
<path d="M19 25L13 31" stroke="#5462E3" stroke-width="1.8" stroke-linecap="round" stroke-linejoin="round"/>
<path d="M24.02 12.2C23.37 12.07 22.69 12 22 12C16.48 12 12 16.48 12 22C12 22.69 12.07 23.36 12.2 24" stroke="#5462E3" stroke-width="1.8" stroke-linecap="round" stroke-linejoin="round"/>
<path d="M19.9844 31.8C20.6344 31.93 21.3144 32 22.0044 32C27.5244 32 32.0044 27.52 32.0044 22C32.0044 21.32 31.9344 20.65 31.8044 20" stroke="#5462E3" stroke-width="1.8" stroke-linecap="round" stroke-linejoin="round"/>
</svg>
