<svg width="28" height="28" viewBox="0 0 28 28" fill="none" xmlns="http://www.w3.org/2000/svg">
<rect width="28" height="28" rx="6" fill="#ECECEF"/>
<path d="M6.91719 21.0835C7.60885 21.7752 8.72552 21.7752 9.41719 21.0835L20.2505 10.2502C20.9422 9.55853 20.9422 8.44186 20.2505 7.7502C19.5589 7.05853 18.4422 7.05853 17.7505 7.7502L6.91719 18.5835C6.22552 19.2752 6.22552 20.3919 6.91719 21.0835Z" stroke="#5462E3" stroke-width="1.5" stroke-linecap="round" stroke-linejoin="round"/>
<path d="M19.0078 11.4912L16.5078 8.99121" stroke="#5462E3" stroke-width="1.5" stroke-linecap="round" stroke-linejoin="round"/>
<path d="M11.0859 6.03366L12.3359 5.66699L11.9693 6.91699L12.3359 8.16699L11.0859 7.80033L9.83594 8.16699L10.2026 6.91699L9.83594 5.66699L11.0859 6.03366Z" stroke="#5462E3" stroke-linecap="round" stroke-linejoin="round"/>
<path d="M7.75 11.0337L9 10.667L8.63333 11.917L9 13.167L7.75 12.8003L6.5 13.167L6.86667 11.917L6.5 10.667L7.75 11.0337Z" stroke="#5462E3" stroke-linecap="round" stroke-linejoin="round"/>
<path d="M20.25 15.1997L21.5 14.833L21.1333 16.083L21.5 17.333L20.25 16.9663L19 17.333L19.3667 16.083L19 14.833L20.25 15.1997Z" stroke="#5462E3" stroke-linecap="round" stroke-linejoin="round"/>
</svg>
