<svg width="24" height="24" viewBox="0 0 24 24" fill="none" xmlns="http://www.w3.org/2000/svg">
<path d="M21.9252 6.76001L22.653 6.94128L22.6545 6.93504L21.9252 6.76001ZM18.5553 20.29L17.8274 20.1088L17.8256 20.1166L18.5553 20.29ZM1.09526 19.0699L0.379177 18.847L0.378964 18.8476L1.09526 19.0699ZM5.30525 5.55005L6.02134 5.77303L6.02192 5.77115L5.30525 5.55005ZM21.8153 5.33997L21.1219 5.62596L21.1255 5.63457L21.1292 5.64309L21.8153 5.33997ZM15.9953 21.25C15.5811 21.25 15.2453 21.5858 15.2453 22C15.2453 22.4142 15.5811 22.75 15.9953 22.75V21.25ZM22.9853 19.62L23.7334 19.5678L23.7333 19.5656L22.9853 19.62ZM22.7433 5.94563C22.7133 5.5325 22.354 5.22194 21.9409 5.25197C21.5278 5.282 21.2172 5.64125 21.2472 6.05437L22.7433 5.94563ZM8.9461 6.20446C8.84915 6.60717 9.09701 7.01222 9.49972 7.10917C9.90243 7.20612 10.3075 6.95826 10.4044 6.55555L8.9461 6.20446ZM11.4444 2.2356C11.5414 1.83289 11.2935 1.42784 10.8908 1.33089C10.4881 1.23394 10.0831 1.48181 9.9861 1.88451L11.4444 2.2356ZM15.6423 6.23125C15.5546 6.63608 15.8117 7.03534 16.2165 7.12302C16.6213 7.2107 17.0206 6.9536 17.1083 6.54878L15.6423 6.23125ZM18.0483 2.20881C18.136 1.80398 17.8789 1.40473 17.474 1.31705C17.0692 1.22936 16.67 1.48646 16.5823 1.89129L18.0483 2.20881ZM7.69528 11.25C7.28107 11.25 6.94528 11.5858 6.94528 12C6.94528 12.4142 7.28107 12.75 7.69528 12.75V11.25ZM15.6953 12.75C16.1095 12.75 16.4453 12.4142 16.4453 12C16.4453 11.5858 16.1095 11.25 15.6953 11.25V12.75ZM6.69528 15.25C6.28107 15.25 5.94528 15.5858 5.94528 16C5.94528 16.4142 6.28107 16.75 6.69528 16.75V15.25ZM14.6953 16.75C15.1095 16.75 15.4453 16.4142 15.4453 16C15.4453 15.5858 15.1095 15.25 14.6953 15.25V16.75ZM21.1975 6.57874L17.8275 20.1088L19.283 20.4713L22.653 6.94128L21.1975 6.57874ZM17.8256 20.1166C17.6673 20.7827 17.074 21.25 16.3753 21.25V22.75C17.7565 22.75 18.9632 21.8174 19.2849 20.4634L17.8256 20.1166ZM16.3753 21.25H3.23525V22.75H16.3753V21.25ZM3.23525 21.25C2.2378 21.25 1.50921 20.2665 1.81156 19.2922L0.378964 18.8476C-0.218686 20.7734 1.21269 22.75 3.23525 22.75V21.25ZM1.81135 19.2929L6.02134 5.77303L4.58917 5.32707L0.379177 18.847L1.81135 19.2929ZM6.02192 5.77115C6.2164 5.14078 6.79931 4.70996 7.44527 4.70996V3.20996C6.13123 3.20996 4.97411 4.07932 4.58858 5.32895L6.02192 5.77115ZM7.44527 4.70996H19.7453V3.20996H7.44527V4.70996ZM19.7453 4.70996C20.3784 4.70996 20.9027 5.0944 21.1219 5.62596L22.5086 5.05397C22.0679 3.98553 21.0122 3.20996 19.7453 3.20996V4.70996ZM21.1292 5.64309C21.2478 5.91146 21.2806 6.23237 21.196 6.58498L22.6545 6.93504C22.8099 6.28765 22.7627 5.62847 22.5013 5.03684L21.1292 5.64309ZM15.9953 22.75H20.7753V21.25H15.9953V22.75ZM20.7753 22.75C22.5037 22.75 23.8534 21.2878 23.7334 19.5678L22.2371 19.6722C22.2971 20.5322 21.6268 21.25 20.7753 21.25V22.75ZM23.7333 19.5656L22.7433 5.94563L21.2472 6.05437L22.2372 19.6744L23.7333 19.5656ZM10.4044 6.55555L11.4444 2.2356L9.9861 1.88451L8.9461 6.20446L10.4044 6.55555ZM17.1083 6.54878L18.0483 2.20881L16.5823 1.89129L15.6423 6.23125L17.1083 6.54878ZM7.69528 12.75H15.6953V11.25H7.69528V12.75ZM6.69528 16.75H14.6953V15.25H6.69528V16.75Z" fill="#5462E3"/>
</svg>
