<svg width="32" height="32" viewBox="0 0 32 32" fill="none" xmlns="http://www.w3.org/2000/svg">
<rect width="32" height="32" rx="8" fill="#ECECEF"/>
<path d="M24.0505 17.9166L23.429 17.85L23.4282 17.8584L23.4275 17.8668L24.0505 17.9166ZM23.7172 22.0833L24.3393 22.1443L24.3402 22.1331L23.7172 22.0833ZM8.26716 22.0833L7.64405 22.1331L7.64514 22.1443L8.26716 22.0833ZM7.93382 17.9166L8.55691 17.8668L8.55594 17.8567L7.93382 17.9166ZM8.47549 16.0916L8.03355 15.6497L8.00861 15.6746L7.98664 15.7022L8.47549 16.0916ZM8.49216 16.075L8.9341 16.5169L8.95578 16.4952L8.97524 16.4715L8.49216 16.075ZM23.4755 16.0583L22.9947 16.4577L23.0132 16.4799L23.0335 16.5002L23.4755 16.0583ZM23.4922 16.0833H22.8672V16.309L23.0114 16.4826L23.4922 16.0833ZM8.28646 15.525C8.28646 15.8702 8.56628 16.15 8.91146 16.15C9.25664 16.15 9.53646 15.8702 9.53646 15.525H8.28646ZM15.2115 8.54165L15.7122 8.16759L15.7115 8.16665L15.2115 8.54165ZM16.2698 9.95832L15.7691 10.3324L15.7726 10.3371L16.2698 9.95832ZM22.4448 15.5583C22.4448 15.9035 22.7246 16.1833 23.0698 16.1833C23.415 16.1833 23.6948 15.9035 23.6948 15.5583H22.4448ZM13.8529 19.5416C13.5077 19.5416 13.2279 19.8214 13.2279 20.1666C13.2279 20.5118 13.5077 20.7916 13.8529 20.7916V19.5416ZM18.1362 20.7916C18.4814 20.7916 18.7612 20.5118 18.7612 20.1666C18.7612 19.8214 18.4814 19.5416 18.1362 19.5416V20.7916ZM23.4275 17.8668L23.0941 22.0335L24.3402 22.1331L24.6735 17.9665L23.4275 17.8668ZM23.0951 22.0223C23.0272 22.715 22.9715 23.0662 22.7877 23.2957C22.6445 23.4744 22.2993 23.7083 21.2338 23.7083V24.9583C22.4267 24.9583 23.2606 24.7046 23.7633 24.0772C24.2253 23.5003 24.2821 22.7266 24.3392 22.1443L23.0951 22.0223ZM21.2338 23.7083H10.7505V24.9583H21.2338V23.7083ZM10.7505 23.7083C9.685 23.7083 9.33981 23.4744 9.19662 23.2957C9.01283 23.0662 8.95708 22.715 8.88917 22.0223L7.64514 22.1443C7.70223 22.7266 7.75898 23.5003 8.22103 24.0772C8.72366 24.7046 9.55764 24.9583 10.7505 24.9583V23.7083ZM8.89017 22.0335L8.55683 17.8668L7.31081 17.9665L7.64415 22.1331L8.89017 22.0335ZM8.55594 17.8567C8.50568 17.3352 8.66806 16.853 8.96434 16.481L7.98664 15.7022C7.49959 16.3136 7.22863 17.1147 7.31171 17.9766L8.55594 17.8567ZM8.91743 16.5336C8.92159 16.5294 8.92368 16.5273 8.92576 16.5252C8.92784 16.5232 8.92993 16.5211 8.9341 16.5169L8.05021 15.633C8.04605 15.6372 8.04397 15.6393 8.04189 15.6413C8.0398 15.6434 8.03772 15.6455 8.03355 15.6497L8.91743 16.5336ZM8.97524 16.4715C9.3187 16.0531 9.83523 15.7916 10.4172 15.7916V14.5416C9.44908 14.5416 8.58228 14.9801 8.00908 15.6784L8.97524 16.4715ZM10.4172 15.7916H21.5672V14.5416H10.4172V15.7916ZM21.5672 15.7916C22.149 15.7916 22.6587 16.0532 22.9947 16.4577L23.9562 15.6589C23.3922 14.98 22.5353 14.5416 21.5672 14.5416V15.7916ZM23.0335 16.5002C23.0459 16.5126 23.0157 16.4841 22.987 16.4458C22.9632 16.4141 22.8672 16.2831 22.8672 16.0833H24.1172C24.1172 15.8752 24.017 15.7358 23.9869 15.6958C23.9665 15.6685 23.9478 15.648 23.9376 15.6371C23.9275 15.6264 23.9182 15.6171 23.9174 15.6163L23.0335 16.5002ZM23.0114 16.4826C23.3196 16.8538 23.4848 17.3298 23.429 17.85L24.6719 17.9832C24.7662 17.1035 24.4814 16.2961 23.973 15.684L23.0114 16.4826ZM9.53646 15.525V11.2333H8.28646V15.525H9.53646ZM9.53646 11.2333C9.53646 9.81218 9.72924 9.17442 10.0617 8.84193C10.3942 8.50943 11.032 8.31665 12.4531 8.31665V7.06665C11.0409 7.06665 9.90785 7.22804 9.17785 7.95804C8.44785 8.68805 8.28646 9.82112 8.28646 11.2333H9.53646ZM12.4531 8.31665H13.5115V7.06665H12.4531V8.31665ZM13.5115 8.31665C13.9845 8.31665 14.1805 8.3887 14.2864 8.45238C14.4068 8.52471 14.498 8.63205 14.7115 8.91665L15.7115 8.16665C15.5249 7.91792 15.2953 7.60025 14.9302 7.38092C14.5508 7.15293 14.0968 7.06665 13.5115 7.06665V8.31665ZM14.7108 8.91571L15.7691 10.3324L16.7705 9.58426L15.7122 8.16759L14.7108 8.91571ZM15.7726 10.3371C15.8894 10.4903 16.0654 10.7367 16.3467 10.9073C16.6447 11.088 16.9906 11.15 17.4031 11.15V9.89998C17.1073 9.89998 17.0199 9.85364 16.9949 9.83849C16.9533 9.81326 16.9169 9.77636 16.7669 9.57954L15.7726 10.3371ZM17.4031 11.15H19.5281V9.89998H17.4031V11.15ZM19.5281 11.15C20.9493 11.15 21.587 11.3428 21.9195 11.6753C22.252 12.0078 22.4448 12.6455 22.4448 14.0667H23.6948C23.6948 12.6545 23.5334 11.5214 22.8034 10.7914C22.0734 10.0614 20.9403 9.89998 19.5281 9.89998V11.15ZM22.4448 14.0667V15.5583H23.6948V14.0667H22.4448ZM13.8529 20.7916H18.1362V19.5416H13.8529V20.7916Z" fill="#5462E3"/>
</svg>
