<svg width="28" height="28" viewBox="0 0 28 28" fill="none" xmlns="http://www.w3.org/2000/svg">
<rect width="28" height="28" rx="6" fill="#ECECEF"/>
<path d="M16.5513 20.1583C19.1513 20.4083 20.5346 19.1916 21.2346 16.1833L22.0513 12.6999C22.8679 9.21659 21.8013 7.49159 18.3096 6.67493L16.9179 6.34993C14.1346 5.69159 12.4763 6.23326 11.5013 8.24993M16.5513 20.1583C16.1346 20.1249 15.6846 20.0499 15.2013 19.9333L13.8013 19.5999C10.3263 18.7749 9.25126 17.0583 10.0679 13.5749L10.8846 10.0833C11.0513 9.37493 11.2513 8.75826 11.5013 8.24993M16.5513 20.1583C16.0346 20.5083 15.3846 20.7999 14.5929 21.0583L13.2763 21.4916C9.96793 22.5583 8.22626 21.6666 7.15126 18.3583L6.08459 15.0666C5.01793 11.7583 5.90126 10.0083 9.20959 8.94159L10.5263 8.50826C10.8679 8.39993 11.1929 8.30826 11.5013 8.24993M14.5346 11.1083L18.5763 12.1333M13.7179 14.3333L16.1346 14.9499" stroke="#5462E3" stroke-width="1.5" stroke-linecap="round" stroke-linejoin="round"/>
</svg>
