<svg width="48" height="48" viewBox="0 0 48 48" fill="none" xmlns="http://www.w3.org/2000/svg">
<path d="M17.4525 25.86L17.9574 26.164L17.9587 26.1618L17.4525 25.86ZM16.3025 27.77L15.7977 27.466L15.7976 27.4662L16.3025 27.77ZM17.3825 30.7L17.1936 31.2582L17.1958 31.2589L17.3825 30.7ZM30.6525 30.7L30.4676 30.1405L30.4658 30.1411L30.6525 30.7ZM31.7325 27.77L32.2378 27.4668L32.2374 27.466L31.7325 27.77ZM30.5825 25.86L30.072 26.1545L30.0777 26.164L30.5825 25.86ZM25.8763 15.1999L25.712 15.7659C25.9277 15.8285 26.1601 15.7631 26.3115 15.5973C26.4629 15.4314 26.5069 15.194 26.425 14.9849L25.8763 15.1999ZM24.9163 14.9999L24.8432 15.5847L24.8454 15.5849L24.9163 14.9999ZM22.1763 15.1999L21.6277 14.9849C21.5457 15.194 21.5898 15.4315 21.7412 15.5973C21.8927 15.7632 22.1252 15.8285 22.3408 15.7658L22.1763 15.1999ZM24.0225 14.3207C20.3871 14.3207 17.4332 17.2745 17.4332 20.91H18.6118C18.6118 17.9255 21.038 15.4993 24.0225 15.4993V14.3207ZM17.4332 20.91V23.8H18.6118V20.91H17.4332ZM17.4332 23.8C17.4332 24.034 17.3811 24.3632 17.286 24.7061C17.1908 25.0488 17.0658 25.3579 16.9464 25.5582L17.9587 26.1618C18.1493 25.8421 18.3092 25.4262 18.4216 25.0214C18.5339 24.6168 18.6118 24.176 18.6118 23.8H17.4332ZM16.9477 25.556L15.7977 27.466L16.8074 28.074L17.9574 26.164L16.9477 25.556ZM15.7976 27.4662C15.3593 28.1947 15.2719 29.0035 15.5362 29.7171C15.8002 30.4301 16.3924 30.987 17.1936 31.2582L17.5715 30.1418C17.0726 29.973 16.7699 29.6549 16.6414 29.3079C16.5131 28.9615 16.5358 28.5253 16.8075 28.0738L15.7976 27.4662ZM17.1958 31.2589C21.627 32.7394 26.4081 32.7394 30.8393 31.2589L30.4658 30.1411C26.277 31.5406 21.7581 31.5406 17.5693 30.1411L17.1958 31.2589ZM30.8375 31.2595C32.4082 30.7403 33.0909 28.8886 32.2378 27.4668L31.2272 28.0732C31.6941 28.8514 31.3169 29.8597 30.4676 30.1405L30.8375 31.2595ZM32.2374 27.466L31.0874 25.556L30.0777 26.164L31.2277 28.074L32.2374 27.466ZM31.093 25.5655C30.976 25.3629 30.8525 25.0514 30.7583 24.7079C30.664 24.3638 30.6118 24.0342 30.6118 23.8H29.4332C29.4332 24.1758 29.5111 24.6162 29.6217 25.0196C29.7325 25.4236 29.889 25.8371 30.0721 26.1545L31.093 25.5655ZM30.6118 23.8V20.91H29.4332V23.8H30.6118ZM30.6118 20.91C30.6118 17.2845 27.648 14.3207 24.0225 14.3207V15.4993C26.9971 15.4993 29.4332 17.9355 29.4332 20.91H30.6118ZM26.0406 14.634C25.705 14.5366 25.3536 14.4593 24.9873 14.4149L24.8454 15.5849C25.1391 15.6205 25.4277 15.6833 25.712 15.7659L26.0406 14.634ZM24.9894 14.4152C23.9543 14.2858 22.9532 14.3604 22.0118 14.6341L22.3408 15.7658C23.1195 15.5395 23.9584 15.4741 24.8432 15.5847L24.9894 14.4152ZM22.725 15.415C22.929 14.8944 23.4355 14.5292 24.0263 14.5292V13.3507C22.9372 13.3507 22.0037 14.0255 21.6277 14.9849L22.725 15.415ZM24.0263 14.5292C24.6172 14.5292 25.1237 14.8944 25.3277 15.415L26.425 14.9849C26.049 14.0255 25.1155 13.3507 24.0263 13.3507V14.5292ZM26.433 31.0599C26.433 32.3845 25.3469 33.4706 24.0223 33.4706V34.6492C25.9978 34.6492 27.6116 33.0354 27.6116 31.0599H26.433ZM24.0223 33.4706C23.3653 33.4706 22.7534 33.1976 22.319 32.7632L21.4856 33.5966C22.1313 34.2423 23.0393 34.6492 24.0223 34.6492V33.4706ZM22.319 32.7632C21.8847 32.3289 21.6116 31.7169 21.6116 31.0599H20.433C20.433 32.0429 20.84 32.951 21.4856 33.5966L22.319 32.7632Z" fill="#3B3B3C"/>
</svg>
