<svg width="64" height="64" viewBox="0 0 64 64" fill="none" xmlns="http://www.w3.org/2000/svg">
<rect width="64" height="64" rx="16.0653" fill="#ECECEF"/>
<path d="M32.0343 16.7891C26.4954 16.7891 21.994 21.2905 21.994 26.8294V31.6654C21.994 32.6862 21.5589 34.2425 21.0402 35.1126L19.1158 38.3088C17.9277 40.2834 18.7476 42.4755 20.923 43.2118C28.1353 45.6215 35.9166 45.6215 43.1288 43.2118C45.1536 42.5424 46.0405 40.1495 44.9361 38.3088L43.0117 35.1126C42.5097 34.2425 42.0746 32.6862 42.0746 31.6654V26.8294C42.0746 21.3072 37.5565 16.7891 32.0343 16.7891Z" stroke="#8C8C96" stroke-width="2.50674" stroke-miterlimit="10" stroke-linecap="round"/>
<path d="M35.129 17.2742C34.6103 17.1236 34.0748 17.0065 33.5226 16.9396C31.9161 16.7388 30.3766 16.8559 28.9375 17.2742C29.4228 16.0359 30.6276 15.1658 32.0333 15.1658C33.4389 15.1658 34.6437 16.0359 35.129 17.2742Z" stroke="#8C8C96" stroke-width="2.50674" stroke-miterlimit="10" stroke-linecap="round" stroke-linejoin="round"/>
<path d="M37.0559 43.8142C37.0559 46.5753 34.7969 48.8344 32.0358 48.8344C30.6636 48.8344 29.3918 48.2654 28.4882 47.3618C27.5846 46.4582 27.0156 45.1864 27.0156 43.8142" stroke="#8C8C96" stroke-width="2.50674" stroke-miterlimit="10"/>
</svg>
