<svg width="30" height="30" viewBox="0 0 30 30" fill="none" xmlns="http://www.w3.org/2000/svg">
<path d="M0 12.8C0 8.31958 0 6.07937 0.871948 4.36808C1.63893 2.86278 2.86278 1.63893 4.36808 0.871948C6.07937 0 8.31958 0 12.8 0H17.2C21.6804 0 23.9206 0 25.6319 0.871948C27.1372 1.63893 28.3611 2.86278 29.1281 4.36808C30 6.07937 30 8.31958 30 12.8V17.2C30 21.6804 30 23.9206 29.1281 25.6319C28.3611 27.1372 27.1372 28.3611 25.6319 29.1281C23.9206 30 21.6804 30 17.2 30H12.8C8.31958 30 6.07937 30 4.36808 29.1281C2.86278 28.3611 1.63893 27.1372 0.871948 25.6319C0 23.9206 0 21.6804 0 17.2V12.8Z" fill="#5462E3"/>
<path d="M19.1641 7.50008H22.4974M22.4974 7.50008V10.8334M22.4974 7.50008L17.4974 12.5001M10.8307 22.5001H7.4974M7.4974 22.5001V19.1667M7.4974 22.5001L12.4974 17.5001M16.6807 6.83342C16.1391 6.72509 15.5724 6.66675 14.9974 6.66675C10.3974 6.66675 6.66406 10.4001 6.66406 15.0001C6.66406 15.5751 6.72241 16.1334 6.83074 16.6667M13.314 23.1667C13.8557 23.2751 14.4224 23.3334 14.9974 23.3334C19.5974 23.3334 23.3307 19.6001 23.3307 15.0001C23.3307 14.4334 23.2724 13.8751 23.1641 13.3334" stroke="#FCFCFD" stroke-width="1.5" stroke-linecap="round" stroke-linejoin="round"/>
</svg>
