<svg width="94" height="94" viewBox="0 0 94 94" fill="none" xmlns="http://www.w3.org/2000/svg">
<path d="M63.0013 68.4247C63.0077 67.014 63.5659 65.6619 64.5564 64.6577C65.5468 63.6536 66.8907 63.0772 68.3006 63.0519C69.7105 63.0266 71.0742 63.5545 72.1 64.5224C73.1257 65.4904 73.732 66.8217 73.789 68.2312L73.808 68.2502C73.798 68.4124 73.7924 68.5757 73.7924 68.7423C73.7918 69.0836 73.8123 69.4247 73.8539 69.7634C74.0909 71.7296 75.002 73.3647 76.2372 74.171C76.751 74.523 77.3591 74.7113 77.9817 74.7113C78.6044 74.7113 79.2125 74.523 79.7262 74.171C80.9559 73.3647 81.8726 71.7296 82.1096 69.7634C82.1512 69.4247 82.1717 69.0836 82.1711 68.7423C82.1711 68.5757 82.1711 68.4068 82.1554 68.2502L82.1744 68.2312C82.2126 67.1727 82.5613 66.1488 83.1769 65.2871C83.7926 64.4254 84.6481 63.764 85.6369 63.3853C86.6256 63.0065 87.7039 62.9272 88.7374 63.1572C89.7709 63.3872 90.7138 63.9163 91.4489 64.6787C92.1839 65.441 92.6785 66.4029 92.871 67.4444C93.0635 68.486 92.9454 69.5612 92.5315 70.5361C92.1175 71.511 91.426 72.3425 90.5431 72.927C89.6602 73.5115 88.6248 73.8232 87.5661 73.8232C87.5102 73.8232 87.4543 73.8232 87.3995 73.8232L87.3626 73.8601L87.3011 73.8668C84.9535 74.0994 83.0464 75.2861 82.4036 76.8529C82.2514 77.2211 82.1724 77.6154 82.1711 78.0138C82.1725 78.3106 82.2306 78.6044 82.3421 78.8795C83.0028 80.5492 85.4409 81.8522 87.3727 82.143C87.4979 82.1631 87.6209 82.1765 87.7405 82.1877L87.7617 82.2089C88.8055 82.2477 89.8157 82.5888 90.6695 83.1907C91.5233 83.7927 92.1841 84.6297 92.5717 85.6002C92.9592 86.5706 93.0568 87.6327 92.8527 88.6576C92.6485 89.6824 92.1513 90.6259 91.4215 91.3736C90.6918 92.1212 89.7607 92.6409 88.7414 92.8694C87.7222 93.0979 86.6585 93.0255 85.6796 92.6609C84.7007 92.2963 83.8486 91.6553 83.2268 90.8156C82.6049 89.976 82.2402 88.9737 82.1767 87.9307L82.151 87.9049C82.161 87.7428 82.1666 87.5784 82.1666 87.4117C82.1667 87.0704 82.1461 86.7294 82.1051 86.3906C81.848 84.2657 80.8039 82.5266 79.4154 81.8052C78.9722 81.5699 78.4785 81.4459 77.9767 81.444C77.3548 81.4489 76.7482 81.6372 76.2328 81.9853C74.9975 82.7916 74.0864 84.4256 73.8494 86.3917C73.8095 86.7291 73.7905 87.0686 73.7924 87.4084V87.4307C73.7924 87.4867 73.7924 87.5426 73.7924 87.5974C73.7926 88.6569 73.4811 89.6931 72.8968 90.5768C72.3126 91.4604 71.4813 92.1526 70.5066 92.5669C69.5318 92.9813 68.4568 93.0995 67.4154 92.9069C66.374 92.7144 65.4122 92.2194 64.65 91.4839C63.8878 90.7483 63.3587 89.8046 63.1288 88.7703C62.8989 87.736 62.9783 86.657 63.3571 85.6675C63.7359 84.6781 64.3973 83.822 65.259 83.206C66.1207 82.59 67.1445 82.2413 68.2029 82.2034L68.2152 82.191C68.299 82.191 68.3828 82.1821 68.4667 82.1754C70.8557 81.9964 72.8265 80.8266 73.5219 79.2676C73.6935 78.8887 73.7855 78.4785 73.792 78.0625C73.7986 77.6466 73.7196 77.2337 73.5599 76.8496C72.8992 75.2402 70.9015 74.029 68.4667 73.8467C68.3404 73.8366 68.2129 73.8299 68.0833 73.8266L68.0698 73.812C66.698 73.7288 65.4097 73.125 64.4678 72.1239C63.5258 71.1227 63.0013 69.7996 63.0013 68.4247Z" stroke="url(#paint0_linear_1893_27775)" stroke-width="0.204444" stroke-miterlimit="10"/>
<path d="M32.0013 68.4247C32.0077 67.014 32.5659 65.6619 33.5564 64.6577C34.5468 63.6536 35.8907 63.0772 37.3006 63.0519C38.7105 63.0266 40.0742 63.5545 41.1 64.5224C42.1257 65.4904 42.732 66.8217 42.789 68.2312L42.808 68.2502C42.798 68.4124 42.7924 68.5757 42.7924 68.7423C42.7918 69.0836 42.8123 69.4247 42.8539 69.7634C43.0909 71.7296 44.002 73.3647 45.2372 74.171C45.751 74.523 46.3591 74.7113 46.9817 74.7113C47.6044 74.7113 48.2125 74.523 48.7262 74.171C49.9559 73.3647 50.8726 71.7296 51.1096 69.7634C51.1512 69.4247 51.1717 69.0836 51.1711 68.7423C51.1711 68.5757 51.1711 68.4068 51.1554 68.2502L51.1744 68.2312C51.2126 67.1727 51.5613 66.1488 52.1769 65.2871C52.7926 64.4254 53.6481 63.764 54.6369 63.3853C55.6256 63.0065 56.7039 62.9272 57.7374 63.1572C58.7709 63.3872 59.7138 63.9163 60.4489 64.6787C61.1839 65.441 61.6785 66.4029 61.871 67.4444C62.0635 68.486 61.9454 69.5612 61.5315 70.5361C61.1175 71.511 60.426 72.3425 59.5431 72.927C58.6602 73.5115 57.6248 73.8232 56.5661 73.8232C56.5102 73.8232 56.4543 73.8232 56.3995 73.8232L56.3626 73.8601L56.3011 73.8668C53.9535 74.0994 52.0464 75.2861 51.4036 76.8529C51.2514 77.2211 51.1724 77.6154 51.1711 78.0138C51.1725 78.3106 51.2306 78.6044 51.3421 78.8795C52.0028 80.5492 54.4409 81.8522 56.3727 82.143C56.4979 82.1631 56.6209 82.1765 56.7405 82.1877L56.7617 82.2089C57.8055 82.2477 58.8157 82.5888 59.6695 83.1907C60.5233 83.7927 61.1841 84.6297 61.5717 85.6002C61.9592 86.5706 62.0568 87.6327 61.8527 88.6576C61.6485 89.6824 61.1513 90.6259 60.4215 91.3736C59.6918 92.1212 58.7607 92.6409 57.7414 92.8694C56.7222 93.0979 55.6585 93.0255 54.6796 92.6609C53.7007 92.2963 52.8486 91.6553 52.2268 90.8156C51.6049 89.976 51.2402 88.9737 51.1767 87.9307L51.151 87.9049C51.161 87.7428 51.1666 87.5784 51.1666 87.4117C51.1667 87.0704 51.1461 86.7294 51.1051 86.3906C50.848 84.2657 49.8039 82.5266 48.4154 81.8052C47.9722 81.5699 47.4785 81.4459 46.9767 81.444C46.3548 81.4489 45.7482 81.6372 45.2328 81.9853C43.9975 82.7916 43.0864 84.4256 42.8494 86.3917C42.8095 86.7291 42.7905 87.0686 42.7924 87.4084V87.4307C42.7924 87.4867 42.7924 87.5426 42.7924 87.5974C42.7926 88.6569 42.4811 89.6931 41.8968 90.5768C41.3126 91.4604 40.4813 92.1526 39.5066 92.5669C38.5318 92.9813 37.4568 93.0995 36.4154 92.9069C35.374 92.7144 34.4122 92.2194 33.65 91.4839C32.8878 90.7483 32.3587 89.8046 32.1288 88.7703C31.8989 87.736 31.9783 86.657 32.3571 85.6675C32.7359 84.6781 33.3973 83.822 34.259 83.206C35.1207 82.59 36.1445 82.2413 37.2029 82.2034L37.2152 82.191C37.299 82.191 37.3828 82.1821 37.4667 82.1754C39.8557 81.9964 41.8265 80.8266 42.5219 79.2676C42.6935 78.8887 42.7855 78.4785 42.792 78.0625C42.7986 77.6466 42.7196 77.2337 42.5599 76.8496C41.8992 75.2402 39.9015 74.029 37.4667 73.8467C37.3404 73.8366 37.2129 73.8299 37.0833 73.8266L37.0698 73.812C35.698 73.7288 34.4097 73.125 33.4678 72.1239C32.5258 71.1227 32.0013 69.7996 32.0013 68.4247Z" stroke="url(#paint1_linear_1893_27775)" stroke-width="0.204444" stroke-miterlimit="10"/>
<path d="M1.00126 68.4247C1.00775 67.014 1.56593 65.6619 2.55635 64.6577C3.54677 63.6536 4.89074 63.0772 6.3006 63.0519C7.71047 63.0266 9.07422 63.5545 10.1 64.5224C11.1257 65.4904 11.732 66.8217 11.789 68.2312L11.808 68.2502C11.798 68.4124 11.7924 68.5757 11.7924 68.7423C11.7918 69.0836 11.8123 69.4247 11.8539 69.7634C12.0909 71.7296 13.002 73.3647 14.2372 74.171C14.751 74.523 15.3591 74.7113 15.9817 74.7113C16.6044 74.7113 17.2125 74.523 17.7262 74.171C18.9559 73.3647 19.8726 71.7296 20.1096 69.7634C20.1512 69.4247 20.1717 69.0836 20.1711 68.7423C20.1711 68.5757 20.1711 68.4068 20.1554 68.2502L20.1744 68.2312C20.2126 67.1727 20.5613 66.1488 21.1769 65.2871C21.7926 64.4254 22.6481 63.764 23.6369 63.3853C24.6256 63.0065 25.7039 62.9272 26.7374 63.1572C27.7709 63.3872 28.7138 63.9163 29.4489 64.6787C30.1839 65.441 30.6785 66.4029 30.871 67.4444C31.0635 68.486 30.9454 69.5612 30.5315 70.5361C30.1175 71.511 29.426 72.3425 28.5431 72.927C27.6602 73.5115 26.6248 73.8232 25.5661 73.8232C25.5102 73.8232 25.4543 73.8232 25.3995 73.8232L25.3626 73.8601L25.3011 73.8668C22.9535 74.0994 21.0464 75.2861 20.4036 76.8529C20.2514 77.2211 20.1724 77.6154 20.1711 78.0138C20.1725 78.3106 20.2306 78.6044 20.3421 78.8795C21.0028 80.5492 23.4409 81.8522 25.3727 82.143C25.4979 82.1631 25.6209 82.1765 25.7405 82.1877L25.7617 82.2089C26.8055 82.2477 27.8157 82.5888 28.6695 83.1907C29.5233 83.7927 30.1841 84.6297 30.5717 85.6002C30.9592 86.5706 31.0568 87.6327 30.8527 88.6576C30.6485 89.6824 30.1513 90.6259 29.4215 91.3736C28.6918 92.1212 27.7607 92.6409 26.7414 92.8694C25.7222 93.0979 24.6585 93.0255 23.6796 92.6609C22.7007 92.2963 21.8486 91.6553 21.2268 90.8156C20.6049 89.976 20.2402 88.9737 20.1767 87.9307L20.151 87.9049C20.161 87.7428 20.1666 87.5784 20.1666 87.4117C20.1667 87.0704 20.1461 86.7294 20.1051 86.3906C19.848 84.2657 18.8039 82.5266 17.4154 81.8052C16.9722 81.5699 16.4785 81.4459 15.9767 81.444C15.3548 81.4489 14.7482 81.6372 14.2328 81.9853C12.9975 82.7916 12.0864 84.4256 11.8494 86.3917C11.8095 86.7291 11.7905 87.0686 11.7924 87.4084V87.4307C11.7924 87.4867 11.7924 87.5426 11.7924 87.5974C11.7926 88.6569 11.4811 89.6931 10.8968 90.5768C10.3126 91.4604 9.48127 92.1526 8.50656 92.5669C7.53184 92.9813 6.45681 93.0995 5.41539 92.9069C4.37397 92.7144 3.41223 92.2194 2.64999 91.4839C1.88775 90.7483 1.35872 89.8046 1.12882 88.7703C0.898917 87.736 0.978306 86.657 1.35709 85.6675C1.73588 84.6781 2.39732 83.822 3.259 83.206C4.12068 82.59 5.14449 82.2413 6.20287 82.2034L6.21516 82.191C6.299 82.191 6.38285 82.1821 6.46669 82.1754C8.85565 81.9964 10.8265 80.8266 11.5219 79.2676C11.6935 78.8887 11.7855 78.4785 11.792 78.0625C11.7986 77.6466 11.7196 77.2337 11.5599 76.8496C10.8992 75.2402 8.90149 74.029 6.46669 73.8467C6.34037 73.8366 6.21293 73.8299 6.08325 73.8266L6.06984 73.812C4.69805 73.7288 3.4097 73.125 2.46776 72.1239C1.52582 71.1227 1.0013 69.7996 1.00126 68.4247Z" stroke="url(#paint2_linear_1893_27775)" stroke-width="0.204444" stroke-miterlimit="10"/>
<path d="M63.0013 37.4107C63.0077 36 63.5659 34.6479 64.5564 33.6437C65.5468 32.6396 66.8907 32.0632 68.3006 32.0379C69.7105 32.0126 71.0742 32.5404 72.1 33.5084C73.1257 34.4764 73.732 35.8076 73.789 37.2172L73.808 37.2362C73.798 37.3984 73.7924 37.5616 73.7924 37.7283C73.7918 38.0696 73.8123 38.4106 73.8539 38.7494C74.0909 40.7155 75.002 42.3506 76.2372 43.157C76.751 43.5089 77.3591 43.6973 77.9817 43.6973C78.6044 43.6973 79.2125 43.5089 79.7262 43.157C80.9559 42.3506 81.8726 40.7155 82.1096 38.7494C82.1512 38.4106 82.1717 38.0696 82.1711 37.7283C82.1711 37.5616 82.1711 37.3928 82.1554 37.2362L82.1744 37.2172C82.2126 36.1587 82.5613 35.1348 83.1769 34.2731C83.7926 33.4114 84.6481 32.75 85.6369 32.3712C86.6256 31.9925 87.7039 31.9132 88.7374 32.1432C89.7709 32.3732 90.7138 32.9023 91.4489 33.6646C92.1839 34.427 92.6785 35.3888 92.871 36.4304C93.0635 37.4719 92.9454 38.5471 92.5315 39.522C92.1175 40.4969 91.426 41.3284 90.5431 41.9129C89.6602 42.4974 88.6248 42.8091 87.5661 42.8092C87.5102 42.8092 87.4543 42.8092 87.3995 42.8092L87.3626 42.8461L87.3011 42.8528C84.9535 43.0854 83.0464 44.272 82.4036 45.8389C82.2514 46.2071 82.1724 46.6014 82.1711 46.9998C82.1725 47.2966 82.2306 47.5904 82.3421 47.8654C83.0028 49.5352 85.4409 50.8381 87.3727 51.1289C87.4979 51.149 87.6209 51.1625 87.7405 51.1737L87.7617 51.1949C88.8055 51.2336 89.8157 51.5747 90.6695 52.1767C91.5233 52.7787 92.1841 53.6157 92.5717 54.5861C92.9592 55.5566 93.0568 56.6187 92.8527 57.6435C92.6485 58.6684 92.1513 59.6119 91.4215 60.3595C90.6918 61.1072 89.7607 61.6268 88.7414 61.8553C87.7222 62.0839 86.6585 62.0114 85.6796 61.6469C84.7007 61.2823 83.8486 60.6413 83.2268 59.8016C82.6049 58.9619 82.2402 57.9597 82.1767 56.9166L82.151 56.8909C82.161 56.7287 82.1666 56.5643 82.1666 56.3977C82.1667 56.0564 82.1461 55.7154 82.1051 55.3766C81.848 53.2516 80.8039 51.5125 79.4154 50.7912C78.9722 50.5558 78.4785 50.4319 77.9767 50.4299C77.3548 50.4348 76.7482 50.6231 76.2328 50.9712C74.9975 51.7776 74.0864 53.4116 73.8494 55.3777C73.8095 55.7151 73.7905 56.0546 73.7924 56.3943V56.4167C73.7924 56.4726 73.7924 56.5285 73.7924 56.5833C73.7926 57.6429 73.4811 58.679 72.8968 59.5627C72.3126 60.4464 71.4813 61.1385 70.5066 61.5529C69.5318 61.9673 68.4568 62.0855 67.4154 61.8929C66.374 61.7003 65.4122 61.2054 64.65 60.4698C63.8878 59.7342 63.3587 58.7905 63.1288 57.7563C62.8989 56.722 62.9783 55.6429 63.3571 54.6535C63.7359 53.6641 64.3973 52.808 65.259 52.192C66.1207 51.576 67.1445 51.2273 68.2029 51.1893L68.2152 51.177C68.299 51.177 68.3828 51.1681 68.4667 51.1614C70.8557 50.9824 72.8265 49.8126 73.5219 48.2535C73.6935 47.8746 73.7855 47.4644 73.792 47.0485C73.7986 46.6325 73.7196 46.2197 73.5599 45.8355C72.8992 44.2262 70.9015 43.0149 68.4667 42.8327C68.3404 42.8226 68.2129 42.8159 68.0833 42.8125L68.0698 42.798C66.698 42.7148 65.4097 42.111 64.4678 41.1098C63.5258 40.1086 63.0013 38.7856 63.0013 37.4107Z" stroke="#5462E3" stroke-width="0.204444" stroke-miterlimit="10"/>
<path d="M32.0013 37.4107C32.0077 36 32.5659 34.6479 33.5564 33.6437C34.5468 32.6396 35.8907 32.0632 37.3006 32.0379C38.7105 32.0126 40.0742 32.5404 41.1 33.5084C42.1257 34.4764 42.732 35.8076 42.789 37.2172L42.808 37.2362C42.798 37.3984 42.7924 37.5616 42.7924 37.7283C42.7918 38.0696 42.8123 38.4106 42.8539 38.7494C43.0909 40.7155 44.002 42.3506 45.2372 43.157C45.751 43.5089 46.3591 43.6973 46.9817 43.6973C47.6044 43.6973 48.2125 43.5089 48.7262 43.157C49.9559 42.3506 50.8726 40.7155 51.1096 38.7494C51.1512 38.4106 51.1717 38.0696 51.1711 37.7283C51.1711 37.5616 51.1711 37.3928 51.1554 37.2362L51.1744 37.2172C51.2126 36.1587 51.5613 35.1348 52.1769 34.2731C52.7926 33.4114 53.6481 32.75 54.6369 32.3712C55.6256 31.9925 56.7039 31.9132 57.7374 32.1432C58.7709 32.3732 59.7138 32.9023 60.4489 33.6646C61.1839 34.427 61.6785 35.3888 61.871 36.4304C62.0635 37.4719 61.9454 38.5471 61.5315 39.522C61.1175 40.4969 60.426 41.3284 59.5431 41.9129C58.6602 42.4974 57.6248 42.8091 56.5661 42.8092C56.5102 42.8092 56.4543 42.8092 56.3995 42.8092L56.3626 42.8461L56.3011 42.8528C53.9535 43.0854 52.0464 44.272 51.4036 45.8389C51.2514 46.2071 51.1724 46.6014 51.1711 46.9998C51.1725 47.2966 51.2306 47.5904 51.3421 47.8654C52.0028 49.5352 54.4409 50.8381 56.3727 51.1289C56.4979 51.149 56.6209 51.1625 56.7405 51.1737L56.7617 51.1949C57.8055 51.2336 58.8157 51.5747 59.6695 52.1767C60.5233 52.7787 61.1841 53.6157 61.5717 54.5861C61.9592 55.5566 62.0568 56.6187 61.8527 57.6435C61.6485 58.6684 61.1513 59.6119 60.4215 60.3595C59.6918 61.1072 58.7607 61.6268 57.7414 61.8553C56.7222 62.0839 55.6585 62.0114 54.6796 61.6469C53.7007 61.2823 52.8486 60.6413 52.2268 59.8016C51.6049 58.9619 51.2402 57.9597 51.1767 56.9166L51.151 56.8909C51.161 56.7287 51.1666 56.5643 51.1666 56.3977C51.1667 56.0564 51.1461 55.7154 51.1051 55.3766C50.848 53.2516 49.8039 51.5125 48.4154 50.7912C47.9722 50.5558 47.4785 50.4319 46.9767 50.4299C46.3548 50.4348 45.7482 50.6231 45.2328 50.9712C43.9975 51.7776 43.0864 53.4116 42.8494 55.3777C42.8095 55.7151 42.7905 56.0546 42.7924 56.3943V56.4167C42.7924 56.4726 42.7924 56.5285 42.7924 56.5833C42.7926 57.6429 42.4811 58.679 41.8968 59.5627C41.3126 60.4464 40.4813 61.1385 39.5066 61.5529C38.5318 61.9673 37.4568 62.0855 36.4154 61.8929C35.374 61.7003 34.4122 61.2054 33.65 60.4698C32.8878 59.7342 32.3587 58.7905 32.1288 57.7563C31.8989 56.722 31.9783 55.6429 32.3571 54.6535C32.7359 53.6641 33.3973 52.808 34.259 52.192C35.1207 51.576 36.1445 51.2273 37.2029 51.1893L37.2152 51.177C37.299 51.177 37.3828 51.1681 37.4667 51.1614C39.8557 50.9824 41.8265 49.8126 42.5219 48.2535C42.6935 47.8746 42.7855 47.4644 42.792 47.0485C42.7986 46.6325 42.7196 46.2197 42.5599 45.8355C41.8992 44.2262 39.9015 43.0149 37.4667 42.8327C37.3404 42.8226 37.2129 42.8159 37.0833 42.8125L37.0698 42.798C35.698 42.7148 34.4097 42.111 33.4678 41.1098C32.5258 40.1086 32.0013 38.7856 32.0013 37.4107Z" stroke="#5462E3" stroke-width="0.204444" stroke-miterlimit="10"/>
<path d="M6.39646 61.9869C4.98639 61.9804 3.63487 61.422 2.63116 60.4311C1.62746 59.4403 1.05131 58.0957 1.02603 56.6852C1.00076 55.2748 1.52836 53.9104 2.49592 52.8842C3.46348 51.858 4.79413 51.2514 6.20307 51.1944L6.22207 51.1754C6.38417 51.1854 6.54738 51.191 6.71395 51.191C7.05511 51.1917 7.39598 51.1711 7.7346 51.1295C9.69987 50.8924 11.3342 49.9809 12.1403 48.7451C12.492 48.2311 12.6803 47.6228 12.6803 46.9998C12.6803 46.3769 12.492 45.7686 12.1403 45.2546C11.3342 44.0243 9.69987 43.1073 7.7346 42.8702C7.39598 42.8286 7.05511 42.808 6.71395 42.8087C6.54738 42.8087 6.37858 42.8087 6.22207 42.8243L6.20307 42.8053C5.14501 42.7671 4.12158 42.4183 3.26026 41.8024C2.39894 41.1864 1.73782 40.3305 1.35925 39.3413C0.98068 38.3522 0.901401 37.2734 1.13129 36.2395C1.36118 35.2055 1.89007 34.2621 2.65208 33.5268C3.41409 32.7914 4.37553 32.2966 5.41662 32.104C6.45771 31.9114 7.53244 32.0295 8.50691 32.4437C9.48137 32.8578 10.3125 33.5496 10.8968 34.4329C11.481 35.3163 11.7926 36.3521 11.7926 37.4113C11.7926 37.4672 11.7926 37.5231 11.7926 37.5779L11.8295 37.6148L11.8362 37.6763C12.0687 40.025 13.2548 41.9329 14.821 42.576C15.189 42.7283 15.5831 42.8073 15.9814 42.8087C16.2781 42.8072 16.5717 42.7491 16.8466 42.6375C18.5157 41.9766 19.818 39.5373 20.1087 37.6048C20.1288 37.4795 20.1422 37.3565 20.1534 37.2368L20.1746 37.2155C20.2134 36.1713 20.5543 35.1607 21.156 34.3065C21.7577 33.4523 22.5944 32.7912 23.5644 32.4035C24.5344 32.0158 25.596 31.9181 26.6204 32.1224C27.6448 32.3266 28.5879 32.824 29.3352 33.5541C30.0826 34.2842 30.602 35.2157 30.8304 36.2354C31.0588 37.2551 30.9864 38.3192 30.622 39.2986C30.2576 40.278 29.6168 41.1304 28.7775 41.7525C27.9382 42.3746 26.9365 42.7395 25.8938 42.8031L25.8681 42.8288C25.706 42.8187 25.5417 42.8131 25.3751 42.8131C25.034 42.8131 24.6931 42.8336 24.3545 42.8746C22.2305 43.1319 20.4921 44.1765 19.7711 45.5655C19.5358 46.0089 19.4119 46.5029 19.41 47.0049C19.4149 47.627 19.6031 48.2339 19.9511 48.7496C20.7571 49.9854 22.3903 50.8969 24.3556 51.134C24.6928 51.1739 25.0322 51.1929 25.3718 51.191L25.3941 51.191C25.45 51.191 25.5059 51.191 25.5607 51.191C26.6198 51.1908 27.6555 51.5024 28.5388 52.087C29.4221 52.6715 30.1139 53.5032 30.5281 54.4783C30.9422 55.4535 31.0604 56.529 30.8679 57.5708C30.6754 58.6127 30.1807 59.5749 29.4455 60.3375C28.7102 61.1 27.7669 61.6293 26.7331 61.8593C25.6993 62.0893 24.6207 62.0099 23.6317 61.6309C22.6427 61.252 21.787 60.5902 21.1713 59.7282C20.5556 58.8661 20.207 57.8419 20.169 56.783L20.1567 56.7707C20.1567 56.6868 20.1478 56.603 20.1411 56.5191C19.9622 54.1291 18.7929 52.1573 17.2345 51.4617C16.8558 51.2899 16.4458 51.1979 16.03 51.1914C15.6143 51.1848 15.2016 51.2639 14.8176 51.4237C13.209 52.0846 11.9983 54.0832 11.8161 56.5191C11.806 56.6455 11.7993 56.773 11.7959 56.9027L11.7814 56.9161C11.6983 58.2885 11.0947 59.5774 10.094 60.5198C9.09325 61.4621 7.77077 61.9869 6.39646 61.9869Z" stroke="url(#paint3_linear_1893_27775)" stroke-width="0.204444" stroke-miterlimit="10"/>
<path d="M63.0013 6.3976C63.0077 4.98691 63.5659 3.63479 64.5564 2.63064C65.5468 1.62649 66.8907 1.05009 68.3006 1.02481C69.7105 0.99952 71.0742 1.52736 72.1 2.49534C73.1257 3.46333 73.732 4.79456 73.789 6.20412L73.808 6.22313C73.798 6.3853 73.7924 6.54859 73.7924 6.71523C73.7918 7.05654 73.8123 7.39756 73.8539 7.73632C74.0909 9.70247 75.002 11.3376 76.2372 12.1439C76.751 12.4959 77.3591 12.6842 77.9817 12.6842C78.6044 12.6842 79.2125 12.4959 79.7262 12.1439C80.9559 11.3376 81.8726 9.70247 82.1096 7.73632C82.1512 7.39756 82.1717 7.05654 82.1711 6.71523C82.1711 6.54859 82.1711 6.37971 82.1554 6.22313L82.1744 6.20412C82.2126 5.1456 82.5613 4.12171 83.1769 3.26002C83.7926 2.39832 84.6481 1.7369 85.6369 1.35817C86.6256 0.979433 87.7039 0.90012 88.7374 1.13011C89.7709 1.3601 90.7138 1.88923 91.4489 2.65157C92.1839 3.41392 92.6785 4.37578 92.871 5.41733C93.0635 6.45888 92.9454 7.53408 92.5315 8.50898C92.1175 9.48387 91.426 10.3154 90.5431 10.8999C89.6602 11.4844 88.6248 11.7961 87.5661 11.7961C87.5102 11.7961 87.4543 11.7961 87.3995 11.7961L87.3626 11.833L87.3011 11.8397C84.9535 12.0723 83.0464 13.259 82.4036 14.8258C82.2514 15.194 82.1724 15.5883 82.1711 15.9867C82.1725 16.2835 82.2306 16.5773 82.3421 16.8524C83.0028 18.5221 85.4409 19.8251 87.3727 20.1159C87.4979 20.136 87.6209 20.1494 87.7405 20.1606L87.7617 20.1818C88.8055 20.2206 89.8157 20.5617 90.6695 21.1636C91.5233 21.7656 92.1841 22.6026 92.5717 23.5731C92.9592 24.5435 93.0568 25.6056 92.8527 26.6305C92.6485 27.6553 92.1513 28.5988 91.4215 29.3465C90.6918 30.0941 89.7607 30.6138 88.7414 30.8423C87.7222 31.0708 86.6585 30.9984 85.6796 30.6338C84.7007 30.2692 83.8486 29.6282 83.2268 28.7885C82.6049 27.9489 82.2402 26.9466 82.1767 25.9036L82.151 25.8778C82.161 25.7157 82.1666 25.5513 82.1666 25.3846C82.1667 25.0433 82.1461 24.7023 82.1051 24.3635C81.848 22.2386 80.8039 20.4995 79.4154 19.7781C78.9722 19.5428 78.4785 19.4188 77.9767 19.4169C77.3548 19.4218 76.7482 19.6101 76.2328 19.9582C74.9975 20.7645 74.0864 22.3985 73.8494 24.3646C73.8095 24.702 73.7905 25.0415 73.7924 25.3813V25.4036C73.7924 25.4596 73.7924 25.5155 73.7924 25.5703C73.7926 26.6298 73.4811 27.666 72.8968 28.5497C72.3126 29.4333 71.4813 30.1255 70.5066 30.5398C69.5318 30.9542 68.4568 31.0724 67.4154 30.8798C66.374 30.6873 65.4122 30.1923 64.65 29.4568C63.8878 28.7212 63.3587 27.7775 63.1288 26.7432C62.8989 25.7089 62.9783 24.6299 63.3571 23.6404C63.7359 22.651 64.3973 21.7949 65.259 21.1789C66.1207 20.5629 67.1445 20.2142 68.2029 20.1763L68.2152 20.1639C68.299 20.1639 68.3828 20.155 68.4667 20.1483C70.8557 19.9693 72.8265 18.7995 73.5219 17.2405C73.6935 16.8616 73.7855 16.4514 73.792 16.0354C73.7986 15.6195 73.7196 15.2066 73.5599 14.8225C72.8992 13.2131 70.9015 12.0019 68.4667 11.8196C68.3404 11.8095 68.2129 11.8028 68.0833 11.7995L68.0698 11.7849C66.698 11.7017 65.4097 11.0979 64.4678 10.0968C63.5258 9.09558 63.0013 7.77251 63.0013 6.3976Z" stroke="#5462E3" stroke-width="0.204444" stroke-miterlimit="10"/>
<path d="M32.0013 6.3976C32.0077 4.98691 32.5659 3.63479 33.5564 2.63064C34.5468 1.62649 35.8907 1.05009 37.3006 1.02481C38.7105 0.99952 40.0742 1.52736 41.1 2.49534C42.1257 3.46333 42.732 4.79456 42.789 6.20412L42.808 6.22313C42.798 6.3853 42.7924 6.54859 42.7924 6.71523C42.7918 7.05654 42.8123 7.39756 42.8539 7.73632C43.0909 9.70247 44.002 11.3376 45.2372 12.1439C45.751 12.4959 46.3591 12.6842 46.9817 12.6842C47.6044 12.6842 48.2125 12.4959 48.7262 12.1439C49.9559 11.3376 50.8726 9.70247 51.1096 7.73632C51.1512 7.39756 51.1717 7.05654 51.1711 6.71523C51.1711 6.54859 51.1711 6.37971 51.1554 6.22313L51.1744 6.20412C51.2126 5.1456 51.5613 4.12171 52.1769 3.26002C52.7926 2.39832 53.6481 1.7369 54.6369 1.35817C55.6256 0.979433 56.7039 0.90012 57.7374 1.13011C58.7709 1.3601 59.7138 1.88923 60.4489 2.65157C61.1839 3.41392 61.6785 4.37578 61.871 5.41733C62.0635 6.45888 61.9454 7.53408 61.5315 8.50898C61.1175 9.48387 60.426 10.3154 59.5431 10.8999C58.6602 11.4844 57.6248 11.7961 56.5661 11.7961C56.5102 11.7961 56.4543 11.7961 56.3995 11.7961L56.3626 11.833L56.3011 11.8397C53.9535 12.0723 52.0464 13.259 51.4036 14.8258C51.2514 15.194 51.1724 15.5883 51.1711 15.9867C51.1725 16.2835 51.2306 16.5773 51.3421 16.8524C52.0028 18.5221 54.4409 19.8251 56.3727 20.1159C56.4979 20.136 56.6209 20.1494 56.7405 20.1606L56.7617 20.1818C57.8055 20.2206 58.8157 20.5617 59.6695 21.1636C60.5233 21.7656 61.1841 22.6026 61.5717 23.5731C61.9592 24.5435 62.0568 25.6056 61.8527 26.6305C61.6485 27.6553 61.1513 28.5988 60.4215 29.3465C59.6918 30.0941 58.7607 30.6138 57.7414 30.8423C56.7222 31.0708 55.6585 30.9984 54.6796 30.6338C53.7007 30.2692 52.8486 29.6282 52.2268 28.7885C51.6049 27.9489 51.2402 26.9466 51.1767 25.9036L51.151 25.8778C51.161 25.7157 51.1666 25.5513 51.1666 25.3846C51.1667 25.0433 51.1461 24.7023 51.1051 24.3635C50.848 22.2386 49.8039 20.4995 48.4154 19.7781C47.9722 19.5428 47.4785 19.4188 46.9767 19.4169C46.3548 19.4218 45.7482 19.6101 45.2328 19.9582C43.9975 20.7645 43.0864 22.3985 42.8494 24.3646C42.8095 24.702 42.7905 25.0415 42.7924 25.3813V25.4036C42.7924 25.4596 42.7924 25.5155 42.7924 25.5703C42.7926 26.6298 42.4811 27.666 41.8968 28.5497C41.3126 29.4333 40.4813 30.1255 39.5066 30.5398C38.5318 30.9542 37.4568 31.0724 36.4154 30.8798C35.374 30.6873 34.4122 30.1923 33.65 29.4568C32.8878 28.7212 32.3587 27.7775 32.1288 26.7432C31.8989 25.7089 31.9783 24.6299 32.3571 23.6404C32.7359 22.651 33.3973 21.7949 34.259 21.1789C35.1207 20.5629 36.1445 20.2142 37.2029 20.1763L37.2152 20.1639C37.299 20.1639 37.3828 20.155 37.4667 20.1483C39.8557 19.9693 41.8265 18.7995 42.5219 17.2405C42.6935 16.8616 42.7855 16.4514 42.792 16.0354C42.7986 15.6195 42.7196 15.2066 42.5599 14.8225C41.8992 13.2131 39.9015 12.0019 37.4667 11.8196C37.3404 11.8095 37.2129 11.8028 37.0833 11.7995L37.0698 11.7849C35.698 11.7017 34.4097 11.0979 33.4678 10.0968C32.5258 9.09558 32.0013 7.77251 32.0013 6.3976Z" stroke="#5462E3" stroke-width="0.204444" stroke-miterlimit="10"/>
<path d="M6.39646 30.9729C4.98639 30.9664 3.63487 30.408 2.63116 29.4171C1.62746 28.4262 1.05131 27.0817 1.02603 25.6712C1.00076 24.2607 1.52836 22.8964 2.49592 21.8702C3.46348 20.8439 4.79413 20.2374 6.20307 20.1804L6.22207 20.1613C6.38417 20.1714 6.54738 20.177 6.71395 20.177C7.05511 20.1776 7.39598 20.1571 7.7346 20.1155C9.69987 19.8784 11.3342 18.9669 12.1403 17.7311C12.492 17.2171 12.6803 16.6087 12.6803 15.9858C12.6803 15.3629 12.492 14.7545 12.1403 14.2405C11.3342 13.0103 9.69987 12.0932 7.7346 11.8561C7.39598 11.8145 7.05511 11.794 6.71395 11.7946C6.54738 11.7946 6.37858 11.7946 6.22207 11.8103L6.20307 11.7913C5.14501 11.7531 4.12158 11.4043 3.26026 10.7883C2.39894 10.1724 1.73782 9.31648 1.35925 8.3273C0.98068 7.33812 0.901401 6.25937 1.13129 5.22543C1.36118 4.19149 1.89007 3.24808 2.65208 2.51272C3.41409 1.77736 4.37553 1.28257 5.41662 1.08998C6.45771 0.897383 7.53244 1.01551 8.50691 1.42963C9.48137 1.84376 10.3125 2.53558 10.8968 3.41891C11.481 4.30224 11.7926 5.33802 11.7926 6.39723C11.7926 6.45315 11.7926 6.50907 11.7926 6.56387L11.8295 6.60078L11.8362 6.66229C12.0687 9.01093 13.2548 10.9189 14.821 11.562C15.189 11.7143 15.5831 11.7933 15.9814 11.7946C16.2781 11.7932 16.5717 11.7351 16.8466 11.6235C18.5157 10.9625 19.818 8.5233 20.1087 6.59071C20.1288 6.46545 20.1422 6.34243 20.1534 6.22276L20.1746 6.20151C20.2134 5.15722 20.5543 4.14663 21.156 3.29243C21.7577 2.43823 22.5944 1.77714 23.5644 1.38944C24.5344 1.00174 25.596 0.904083 26.6204 1.10833C27.6448 1.31259 28.5879 1.80996 29.3352 2.54007C30.0826 3.27019 30.602 4.20164 30.8304 5.22136C31.0588 6.24108 30.9864 7.30521 30.622 8.28457C30.2576 9.26392 29.6168 10.1164 28.7775 10.7385C27.9382 11.3606 26.9365 11.7255 25.8938 11.789L25.8681 11.8147C25.706 11.8047 25.5417 11.7991 25.3751 11.7991C25.034 11.799 24.6931 11.8196 24.3545 11.8606C22.2305 12.1178 20.4921 13.1624 19.7711 14.5515C19.5358 14.9949 19.4119 15.4889 19.41 15.9908C19.4149 16.613 19.6031 17.2199 19.9511 17.7355C20.7571 18.9714 22.3903 19.8829 24.3556 20.12C24.6928 20.1598 25.0322 20.1789 25.3718 20.177L25.3941 20.177C25.45 20.177 25.5059 20.177 25.5607 20.177C26.6198 20.1768 27.6555 20.4884 28.5388 21.0729C29.4221 21.6575 30.1139 22.4891 30.5281 23.4643C30.9422 24.4394 31.0604 25.5149 30.8679 26.5568C30.6754 27.5987 30.1807 28.5608 29.4455 29.3234C28.7102 30.086 27.7669 30.6153 26.7331 30.8453C25.6993 31.0753 24.6207 30.9958 23.6317 30.6169C22.6427 30.2379 21.787 29.5762 21.1713 28.7141C20.5556 27.8521 20.207 26.8278 20.169 25.769L20.1567 25.7567C20.1567 25.6728 20.1478 25.5889 20.1411 25.505C19.9622 23.115 18.7929 21.1433 17.2345 20.4477C16.8558 20.2759 16.4458 20.1839 16.03 20.1773C15.6143 20.1708 15.2016 20.2499 14.8176 20.4096C13.209 21.0706 11.9983 23.0692 11.8161 25.505C11.806 25.6314 11.7993 25.7589 11.7959 25.8887L11.7814 25.9021C11.6983 27.2745 11.0947 28.5634 10.094 29.5057C9.09325 30.4481 7.77077 30.9728 6.39646 30.9729Z" stroke="url(#paint4_linear_1893_27775)" stroke-width="0.204444" stroke-miterlimit="10"/>
<defs>
<linearGradient id="paint0_linear_1893_27775" x1="77.9805" y1="93" x2="77.9805" y2="63.0284" gradientUnits="userSpaceOnUse">
<stop stop-color="#5462E3" stop-opacity="0"/>
<stop offset="1" stop-color="#5462E3"/>
</linearGradient>
<linearGradient id="paint1_linear_1893_27775" x1="46.9805" y1="93" x2="46.9805" y2="63.0284" gradientUnits="userSpaceOnUse">
<stop stop-color="#5462E3" stop-opacity="0"/>
<stop offset="1" stop-color="#5462E3"/>
</linearGradient>
<linearGradient id="paint2_linear_1893_27775" x1="30.9731" y1="63.0284" x2="0.965887" y2="93.0225" gradientUnits="userSpaceOnUse">
<stop stop-color="#5462E3"/>
<stop offset="0.597856" stop-color="#5462E3" stop-opacity="0"/>
</linearGradient>
<linearGradient id="paint3_linear_1893_27775" x1="30.9609" y1="47.001" x2="1.00257" y2="47.001" gradientUnits="userSpaceOnUse">
<stop stop-color="#5462E3"/>
<stop offset="1" stop-color="#5462E3" stop-opacity="0"/>
</linearGradient>
<linearGradient id="paint4_linear_1893_27775" x1="30.9609" y1="15.987" x2="1.00257" y2="15.987" gradientUnits="userSpaceOnUse">
<stop stop-color="#5462E3"/>
<stop offset="1" stop-color="#5462E3" stop-opacity="0"/>
</linearGradient>
</defs>
</svg>
