<svg width="227" height="151" viewBox="0 0 227 151" fill="none" xmlns="http://www.w3.org/2000/svg">
<path d="M74.3569 61.1466C74.341 64.5992 72.9743 67.9085 70.5492 70.3661C68.1242 72.8236 64.8334 74.2344 61.3814 74.2962C57.9293 74.3581 54.5901 73.0663 52.0785 70.6972C49.5669 68.3281 48.0824 65.07 47.9428 61.6202L47.8963 61.5736C47.9209 61.1767 47.9346 60.7771 47.9346 60.3693C47.9362 59.5339 47.8859 58.6993 47.7841 57.8702C47.2038 53.0582 44.9729 49.0564 41.9483 47.0828C40.6904 46.2215 39.2015 45.7605 37.6769 45.7605C36.1523 45.7605 34.6634 46.2215 33.4055 47.0828C30.3945 49.0564 28.15 53.0582 27.5697 57.8702C27.4679 58.6993 27.4176 59.5339 27.4192 60.3693C27.4192 60.7771 27.4192 61.1904 27.4575 61.5736L27.411 61.6202C27.3175 64.2108 26.4639 66.7167 24.9563 68.8257C23.4488 70.9346 21.3541 72.5534 18.9331 73.4804C16.5122 74.4073 13.872 74.6014 11.3415 74.0385C8.81099 73.4756 6.50204 72.1806 4.7023 70.3148C2.90255 68.449 1.69157 66.0949 1.22021 63.5458C0.748847 60.9967 1.03795 58.3652 2.0515 55.9792C3.06505 53.5932 4.75824 51.5581 6.92014 50.1276C9.08203 48.697 11.6171 47.9342 14.2094 47.9341C14.3463 47.9341 14.4831 47.9341 14.6173 47.9341L14.7076 47.8438L14.8581 47.8274C20.6063 47.258 25.276 44.3538 26.8499 40.519C27.2226 39.618 27.416 38.6529 27.4192 37.6778C27.4157 36.9514 27.2736 36.2323 27.0004 35.5592C25.3827 31.4725 19.4129 28.2837 14.683 27.572C14.3764 27.5227 14.0753 27.4899 13.7824 27.4625L13.7304 27.4105C11.1746 27.3157 8.7012 26.4809 6.61059 25.0076C4.51997 23.5343 2.90202 21.4858 1.95313 19.1107C1.00425 16.7356 0.765249 14.1362 1.26514 11.6279C1.76504 9.11961 2.98233 6.81039 4.76924 4.98056C6.55615 3.15072 8.83583 1.87898 11.3315 1.3197C13.8272 0.760424 16.4316 0.937672 18.8286 1.82993C21.2255 2.72218 23.3118 4.29106 24.8343 6.34612C26.3569 8.40119 27.2501 10.854 27.4055 13.4069L27.4685 13.4699C27.4438 13.8668 27.4301 14.2691 27.4301 14.677C27.43 15.5123 27.4803 16.3468 27.5807 17.1761C28.2103 22.3768 30.7668 26.6331 34.1664 28.3986C35.2516 28.9746 36.4606 29.278 37.6892 29.2827C39.2119 29.2707 40.6972 28.8099 41.9593 27.9579C44.9839 25.9844 47.2147 21.9853 47.795 17.1733C47.8926 16.3476 47.9393 15.5166 47.9346 14.6852V14.6304C47.9346 14.4936 47.9346 14.3567 47.9346 14.2226C47.9341 11.6295 48.6967 9.09353 50.1273 6.93075C51.558 4.76798 53.5934 3.074 55.98 2.05989C58.3666 1.04578 60.9989 0.756374 63.5488 1.22774C66.0987 1.6991 68.4536 2.91039 70.32 4.71068C72.1863 6.51097 73.4817 8.82065 74.0446 11.3519C74.6075 13.8832 74.4131 16.5242 73.4856 18.9458C72.5582 21.3674 70.9386 23.4625 68.8288 24.9702C66.7189 26.4778 64.2121 27.3312 61.6207 27.4242L61.5906 27.4543C61.3853 27.4543 61.18 27.4762 60.9747 27.4926C55.1253 27.9306 50.2996 30.7937 48.597 34.6094C48.1766 35.5367 47.9514 36.5406 47.9354 37.5586C47.9194 38.5767 48.1129 39.5871 48.5039 40.5272C50.1216 44.4661 55.013 47.4305 60.9747 47.8766C61.284 47.9013 61.596 47.9177 61.9135 47.9259L61.9464 47.9615C65.3052 48.1651 68.4598 49.6429 70.7661 52.0932C73.0725 54.5435 74.3568 57.7816 74.3569 61.1466Z" stroke="#F1F2F9" stroke-width="0.340878" stroke-miterlimit="10"/>
<path d="M150.263 61.1466C150.247 64.5992 148.881 67.9085 146.455 70.3661C144.03 72.8236 140.74 74.2344 137.288 74.2962C133.836 74.3581 130.496 73.0663 127.985 70.6972C125.473 68.3281 123.989 65.07 123.849 61.6202L123.803 61.5736C123.827 61.1767 123.841 60.7771 123.841 60.3693C123.842 59.5339 123.792 58.6993 123.69 57.8702C123.11 53.0582 120.879 49.0564 117.855 47.0828C116.597 46.2215 115.108 45.7605 113.583 45.7605C112.059 45.7605 110.57 46.2215 109.312 47.0828C106.301 49.0564 104.056 53.0582 103.476 57.8702C103.374 58.6993 103.324 59.5339 103.325 60.3693C103.325 60.7771 103.325 61.1904 103.364 61.5736L103.317 61.6202C103.224 64.2108 102.37 66.7167 100.863 68.8257C99.3551 70.9346 97.2604 72.5534 94.8394 73.4804C92.4184 74.4073 89.7782 74.6014 87.2477 74.0385C84.7172 73.4756 82.4083 72.1806 80.6085 70.3148C78.8088 68.449 77.5978 66.0949 77.1265 63.5458C76.6551 60.9967 76.9442 58.3652 77.9578 55.9792C78.9713 53.5932 80.6645 51.5581 82.8264 50.1276C84.9883 48.697 87.5233 47.9342 90.1157 47.9341C90.2525 47.9341 90.3894 47.9341 90.5235 47.9341L90.6138 47.8438L90.7644 47.8274C96.5125 47.258 101.182 44.3538 102.756 40.519C103.129 39.618 103.322 38.6529 103.325 37.6778C103.322 36.9514 103.18 36.2323 102.907 35.5592C101.289 31.4725 95.3191 28.2837 90.5892 27.572C90.2826 27.5227 89.9815 27.4899 89.6887 27.4625L89.6366 27.4105C87.0808 27.3157 84.6074 26.4809 82.5168 25.0076C80.4262 23.5343 78.8083 21.4858 77.8594 19.1107C76.9105 16.7356 76.6715 14.1362 77.1714 11.6279C77.6713 9.11961 78.8886 6.81039 80.6755 4.98056C82.4624 3.15072 84.7421 1.87898 87.2378 1.3197C89.7335 0.760424 92.3379 0.937672 94.7348 1.82993C97.1317 2.72218 99.2181 4.29106 100.741 6.34612C102.263 8.40119 103.156 10.854 103.312 13.4069L103.375 13.4699C103.35 13.8668 103.336 14.2691 103.336 14.677C103.336 15.5123 103.387 16.3468 103.487 17.1761C104.117 22.3768 106.673 26.6331 110.073 28.3986C111.158 28.9746 112.367 29.278 113.595 29.2827C115.118 29.2707 116.603 28.8099 117.866 27.9579C120.89 25.9844 123.121 21.9853 123.701 17.1733C123.799 16.3476 123.846 15.5166 123.841 14.6852V14.6304C123.841 14.4936 123.841 14.3567 123.841 14.2226C123.84 11.6295 124.603 9.09353 126.034 6.93075C127.464 4.76798 129.5 3.074 131.886 2.05989C134.273 1.04578 136.905 0.756374 139.455 1.22774C142.005 1.6991 144.36 2.91039 146.226 4.71068C148.093 6.51097 149.388 8.82065 149.951 11.3519C150.514 13.8832 150.319 16.5242 149.392 18.9458C148.464 21.3674 146.845 23.4625 144.735 24.9702C142.625 26.4778 140.118 27.3312 137.527 27.4242L137.497 27.4543C137.292 27.4543 137.086 27.4762 136.881 27.4926C131.032 27.9306 126.206 30.7937 124.503 34.6094C124.083 35.5367 123.858 36.5406 123.842 37.5586C123.826 38.5767 124.019 39.5871 124.41 40.5272C126.028 44.4661 130.919 47.4305 136.881 47.8766C137.19 47.9013 137.502 47.9177 137.82 47.9259L137.853 47.9615C141.211 48.1651 144.366 49.6429 146.672 52.0932C148.979 54.5435 150.263 57.7816 150.263 61.1466Z" stroke="#F1F2F9" stroke-width="0.340878" stroke-miterlimit="10"/>
<path d="M226.162 61.1466C226.146 64.5992 224.779 67.9085 222.354 70.3661C219.929 72.8236 216.638 74.2344 213.186 74.2962C209.734 74.3581 206.395 73.0663 203.883 70.6972C201.372 68.3281 199.887 65.07 199.747 61.6202L199.701 61.5736C199.726 61.1767 199.739 60.7771 199.739 60.3693C199.741 59.5339 199.691 58.6993 199.589 57.8702C199.008 53.0582 196.778 49.0564 193.753 47.0828C192.495 46.2215 191.006 45.7605 189.482 45.7605C187.957 45.7605 186.468 46.2215 185.21 47.0828C182.199 49.0564 179.955 53.0582 179.374 57.8702C179.273 58.6993 179.222 59.5339 179.224 60.3693C179.224 60.7771 179.224 61.1904 179.262 61.5736L179.216 61.6202C179.122 64.2108 178.269 66.7167 176.761 68.8257C175.254 70.9346 173.159 72.5534 170.738 73.4804C168.317 74.4073 165.677 74.6014 163.146 74.0385C160.616 73.4756 158.307 72.1806 156.507 70.3148C154.707 68.449 153.496 66.0949 153.025 63.5458C152.554 60.9967 152.843 58.3652 153.856 55.9792C154.87 53.5932 156.563 51.5581 158.725 50.1276C160.887 48.697 163.422 47.9342 166.014 47.9341C166.151 47.9341 166.288 47.9341 166.422 47.9341L166.512 47.8438L166.663 47.8274C172.411 47.258 177.081 44.3538 178.655 40.519C179.027 39.618 179.221 38.6529 179.224 37.6778C179.22 36.9514 179.078 36.2323 178.805 35.5592C177.187 31.4725 171.218 28.2837 166.488 27.572C166.181 27.5227 165.88 27.4899 165.587 27.4625L165.535 27.4105C162.979 27.3157 160.506 26.4809 158.415 25.0076C156.325 23.5343 154.707 21.4858 153.758 19.1107C152.809 16.7356 152.57 14.1362 153.07 11.6279C153.57 9.11961 154.787 6.81039 156.574 4.98056C158.361 3.15072 160.641 1.87898 163.136 1.3197C165.632 0.760424 168.236 0.937672 170.633 1.82993C173.03 2.72218 175.117 4.29106 176.639 6.34612C178.162 8.40119 179.055 10.854 179.21 13.4069L179.273 13.4699C179.249 13.8668 179.235 14.2691 179.235 14.677C179.235 15.5123 179.285 16.3468 179.385 17.1761C180.015 22.3768 182.571 26.6331 185.971 28.3986C187.056 28.9746 188.265 29.278 189.494 29.2827C191.017 29.2707 192.502 28.8099 193.764 27.9579C196.789 25.9844 199.019 21.9853 199.6 17.1733C199.697 16.3476 199.744 15.5166 199.739 14.6852V14.6304C199.739 14.4936 199.739 14.3567 199.739 14.2226C199.739 11.6295 200.501 9.09353 201.932 6.93075C203.363 4.76798 205.398 3.074 207.785 2.05989C210.171 1.04578 212.804 0.756374 215.353 1.22774C217.903 1.6991 220.258 2.91039 222.125 4.71068C223.991 6.51097 225.286 8.82065 225.849 11.3519C226.412 13.8832 226.218 16.5242 225.29 18.9458C224.363 21.3674 222.743 23.4625 220.633 24.9702C218.524 26.4778 216.017 27.3312 213.425 27.4242L213.395 27.4543C213.19 27.4543 212.985 27.4762 212.779 27.4926C206.93 27.9306 202.104 30.7937 200.402 34.6094C199.981 35.5367 199.756 36.5406 199.74 37.5586C199.724 38.5767 199.918 39.5871 200.309 40.5272C201.926 44.4661 206.818 47.4305 212.779 47.8766C213.089 47.9013 213.401 47.9177 213.718 47.9259L213.751 47.9615C217.11 48.1651 220.264 49.6429 222.571 52.0932C224.877 54.5435 226.161 57.7816 226.162 61.1466Z" stroke="#F1F2F9" stroke-width="0.340878" stroke-miterlimit="10"/>
<path d="M74.3569 137.05C74.341 140.503 72.9743 143.812 70.5492 146.27C68.1242 148.727 64.8334 150.138 61.3814 150.2C57.9293 150.262 54.5901 148.97 52.0785 146.601C49.5669 144.232 48.0824 140.974 47.9428 137.524L47.8963 137.477C47.9209 137.08 47.9346 136.681 47.9346 136.273C47.9362 135.437 47.8859 134.603 47.7841 133.774C47.2038 128.962 44.9729 124.96 41.9483 122.986C40.6904 122.125 39.2015 121.664 37.6769 121.664C36.1523 121.664 34.6634 122.125 33.4055 122.986C30.3945 124.96 28.15 128.962 27.5697 133.774C27.4679 134.603 27.4176 135.437 27.4192 136.273C27.4192 136.681 27.4192 137.094 27.4575 137.477L27.411 137.524C27.3175 140.114 26.4639 142.62 24.9563 144.729C23.4488 146.838 21.3541 148.457 18.9331 149.384C16.5122 150.311 13.872 150.505 11.3415 149.942C8.81099 149.379 6.50204 148.084 4.7023 146.218C2.90255 144.353 1.69157 141.998 1.22021 139.449C0.748847 136.9 1.03795 134.269 2.0515 131.883C3.06505 129.497 4.75824 127.462 6.92014 126.031C9.08203 124.601 11.6171 123.838 14.2094 123.838C14.3463 123.838 14.4831 123.838 14.6173 123.838L14.7076 123.747L14.8581 123.731C20.6063 123.162 25.276 120.257 26.8499 116.423C27.2226 115.522 27.416 114.556 27.4192 113.581C27.4157 112.855 27.2736 112.136 27.0004 111.463C25.3827 107.376 19.4129 104.187 14.683 103.476C14.3764 103.426 14.0753 103.393 13.7824 103.366L13.7304 103.314C11.1746 103.219 8.7012 102.384 6.61059 100.911C4.51997 99.4379 2.90202 97.3893 1.95313 95.0142C1.00425 92.6392 0.765249 90.0397 1.26514 87.5314C1.76504 85.0232 2.98233 82.714 4.76924 80.8841C6.55615 79.0543 8.83583 77.7825 11.3315 77.2233C13.8272 76.664 16.4316 76.8412 18.8286 77.7335C21.2255 78.6257 23.3118 80.1946 24.8343 82.2497C26.3569 84.3048 27.2501 86.7576 27.4055 89.3105L27.4685 89.3734C27.4438 89.7703 27.4301 90.1727 27.4301 90.5805C27.43 91.4158 27.4803 92.2504 27.5807 93.0796C28.2103 98.2803 30.7668 102.537 34.1664 104.302C35.2516 104.878 36.4606 105.182 37.6892 105.186C39.2119 105.174 40.6972 104.713 41.9593 103.862C44.9839 101.888 47.2147 97.8889 47.795 93.0769C47.8926 92.2512 47.9393 91.4202 47.9346 90.5888V90.534C47.9346 90.3972 47.9346 90.2603 47.9346 90.1262C47.9341 87.533 48.6967 84.9971 50.1273 82.8343C51.558 80.6715 53.5934 78.9776 55.98 77.9635C58.3666 76.9493 60.9989 76.6599 63.5488 77.1313C66.0987 77.6027 68.4536 78.814 70.32 80.6142C72.1863 82.4145 73.4817 84.7242 74.0446 87.2555C74.6075 89.7868 74.4131 92.4278 73.4856 94.8494C72.5582 97.271 70.9386 99.3661 68.8288 100.874C66.7189 102.381 64.2121 103.235 61.6207 103.328L61.5906 103.358C61.3853 103.358 61.18 103.38 60.9747 103.396C55.1253 103.834 50.2996 106.697 48.597 110.513C48.1766 111.44 47.9514 112.444 47.9354 113.462C47.9194 114.48 48.1129 115.491 48.5039 116.431C50.1216 120.37 55.013 123.334 60.9747 123.78C61.284 123.805 61.596 123.821 61.9135 123.829L61.9464 123.865C65.3052 124.069 68.4598 125.546 70.7661 127.997C73.0725 130.447 74.3568 133.685 74.3569 137.05Z" stroke="#F1F2F9" stroke-width="0.340878" stroke-miterlimit="10"/>
<path d="M226.162 137.05C226.146 140.503 224.779 143.812 222.354 146.27C219.929 148.727 216.638 150.138 213.186 150.2C209.734 150.262 206.395 148.97 203.883 146.601C201.372 144.232 199.887 140.974 199.747 137.524L199.701 137.477C199.726 137.08 199.739 136.681 199.739 136.273C199.741 135.437 199.691 134.603 199.589 133.774C199.008 128.962 196.778 124.96 193.753 122.986C192.495 122.125 191.006 121.664 189.482 121.664C187.957 121.664 186.468 122.125 185.21 122.986C182.199 124.96 179.955 128.962 179.374 133.774C179.273 134.603 179.222 135.437 179.224 136.273C179.224 136.681 179.224 137.094 179.262 137.477L179.216 137.524C179.122 140.114 178.269 142.62 176.761 144.729C175.254 146.838 173.159 148.457 170.738 149.384C168.317 150.311 165.677 150.505 163.146 149.942C160.616 149.379 158.307 148.084 156.507 146.218C154.707 144.353 153.496 141.998 153.025 139.449C152.554 136.9 152.843 134.269 153.856 131.883C154.87 129.497 156.563 127.462 158.725 126.031C160.887 124.601 163.422 123.838 166.014 123.838C166.151 123.838 166.288 123.838 166.422 123.838L166.512 123.747L166.663 123.731C172.411 123.162 177.081 120.257 178.655 116.423C179.027 115.522 179.221 114.556 179.224 113.581C179.22 112.855 179.078 112.136 178.805 111.463C177.187 107.376 171.218 104.187 166.488 103.476C166.181 103.426 165.88 103.393 165.587 103.366L165.535 103.314C162.979 103.219 160.506 102.384 158.415 100.911C156.325 99.4379 154.707 97.3893 153.758 95.0142C152.809 92.6392 152.57 90.0397 153.07 87.5314C153.57 85.0232 154.787 82.714 156.574 80.8841C158.361 79.0543 160.641 77.7825 163.136 77.2233C165.632 76.664 168.236 76.8412 170.633 77.7335C173.03 78.6257 175.117 80.1946 176.639 82.2497C178.162 84.3048 179.055 86.7576 179.21 89.3105L179.273 89.3734C179.249 89.7703 179.235 90.1727 179.235 90.5805C179.235 91.4158 179.285 92.2504 179.385 93.0796C180.015 98.2803 182.571 102.537 185.971 104.302C187.056 104.878 188.265 105.182 189.494 105.186C191.017 105.174 192.502 104.713 193.764 103.862C196.789 101.888 199.019 97.8889 199.6 93.0769C199.697 92.2512 199.744 91.4202 199.739 90.5888V90.534C199.739 90.3972 199.739 90.2603 199.739 90.1262C199.739 87.533 200.501 84.9971 201.932 82.8343C203.363 80.6715 205.398 78.9776 207.785 77.9635C210.171 76.9493 212.804 76.6599 215.353 77.1313C217.903 77.6027 220.258 78.814 222.125 80.6142C223.991 82.4145 225.286 84.7242 225.849 87.2555C226.412 89.7868 226.218 92.4278 225.29 94.8494C224.363 97.271 222.743 99.3661 220.633 100.874C218.524 102.381 216.017 103.235 213.425 103.328L213.395 103.358C213.19 103.358 212.985 103.38 212.779 103.396C206.93 103.834 202.104 106.697 200.402 110.513C199.981 111.44 199.756 112.444 199.74 113.462C199.724 114.48 199.918 115.491 200.309 116.431C201.926 120.37 206.818 123.334 212.779 123.78C213.089 123.805 213.401 123.821 213.718 123.829L213.751 123.865C217.11 124.069 220.264 125.546 222.571 127.997C224.877 130.447 226.161 133.685 226.162 137.05Z" stroke="#F1F2F9" stroke-width="0.340878" stroke-miterlimit="10"/>
</svg>
