<svg width="182" height="182" viewBox="0 0 182 182" fill="none" xmlns="http://www.w3.org/2000/svg">
<path d="M122.305 49.0821C122.318 51.8422 123.41 54.4876 125.348 56.4522C127.285 58.4169 129.915 59.5446 132.673 59.5941C135.432 59.6436 138.1 58.6108 140.107 56.717C142.114 54.8231 143.3 52.2185 143.412 49.4607L143.449 49.4235C143.429 49.1062 143.418 48.7867 143.418 48.4607C143.417 47.7929 143.457 47.1257 143.538 46.4629C144.002 42.6161 145.785 39.417 148.202 37.8393C149.207 37.1507 150.397 36.7822 151.615 36.7822C152.833 36.7822 154.023 37.1507 155.028 37.8393C157.434 39.417 159.227 42.6161 159.691 46.4629C159.772 47.1257 159.813 47.7929 159.811 48.4607C159.811 48.7867 159.811 49.1171 159.781 49.4235L159.818 49.4607C159.893 51.5317 160.575 53.5349 161.779 55.2209C162.984 56.9068 164.658 58.2009 166.592 58.9419C168.527 59.6829 170.636 59.838 172.658 59.3881C174.68 58.9381 176.525 57.9028 177.964 56.4113C179.402 54.9197 180.369 53.0378 180.746 51C181.123 48.9622 180.892 46.8586 180.082 44.9512C179.272 43.0437 177.919 41.4169 176.191 40.2733C174.464 39.1297 172.438 38.5199 170.367 38.5198C170.257 38.5198 170.148 38.5198 170.041 38.5198L169.969 38.4476L169.848 38.4345C165.255 37.9793 161.524 35.6577 160.266 32.5921C159.968 31.8718 159.814 31.1003 159.811 30.3208C159.814 29.74 159.928 29.1652 160.146 28.6271C161.439 25.3602 166.209 22.811 169.988 22.242C170.233 22.2027 170.474 22.1764 170.708 22.1545L170.749 22.1129C172.792 22.0371 174.768 21.3698 176.439 20.192C178.109 19.0142 179.402 17.3766 180.16 15.4779C180.918 13.5793 181.109 11.5012 180.71 9.49609C180.311 7.49093 179.338 5.64491 177.91 4.18211C176.482 2.71932 174.661 1.70267 172.666 1.25557C170.672 0.808479 168.591 0.950173 166.676 1.66345C164.76 2.37673 163.093 3.63092 161.877 5.27377C160.66 6.91662 159.946 8.87746 159.822 10.9183L159.772 10.9686C159.792 11.2859 159.803 11.6075 159.803 11.9336C159.803 12.6013 159.762 13.2685 159.682 13.9314C159.179 18.0889 157.136 21.4915 154.42 22.9029C153.553 23.3633 152.587 23.6059 151.605 23.6096C150.388 23.6 149.201 23.2317 148.193 22.5506C145.776 20.9729 143.993 17.776 143.53 13.9292C143.452 13.2691 143.414 12.6048 143.418 11.9401L143.418 11.8964C143.418 11.787 143.418 11.6776 143.418 11.5703C143.419 9.49736 142.809 7.47008 141.666 5.74113C140.523 4.01217 138.896 2.65798 136.989 1.84729C135.082 1.03659 132.979 0.805237 130.941 1.18205C128.904 1.55887 127.022 2.52719 125.531 3.96637C124.04 5.40554 123.004 7.25194 122.555 9.27549C122.105 11.299 122.26 13.4103 123.001 15.3461C123.742 17.282 125.037 18.9569 126.722 20.1621C128.408 21.3673 130.411 22.0496 132.482 22.1239L132.506 22.1479C132.67 22.1479 132.834 22.1654 132.998 22.1786C137.672 22.5287 141.528 24.8175 142.889 27.8678C143.225 28.6091 143.405 29.4117 143.418 30.2255C143.43 31.0393 143.276 31.8471 142.963 32.5986C141.671 35.7474 137.762 38.1172 132.998 38.4739C132.751 38.4936 132.502 38.5067 132.248 38.5132L132.222 38.5417C129.538 38.7045 127.017 39.8858 125.174 41.8446C123.331 43.8034 122.305 46.3921 122.305 49.0821Z" stroke="url(#paint0_linear_969_27571)" stroke-width="0.4" stroke-miterlimit="10"/>
<path d="M61.6567 49.0821C61.6694 51.8422 62.7615 54.4876 64.6992 56.4522C66.637 58.4169 69.2665 59.5446 72.0249 59.5941C74.7834 59.6436 77.4516 58.6108 79.4585 56.717C81.4654 54.8231 82.6516 52.2185 82.7632 49.4607L82.8004 49.4235C82.7807 49.1062 82.7697 48.7867 82.7697 48.4607C82.7685 47.7929 82.8087 47.1257 82.89 46.4629C83.3537 42.6161 85.1363 39.417 87.5532 37.8393C88.5583 37.1507 89.7481 36.7822 90.9663 36.7822C92.1845 36.7822 93.3743 37.1507 94.3794 37.8393C96.7854 39.417 98.5789 42.6161 99.0425 46.4629C99.1239 47.1257 99.1641 47.7929 99.1628 48.4607C99.1628 48.7867 99.1628 49.1171 99.1322 49.4235L99.1694 49.4607C99.2441 51.5317 99.9262 53.5349 101.131 55.2209C102.335 56.9068 104.009 58.2009 105.944 58.9419C107.878 59.6829 109.988 59.838 112.01 59.3881C114.032 58.9381 115.877 57.9028 117.315 56.4113C118.753 54.9197 119.721 53.0378 120.097 51C120.474 48.9622 120.243 46.8586 119.433 44.9512C118.623 43.0437 117.27 41.4169 115.543 40.2733C113.815 39.1297 111.79 38.5199 109.718 38.5198C109.609 38.5198 109.5 38.5198 109.392 38.5198L109.32 38.4476L109.2 38.4345C104.607 37.9793 100.875 35.6577 99.6178 32.5921C99.3199 31.8718 99.1654 31.1003 99.1628 30.3208C99.1656 29.74 99.2792 29.1652 99.4975 28.6271C100.79 25.3602 105.56 22.811 109.34 22.242C109.585 22.2027 109.825 22.1764 110.059 22.1545L110.101 22.1129C112.143 22.0371 114.12 21.3698 115.79 20.192C117.461 19.0142 118.754 17.3766 119.512 15.4779C120.27 13.5793 120.461 11.5012 120.062 9.49609C119.662 7.49093 118.689 5.64491 117.262 4.18211C115.834 2.71932 114.012 1.70267 112.018 1.25557C110.024 0.808479 107.943 0.950173 106.027 1.66345C104.112 2.37673 102.445 3.63092 101.228 5.27377C100.012 6.91662 99.298 8.87746 99.1738 10.9183L99.1235 10.9686C99.1432 11.2859 99.1541 11.6075 99.1541 11.9336C99.1542 12.6013 99.114 13.2685 99.0338 13.9314C98.5307 18.0889 96.4879 21.4915 93.7714 22.9029C92.9042 23.3633 91.9382 23.6059 90.9565 23.6096C89.7397 23.6 88.5529 23.2317 87.5444 22.5506C85.1276 20.9729 83.345 17.776 82.8813 13.9292C82.8033 13.2691 82.766 12.6048 82.7698 11.9401L82.7698 11.8964C82.7698 11.787 82.7698 11.6776 82.7698 11.5703C82.7701 9.49736 82.1608 7.47008 81.0176 5.74113C79.8744 4.01217 78.248 2.65798 76.341 1.84729C74.4339 1.03659 72.3306 0.805237 70.293 1.18205C68.2555 1.55887 66.3738 2.52719 64.8825 3.96637C63.3911 5.40554 62.3561 7.25194 61.9062 9.27549C61.4564 11.299 61.6118 13.4103 62.3529 15.3461C63.094 17.282 64.3881 18.9569 66.074 20.1621C67.7599 21.3673 69.763 22.0496 71.8337 22.1239L71.8578 22.1479C72.0218 22.1479 72.1859 22.1654 72.3499 22.1786C77.024 22.5287 80.88 24.8175 82.2404 27.8678C82.5763 28.6091 82.7563 29.4117 82.7691 30.2255C82.7819 31.0393 82.6273 31.8471 82.3148 32.5986C81.0222 35.7474 77.1136 38.1172 72.3499 38.4739C72.1028 38.4936 71.8534 38.5067 71.5997 38.5132L71.5735 38.5417C68.8895 38.7045 66.3688 39.8858 64.5259 41.8446C62.683 43.8034 61.6568 46.3921 61.6567 49.0821Z" stroke="url(#paint1_linear_969_27571)" stroke-width="0.4" stroke-miterlimit="10"/>
<path d="M1.00042 49.0821C1.01311 51.8422 2.10521 54.4876 4.04299 56.4522C5.98077 58.4169 8.61027 59.5446 11.3687 59.5941C14.1271 59.6436 16.7953 58.6108 18.8023 56.717C20.8092 54.8231 21.9954 52.2185 22.1069 49.4607L22.1441 49.4235C22.1244 49.1062 22.1135 48.7867 22.1135 48.4607C22.1123 47.7929 22.1524 47.1257 22.2338 46.4629C22.6975 42.6161 24.4801 39.417 26.8969 37.8393C27.9021 37.1507 29.0918 36.7822 30.31 36.7822C31.5283 36.7822 32.718 37.1507 33.7232 37.8393C36.1291 39.417 37.9226 42.6161 38.3863 46.4629C38.4677 47.1257 38.5078 47.7929 38.5066 48.4607C38.5066 48.7867 38.5066 49.1171 38.476 49.4235L38.5131 49.4607C38.5878 51.5317 39.27 53.5349 40.4746 55.2209C41.6792 56.9068 43.353 58.2009 45.2875 58.9419C47.222 59.6829 49.3317 59.838 51.3537 59.3881C53.3757 58.9381 55.2207 57.9028 56.6588 56.4113C58.0969 54.9197 59.0646 53.0378 59.4412 51C59.8179 48.9622 59.5869 46.8586 58.777 44.9512C57.9671 43.0437 56.6141 41.4169 54.8866 40.2733C53.1591 39.1297 51.1335 38.5199 49.062 38.5198C48.9527 38.5198 48.8433 38.5198 48.7361 38.5198L48.664 38.4476L48.5437 38.4345C43.9505 37.9793 40.2192 35.6577 38.9615 32.5921C38.6637 31.8718 38.5092 31.1003 38.5066 30.3208C38.5094 29.74 38.623 29.1652 38.8412 28.6271C40.1339 25.3602 44.9042 22.811 48.6836 22.242C48.9286 22.2027 49.1692 22.1764 49.4032 22.1545L49.4448 22.1129C51.4871 22.0371 53.4634 21.3698 55.134 20.192C56.8045 19.0142 58.0974 17.3766 58.8556 15.4779C59.6138 13.5793 59.8048 11.5012 59.4053 9.49609C59.0059 7.49093 58.0332 5.64491 56.6053 4.18211C55.1775 2.71932 53.3559 1.70267 51.3616 1.25557C49.3674 0.808479 47.2863 0.950173 45.3711 1.66345C43.4558 2.37673 41.7886 3.63092 40.5721 5.27377C39.3555 6.91662 38.6417 8.87746 38.5175 10.9183L38.4672 10.9686C38.4869 11.2859 38.4978 11.6075 38.4978 11.9336C38.4979 12.6013 38.4578 13.2685 38.3775 13.9314C37.8745 18.0889 35.8316 21.4915 33.1151 22.9029C32.248 23.3633 31.2819 23.6059 30.3002 23.6096C29.0835 23.6 27.8966 23.2317 26.8882 22.5506C24.4713 20.9729 22.6887 17.776 22.225 13.9292C22.147 13.2691 22.1098 12.6048 22.1135 11.9401L22.1135 11.8964C22.1135 11.787 22.1135 11.6776 22.1135 11.5703C22.1139 9.49736 21.5045 7.47008 20.3614 5.74113C19.2182 4.01217 17.5918 2.65798 15.6847 1.84729C13.7777 1.03659 11.6743 0.805237 9.63677 1.18205C7.59922 1.55887 5.71754 2.52719 4.2262 3.96637C2.73487 5.40554 1.69981 7.25194 1.25 9.27549C0.800188 11.299 0.955514 13.4103 1.69662 15.3461C2.43773 17.282 3.73186 18.9569 5.41774 20.1621C7.10363 21.3673 9.10674 22.0496 11.1775 22.1239L11.2015 22.1479C11.3656 22.1479 11.5296 22.1654 11.6937 22.1786C16.3677 22.5287 20.2238 24.8175 21.5842 27.8678C21.9201 28.6091 22.1 29.4117 22.1128 30.2255C22.1256 31.0393 21.971 31.8471 21.6586 32.5986C20.3659 35.7474 16.4574 38.1172 11.6937 38.4739C11.4465 38.4936 11.1972 38.5067 10.9434 38.5132L10.9172 38.5417C8.23327 38.7045 5.7126 39.8858 3.86967 41.8446C2.02674 43.8034 1.0005 46.3921 1.00042 49.0821Z" stroke="url(#paint2_linear_969_27571)" stroke-width="0.4" stroke-miterlimit="10"/>
<path d="M122.305 109.762C122.318 112.522 123.41 115.167 125.348 117.132C127.285 119.097 129.915 120.224 132.673 120.274C135.432 120.323 138.1 119.291 140.107 117.397C142.114 115.503 143.3 112.898 143.412 110.14L143.449 110.103C143.429 109.786 143.418 109.466 143.418 109.14C143.417 108.473 143.457 107.805 143.538 107.143C144.002 103.296 145.785 100.097 148.202 98.519C149.207 97.8304 150.397 97.4619 151.615 97.4619C152.833 97.4619 154.023 97.8304 155.028 98.519C157.434 100.097 159.227 103.296 159.691 107.143C159.772 107.805 159.813 108.473 159.811 109.14C159.811 109.466 159.811 109.797 159.781 110.103L159.818 110.14C159.893 112.211 160.575 114.215 161.779 115.901C162.984 117.586 164.658 118.881 166.592 119.622C168.527 120.363 170.636 120.518 172.658 120.068C174.68 119.618 176.525 118.583 177.964 117.091C179.402 115.599 180.369 113.718 180.746 111.68C181.123 109.642 180.892 107.538 180.082 105.631C179.272 103.723 177.919 102.097 176.191 100.953C174.464 99.8094 172.438 99.1996 170.367 99.1995C170.257 99.1995 170.148 99.1995 170.041 99.1995L169.969 99.1273L169.848 99.1142C165.255 98.659 161.524 96.3374 160.266 93.2718C159.968 92.5515 159.814 91.7799 159.811 91.0004C159.814 90.4197 159.928 89.8449 160.146 89.3068C161.439 86.0399 166.209 83.4906 169.988 82.9217C170.233 82.8823 170.474 82.8561 170.708 82.8342L170.749 82.7926C172.792 82.7168 174.768 82.0495 176.439 80.8717C178.109 79.6939 179.402 78.0563 180.16 76.1576C180.918 74.259 181.109 72.1809 180.71 70.1758C180.311 68.1706 179.338 66.3246 177.91 64.8618C176.482 63.399 174.661 62.3824 172.666 61.9353C170.672 61.4882 168.591 61.6299 166.676 62.3431C164.76 63.0564 163.093 64.3106 161.877 65.9535C160.66 67.5963 159.946 69.5572 159.822 71.598L159.772 71.6483C159.792 71.9656 159.803 72.2872 159.803 72.6133C159.803 73.281 159.762 73.9482 159.682 74.6111C159.179 78.7686 157.136 82.1712 154.42 83.5826C153.553 84.043 152.587 84.2856 151.605 84.2893C150.388 84.2797 149.201 83.9113 148.193 83.2303C145.776 81.6526 143.993 78.4557 143.53 74.6089C143.452 73.9488 143.414 73.2845 143.418 72.6198L143.418 72.5761C143.418 72.4667 143.418 72.3572 143.418 72.25C143.419 70.177 142.809 68.1498 141.666 66.4208C140.523 64.6919 138.896 63.3377 136.989 62.527C135.082 61.7163 132.979 61.4849 130.941 61.8617C128.904 62.2386 127.022 63.2069 125.531 64.6461C124.04 66.0852 123.004 67.9316 122.555 69.9552C122.105 71.9787 122.26 74.09 123.001 76.0258C123.742 77.9617 125.037 79.6366 126.722 80.8418C128.408 82.047 130.411 82.7293 132.482 82.8036L132.506 82.8276C132.67 82.8276 132.834 82.8451 132.998 82.8583C137.672 83.2084 141.528 85.4972 142.889 88.5475C143.225 89.2888 143.405 90.0913 143.418 90.9052C143.43 91.719 143.276 92.5268 142.963 93.2783C141.671 96.4271 137.762 98.7969 132.998 99.1536C132.751 99.1732 132.502 99.1864 132.248 99.1929L132.222 99.2214C129.538 99.3841 127.017 100.565 125.174 102.524C123.331 104.483 122.305 107.072 122.305 109.762Z" stroke="#5462E3" stroke-width="0.4" stroke-miterlimit="10"/>
<path d="M61.6567 109.762C61.6694 112.522 62.7615 115.167 64.6992 117.132C66.637 119.097 69.2665 120.224 72.0249 120.274C74.7834 120.323 77.4516 119.291 79.4585 117.397C81.4654 115.503 82.6516 112.898 82.7632 110.14L82.8004 110.103C82.7807 109.786 82.7697 109.466 82.7697 109.14C82.7685 108.473 82.8087 107.805 82.89 107.143C83.3537 103.296 85.1363 100.097 87.5532 98.519C88.5583 97.8304 89.7481 97.4619 90.9663 97.4619C92.1845 97.4619 93.3743 97.8304 94.3794 98.519C96.7854 100.097 98.5789 103.296 99.0425 107.143C99.1239 107.805 99.1641 108.473 99.1628 109.14C99.1628 109.466 99.1628 109.797 99.1322 110.103L99.1694 110.14C99.2441 112.211 99.9262 114.215 101.131 115.901C102.335 117.586 104.009 118.881 105.944 119.622C107.878 120.363 109.988 120.518 112.01 120.068C114.032 119.618 115.877 118.583 117.315 117.091C118.753 115.599 119.721 113.718 120.097 111.68C120.474 109.642 120.243 107.538 119.433 105.631C118.623 103.723 117.27 102.097 115.543 100.953C113.815 99.8094 111.79 99.1996 109.718 99.1995C109.609 99.1995 109.5 99.1995 109.392 99.1995L109.32 99.1273L109.2 99.1142C104.607 98.659 100.875 96.3374 99.6178 93.2718C99.3199 92.5515 99.1654 91.7799 99.1628 91.0004C99.1656 90.4197 99.2792 89.8449 99.4975 89.3068C100.79 86.0399 105.56 83.4906 109.34 82.9217C109.585 82.8823 109.825 82.8561 110.059 82.8342L110.101 82.7926C112.143 82.7168 114.12 82.0495 115.79 80.8717C117.461 79.6939 118.754 78.0563 119.512 76.1576C120.27 74.259 120.461 72.1809 120.062 70.1758C119.662 68.1706 118.689 66.3246 117.262 64.8618C115.834 63.399 114.012 62.3824 112.018 61.9353C110.024 61.4882 107.943 61.6299 106.027 62.3431C104.112 63.0564 102.445 64.3106 101.228 65.9535C100.012 67.5963 99.298 69.5572 99.1738 71.598L99.1235 71.6483C99.1432 71.9656 99.1541 72.2872 99.1541 72.6133C99.1542 73.281 99.114 73.9482 99.0338 74.6111C98.5307 78.7686 96.4879 82.1712 93.7714 83.5826C92.9042 84.043 91.9382 84.2856 90.9565 84.2893C89.7397 84.2797 88.5529 83.9113 87.5444 83.2303C85.1276 81.6526 83.345 78.4557 82.8813 74.6089C82.8033 73.9488 82.766 73.2845 82.7698 72.6198L82.7698 72.5761C82.7698 72.4667 82.7698 72.3572 82.7698 72.25C82.7701 70.177 82.1608 68.1498 81.0176 66.4208C79.8744 64.6919 78.248 63.3377 76.341 62.527C74.4339 61.7163 72.3306 61.4849 70.293 61.8617C68.2555 62.2386 66.3738 63.2069 64.8825 64.6461C63.3911 66.0852 62.3561 67.9316 61.9062 69.9552C61.4564 71.9787 61.6118 74.09 62.3529 76.0258C63.094 77.9617 64.3881 79.6366 66.074 80.8418C67.7599 82.047 69.763 82.7293 71.8337 82.8036L71.8578 82.8276C72.0218 82.8276 72.1859 82.8451 72.3499 82.8583C77.024 83.2084 80.88 85.4972 82.2404 88.5475C82.5763 89.2888 82.7563 90.0913 82.7691 90.9052C82.7819 91.719 82.6273 92.5268 82.3148 93.2783C81.0222 96.4271 77.1136 98.7969 72.3499 99.1536C72.1028 99.1732 71.8534 99.1864 71.5997 99.1929L71.5735 99.2214C68.8895 99.3841 66.3688 100.565 64.5259 102.524C62.683 104.483 61.6568 107.072 61.6567 109.762Z" stroke="#5462E3" stroke-width="0.4" stroke-miterlimit="10"/>
<path d="M11.5563 61.6777C8.79742 61.6904 6.15314 62.783 4.18937 64.7216C2.2256 66.6603 1.09835 69.2909 1.0489 72.0506C0.999448 74.8102 2.03172 77.4796 3.92477 79.4874C5.81783 81.4952 8.42126 82.6819 11.1779 82.7935L11.2151 82.8307C11.5322 82.811 11.8515 82.8001 12.1774 82.8001C12.8449 82.7988 13.5118 82.839 14.1743 82.9204C18.0195 83.3843 21.2171 85.1677 22.7941 87.5856C23.4824 88.5912 23.8507 89.7815 23.8507 91.0003C23.8507 92.219 23.4824 93.4093 22.7941 94.4149C21.2171 96.8219 18.0195 98.6162 14.1743 99.0801C13.5118 99.1615 12.8449 99.2017 12.1774 99.2004C11.8515 99.2004 11.5213 99.2004 11.2151 99.1698L11.1779 99.207C9.10777 99.2817 7.10539 99.9641 5.42021 101.169C3.73502 102.374 2.44152 104.049 1.70084 105.984C0.96016 107.92 0.80505 110.03 1.25483 112.053C1.70462 114.076 2.73941 115.922 4.23029 117.361C5.72118 118.799 7.60226 119.767 9.63918 120.144C11.6761 120.521 13.7788 120.29 15.6854 119.48C17.592 118.669 19.2181 117.316 20.3612 115.588C21.5043 113.859 22.1138 111.833 22.1139 109.761C22.1139 109.651 22.1139 109.542 22.1139 109.434L22.1861 109.362L22.1992 109.242C22.6541 104.647 24.9748 100.914 28.039 99.6556C28.759 99.3576 29.5302 99.203 30.3093 99.2004C30.8898 99.2032 31.4644 99.3168 32.0022 99.5352C35.2677 100.828 37.8158 105.601 38.3845 109.382C38.4239 109.627 38.4501 109.868 38.472 110.102L38.5135 110.143C38.5893 112.187 39.2563 114.164 40.4336 115.835C41.6109 117.506 43.2478 118.8 45.1456 119.558C47.0434 120.317 49.1206 120.508 51.1248 120.108C53.1291 119.709 54.9743 118.736 56.4365 117.307C57.8986 115.879 58.9148 114.056 59.3617 112.061C59.8086 110.066 59.667 107.984 58.954 106.068C58.2411 104.152 56.9874 102.484 55.3453 101.267C53.7032 100.05 51.7432 99.3356 49.7033 99.2114L49.653 99.161C49.3358 99.1807 49.0143 99.1917 48.6884 99.1917C48.021 99.1917 47.3541 99.1516 46.6915 99.0713C42.5358 98.568 39.1347 96.5243 37.724 93.8066C37.2637 92.939 37.0213 91.9726 37.0175 90.9904C37.0271 89.7732 37.3953 88.5858 38.0761 87.5769C39.6531 85.1589 42.8486 83.3756 46.6937 82.9117C47.3535 82.8336 48.0175 82.7964 48.6819 82.8001L48.7256 82.8001C48.835 82.8001 48.9443 82.8001 49.0515 82.8001C51.1236 82.8005 53.15 82.1909 54.8781 81.0472C56.6063 79.9035 57.9599 78.2764 58.7703 76.3685C59.5806 74.4606 59.8119 72.3563 59.4352 70.3179C59.0586 68.2794 58.0907 66.3969 56.6521 64.9049C55.2136 63.4129 53.368 62.3774 51.3453 61.9274C49.3227 61.4774 47.2124 61.6328 45.2774 62.3742C43.3424 63.1157 41.6682 64.4104 40.4635 66.097C39.2588 67.7836 38.5769 69.7876 38.5026 71.8593L38.4786 71.8833C38.4786 72.0474 38.4611 72.2116 38.4479 72.3757C38.098 77.0518 35.8102 80.9095 32.7612 82.2706C32.0202 82.6066 31.218 82.7866 30.4046 82.7994C29.5911 82.8122 28.7837 82.6575 28.0325 82.345C24.8851 81.0518 22.5163 77.1415 22.1598 72.3757C22.1401 72.1284 22.127 71.8789 22.1205 71.6251L22.092 71.5989C21.9293 68.9137 20.7485 66.392 18.7905 64.5482C16.8326 62.7045 14.2451 61.6778 11.5563 61.6777Z" stroke="url(#paint3_linear_969_27571)" stroke-width="0.4" stroke-miterlimit="10"/>
<path d="M122.305 170.44C122.318 173.2 123.41 175.845 125.348 177.81C127.285 179.774 129.915 180.902 132.673 180.952C135.432 181.001 138.1 179.968 140.107 178.074C142.114 176.18 143.3 173.576 143.412 170.818L143.449 170.781C143.429 170.464 143.418 170.144 143.418 169.818C143.417 169.15 143.457 168.483 143.538 167.82C144.002 163.973 145.785 160.774 148.202 159.197C149.207 158.508 150.397 158.14 151.615 158.14C152.833 158.14 154.023 158.508 155.028 159.197C157.434 160.774 159.227 163.973 159.691 167.82C159.772 168.483 159.813 169.15 159.811 169.818C159.811 170.144 159.811 170.475 159.781 170.781L159.818 170.818C159.893 172.889 160.575 174.892 161.779 176.578C162.984 178.264 164.658 179.558 166.592 180.299C168.527 181.04 170.636 181.195 172.658 180.745C174.68 180.296 176.525 179.26 177.964 177.769C179.402 176.277 180.369 174.395 180.746 172.357C181.123 170.32 180.892 168.216 180.082 166.309C179.272 164.401 177.919 162.774 176.191 161.631C174.464 160.487 172.438 159.877 170.367 159.877C170.257 159.877 170.148 159.877 170.041 159.877L169.969 159.805L169.848 159.792C165.255 159.337 161.524 157.015 160.266 153.949C159.968 153.229 159.814 152.458 159.811 151.678C159.814 151.097 159.928 150.523 160.146 149.985C161.439 146.718 166.209 144.168 169.988 143.599C170.233 143.56 170.474 143.534 170.708 143.512L170.749 143.47C172.792 143.395 174.768 142.727 176.439 141.549C178.109 140.372 179.402 138.734 180.16 136.835C180.918 134.937 181.109 132.859 180.71 130.854C180.311 128.848 179.338 127.002 177.91 125.54C176.482 124.077 174.661 123.06 172.666 122.613C170.672 122.166 168.591 122.308 166.676 123.021C164.76 123.734 163.093 124.988 161.877 126.631C160.66 128.274 159.946 130.235 159.822 132.276L159.772 132.326C159.792 132.643 159.803 132.965 159.803 133.291C159.803 133.959 159.762 134.626 159.682 135.289C159.179 139.446 157.136 142.849 154.42 144.26C153.553 144.721 152.587 144.963 151.605 144.967C150.388 144.957 149.201 144.589 148.193 143.908C145.776 142.33 143.993 139.133 143.53 135.287C143.452 134.627 143.414 133.962 143.418 133.298L143.418 133.254C143.418 133.144 143.418 133.035 143.418 132.928C143.419 130.855 142.809 128.828 141.666 127.099C140.523 125.37 138.896 124.015 136.989 123.205C135.082 122.394 132.979 122.163 130.941 122.539C128.904 122.916 127.022 123.885 125.531 125.324C124.04 126.763 123.004 128.609 122.555 130.633C122.105 132.656 122.26 134.768 123.001 136.704C123.742 138.639 125.037 140.314 126.722 141.52C128.408 142.725 130.411 143.407 132.482 143.481L132.506 143.505C132.67 143.505 132.834 143.523 132.998 143.536C137.672 143.886 141.528 146.175 142.889 149.225C143.225 149.967 143.405 150.769 143.418 151.583C143.43 152.397 143.276 153.205 142.963 153.956C141.671 157.105 137.762 159.475 132.998 159.831C132.751 159.851 132.502 159.864 132.248 159.871L132.222 159.899C129.538 160.062 127.017 161.243 125.174 163.202C123.331 165.161 122.305 167.749 122.305 170.44Z" stroke="#5462E3" stroke-width="0.4" stroke-miterlimit="10"/>
<path d="M61.6567 170.44C61.6694 173.2 62.7615 175.845 64.6992 177.81C66.637 179.774 69.2665 180.902 72.0249 180.952C74.7834 181.001 77.4516 179.968 79.4585 178.074C81.4654 176.18 82.6516 173.576 82.7632 170.818L82.8004 170.781C82.7807 170.464 82.7697 170.144 82.7697 169.818C82.7685 169.15 82.8087 168.483 82.89 167.82C83.3537 163.973 85.1363 160.774 87.5532 159.197C88.5583 158.508 89.7481 158.14 90.9663 158.14C92.1845 158.14 93.3743 158.508 94.3794 159.197C96.7854 160.774 98.5789 163.973 99.0425 167.82C99.1239 168.483 99.1641 169.15 99.1628 169.818C99.1628 170.144 99.1628 170.475 99.1322 170.781L99.1694 170.818C99.2441 172.889 99.9262 174.892 101.131 176.578C102.335 178.264 104.009 179.558 105.944 180.299C107.878 181.04 109.988 181.195 112.01 180.745C114.032 180.296 115.877 179.26 117.315 177.769C118.753 176.277 119.721 174.395 120.097 172.357C120.474 170.32 120.243 168.216 119.433 166.309C118.623 164.401 117.27 162.774 115.543 161.631C113.815 160.487 111.79 159.877 109.718 159.877C109.609 159.877 109.5 159.877 109.392 159.877L109.32 159.805L109.2 159.792C104.607 159.337 100.875 157.015 99.6178 153.949C99.3199 153.229 99.1654 152.458 99.1628 151.678C99.1656 151.097 99.2792 150.523 99.4975 149.985C100.79 146.718 105.56 144.168 109.34 143.599C109.585 143.56 109.825 143.534 110.059 143.512L110.101 143.47C112.143 143.395 114.12 142.727 115.79 141.549C117.461 140.372 118.754 138.734 119.512 136.835C120.27 134.937 120.461 132.859 120.062 130.854C119.662 128.848 118.689 127.002 117.262 125.54C115.834 124.077 114.012 123.06 112.018 122.613C110.024 122.166 107.943 122.308 106.027 123.021C104.112 123.734 102.445 124.988 101.228 126.631C100.012 128.274 99.298 130.235 99.1738 132.276L99.1235 132.326C99.1432 132.643 99.1541 132.965 99.1541 133.291C99.1542 133.959 99.114 134.626 99.0338 135.289C98.5307 139.446 96.4879 142.849 93.7714 144.26C92.9042 144.721 91.9382 144.963 90.9565 144.967C89.7397 144.957 88.5529 144.589 87.5444 143.908C85.1276 142.33 83.345 139.133 82.8813 135.287C82.8033 134.627 82.766 133.962 82.7698 133.298L82.7698 133.254C82.7698 133.144 82.7698 133.035 82.7698 132.928C82.7701 130.855 82.1608 128.828 81.0176 127.099C79.8744 125.37 78.248 124.015 76.341 123.205C74.4339 122.394 72.3306 122.163 70.293 122.539C68.2555 122.916 66.3738 123.885 64.8825 125.324C63.3911 126.763 62.3561 128.609 61.9062 130.633C61.4564 132.656 61.6118 134.768 62.3529 136.704C63.094 138.639 64.3881 140.314 66.074 141.52C67.7599 142.725 69.763 143.407 71.8337 143.481L71.8578 143.505C72.0218 143.505 72.1859 143.523 72.3499 143.536C77.024 143.886 80.88 146.175 82.2404 149.225C82.5763 149.967 82.7563 150.769 82.7691 151.583C82.7819 152.397 82.6273 153.205 82.3148 153.956C81.0222 157.105 77.1136 159.475 72.3499 159.831C72.1028 159.851 71.8534 159.864 71.5997 159.871L71.5735 159.899C68.8895 160.062 66.3688 161.243 64.5259 163.202C62.683 165.161 61.6568 167.749 61.6567 170.44Z" stroke="#5462E3" stroke-width="0.4" stroke-miterlimit="10"/>
<path d="M11.5563 122.357C8.79742 122.37 6.15314 123.463 4.18937 125.401C2.2256 127.34 1.09835 129.971 1.0489 132.73C0.999448 135.49 2.03172 138.159 3.92477 140.167C5.81783 142.175 8.42126 143.362 11.1779 143.473L11.2151 143.51C11.5322 143.491 11.8515 143.48 12.1774 143.48C12.8449 143.479 13.5118 143.519 14.1743 143.6C18.0195 144.064 21.2171 145.847 22.7941 148.265C23.4824 149.271 23.8507 150.461 23.8507 151.68C23.8507 152.899 23.4824 154.089 22.7941 155.095C21.2171 157.502 18.0195 159.296 14.1743 159.76C13.5118 159.841 12.8449 159.881 12.1774 159.88C11.8515 159.88 11.5213 159.88 11.2151 159.849L11.1779 159.887C9.10777 159.961 7.10539 160.644 5.42021 161.849C3.73502 163.054 2.44152 164.729 1.70084 166.664C0.96016 168.599 0.80505 170.71 1.25483 172.733C1.70462 174.756 2.73941 176.602 4.23029 178.04C5.72118 179.479 7.60226 180.447 9.63918 180.824C11.6761 181.201 13.7788 180.97 15.6854 180.159C17.592 179.349 19.2181 177.996 20.3612 176.267C21.5043 174.539 22.1138 172.513 22.1139 170.44C22.1139 170.331 22.1139 170.221 22.1139 170.114L22.1861 170.042L22.1992 169.922C22.6541 165.326 24.9748 161.593 28.039 160.335C28.759 160.037 29.5302 159.883 30.3093 159.88C30.8898 159.883 31.4644 159.997 32.0022 160.215C35.2677 161.508 37.8158 166.28 38.3845 170.062C38.4239 170.307 38.4501 170.547 38.472 170.782L38.5135 170.823C38.5893 172.866 39.2563 174.844 40.4336 176.515C41.6109 178.186 43.2478 179.479 45.1456 180.238C47.0434 180.997 49.1206 181.188 51.1248 180.788C53.1291 180.388 54.9743 179.415 56.4365 177.987C57.8986 176.558 58.9148 174.736 59.3617 172.741C59.8086 170.746 59.667 168.664 58.954 166.748C58.2411 164.831 56.9874 163.164 55.3453 161.946C53.7032 160.729 51.7432 160.015 49.7033 159.891L49.653 159.841C49.3358 159.86 49.0143 159.871 48.6884 159.871C48.021 159.871 47.3541 159.831 46.6915 159.751C42.5358 159.248 39.1347 157.204 37.724 154.486C37.2637 153.619 37.0213 152.652 37.0175 151.67C37.0271 150.453 37.3953 149.265 38.0761 148.257C39.6531 145.839 42.8486 144.055 46.6937 143.591C47.3535 143.513 48.0175 143.476 48.6819 143.48L48.7256 143.48C48.835 143.48 48.9443 143.48 49.0515 143.48C51.1236 143.48 53.15 142.871 54.8781 141.727C56.6063 140.583 57.9599 138.956 58.7703 137.048C59.5806 135.14 59.8119 133.036 59.4352 130.998C59.0586 128.959 58.0907 127.077 56.6521 125.585C55.2136 124.093 53.368 123.057 51.3453 122.607C49.3227 122.157 47.2124 122.312 45.2774 123.054C43.3424 123.795 41.6682 125.09 40.4635 126.777C39.2588 128.463 38.5769 130.467 38.5026 132.539L38.4786 132.563C38.4786 132.727 38.4611 132.891 38.4479 133.055C38.098 137.731 35.8102 141.589 32.7612 142.95C32.0202 143.286 31.218 143.466 30.4046 143.479C29.5911 143.492 28.7837 143.337 28.0325 143.025C24.8851 141.731 22.5163 137.821 22.1598 133.055C22.1401 132.808 22.127 132.559 22.1205 132.305L22.092 132.279C21.9293 129.593 20.7485 127.072 18.7905 125.228C16.8326 123.384 14.2451 122.357 11.5563 122.357Z" stroke="url(#paint4_linear_969_27571)" stroke-width="0.4" stroke-miterlimit="10"/>
<defs>
<linearGradient id="paint0_linear_969_27571" x1="151.612" y1="0.999997" x2="151.612" y2="59.64" gradientUnits="userSpaceOnUse">
<stop stop-color="#5462E3" stop-opacity="0"/>
<stop offset="1" stop-color="#5462E3"/>
</linearGradient>
<linearGradient id="paint1_linear_969_27571" x1="90.964" y1="0.999997" x2="90.964" y2="59.64" gradientUnits="userSpaceOnUse">
<stop stop-color="#5462E3" stop-opacity="0"/>
<stop offset="1" stop-color="#5462E3"/>
</linearGradient>
<linearGradient id="paint2_linear_969_27571" x1="59.6411" y1="59.64" x2="0.931219" y2="0.956021" gradientUnits="userSpaceOnUse">
<stop stop-color="#5462E3"/>
<stop offset="0.655" stop-color="#5462E3" stop-opacity="0"/>
</linearGradient>
<linearGradient id="paint3_linear_969_27571" x1="59.6172" y1="90.9979" x2="1.00299" y2="90.9979" gradientUnits="userSpaceOnUse">
<stop stop-color="#5462E3"/>
<stop offset="1" stop-color="#5462E3" stop-opacity="0"/>
</linearGradient>
<linearGradient id="paint4_linear_969_27571" x1="59.6172" y1="151.678" x2="1.00299" y2="151.678" gradientUnits="userSpaceOnUse">
<stop stop-color="#5462E3"/>
<stop offset="1" stop-color="#5462E3" stop-opacity="0"/>
</linearGradient>
</defs>
</svg>
