<svg width="182" height="182" viewBox="0 0 182 182" fill="none" xmlns="http://www.w3.org/2000/svg">
<path d="M59.6168 132.918C59.6041 130.158 58.512 127.512 56.5742 125.548C54.6364 123.583 52.0069 122.455 49.2485 122.406C46.4901 122.356 43.8218 123.389 41.8149 125.283C39.808 127.177 38.6218 129.782 38.5102 132.539L38.4731 132.577C38.4927 132.894 38.5037 133.213 38.5037 133.539C38.5049 134.207 38.4648 134.874 38.3834 135.537C37.9197 139.384 36.1371 142.583 33.7203 144.161C32.7151 144.849 31.5254 145.218 30.3071 145.218C29.0889 145.218 27.8992 144.849 26.894 144.161C24.4881 142.583 22.6946 139.384 22.2309 135.537C22.1495 134.874 22.1093 134.207 22.1106 133.539C22.1106 133.213 22.1106 132.883 22.1412 132.577L22.104 132.539C22.0293 130.468 21.3472 128.465 20.1426 126.779C18.938 125.093 17.2642 123.799 15.3297 123.058C13.3952 122.317 11.2855 122.162 9.2635 122.612C7.24147 123.062 5.39648 124.097 3.95837 125.589C2.52026 127.08 1.5526 128.962 1.17596 131C0.799313 133.038 1.03033 135.141 1.84022 137.049C2.65011 138.956 4.00307 140.583 5.73056 141.727C7.45805 142.87 9.4837 143.48 11.5551 143.48C11.6645 143.48 11.7739 143.48 11.881 143.48L11.9532 143.552L12.0735 143.566C16.6666 144.021 20.398 146.342 21.6557 149.408C21.9535 150.128 22.108 150.9 22.1106 151.679C22.1078 152.26 21.9942 152.835 21.776 153.373C20.4833 156.64 15.713 159.189 11.9335 159.758C11.6886 159.797 11.448 159.824 11.2139 159.845L11.1724 159.887C9.13011 159.963 7.15374 160.63 5.48321 161.808C3.81268 162.986 2.51983 164.623 1.76161 166.522C1.0034 168.421 0.812419 170.499 1.21187 172.504C1.61131 174.509 2.584 176.355 4.01186 177.818C5.43971 179.281 7.26132 180.297 9.25555 180.744C11.2498 181.192 13.3308 181.05 15.2461 180.337C17.1614 179.623 18.8285 178.369 20.0451 176.726C21.2617 175.083 21.9754 173.123 22.0997 171.082L22.15 171.031C22.1303 170.714 22.1193 170.392 22.1193 170.066C22.1193 169.399 22.1594 168.732 22.2396 168.069C22.7427 163.911 24.7855 160.509 27.5021 159.097C28.3692 158.637 29.3353 158.394 30.317 158.39C31.5337 158.4 32.7206 158.768 33.729 159.449C36.1459 161.027 37.9284 164.224 38.3921 168.071C38.4702 168.731 38.5074 169.395 38.5037 170.06V170.104C38.5037 170.213 38.5037 170.322 38.5037 170.43C38.5033 172.503 39.1127 174.53 40.2558 176.259C41.399 177.988 43.0254 179.342 44.9325 180.153C46.8395 180.963 48.9429 181.195 50.9804 180.818C53.018 180.441 54.8997 179.473 56.391 178.034C57.8823 176.594 58.9174 174.748 59.3672 172.725C59.817 170.701 59.6617 168.59 58.9206 166.654C58.1795 164.718 56.8853 163.043 55.1994 161.838C53.5136 160.633 51.5104 159.95 49.4397 159.876L49.4156 159.852C49.2516 159.852 49.0876 159.835 48.9235 159.821C44.2495 159.471 40.3934 157.182 39.033 154.132C38.6971 153.391 38.5171 152.588 38.5044 151.775C38.4916 150.961 38.6462 150.153 38.9586 149.401C40.2513 146.253 44.1598 143.883 48.9235 143.526C49.1707 143.506 49.42 143.493 49.6737 143.487L49.7 143.458C52.3839 143.296 54.9046 142.114 56.7475 140.155C58.5904 138.197 59.6167 135.608 59.6168 132.918Z" stroke="url(#paint0_linear_969_27590)" stroke-width="0.4" stroke-miterlimit="10"/>
<path d="M120.265 132.918C120.253 130.158 119.16 127.512 117.223 125.548C115.285 123.583 112.655 122.455 109.897 122.406C107.138 122.356 104.47 123.389 102.463 125.283C100.456 127.177 99.2703 129.782 99.1587 132.539L99.1215 132.577C99.1412 132.894 99.1521 133.213 99.1521 133.539C99.1534 134.207 99.1132 134.874 99.0318 135.537C98.5681 139.384 96.7856 142.583 94.3687 144.161C93.3636 144.849 92.1738 145.218 90.9556 145.218C89.7374 145.218 88.5476 144.849 87.5424 144.161C85.1365 142.583 83.343 139.384 82.8793 135.537C82.798 134.874 82.7578 134.207 82.759 133.539C82.759 133.213 82.759 132.883 82.7897 132.577L82.7525 132.539C82.6778 130.468 81.9957 128.465 80.7911 126.779C79.5865 125.093 77.9126 123.799 75.9781 123.058C74.0436 122.317 71.934 122.162 69.9119 122.612C67.8899 123.062 66.0449 124.097 64.6068 125.589C63.1687 127.08 62.201 128.962 61.8244 131C61.4478 133.038 61.6788 135.141 62.4887 137.049C63.2985 138.956 64.6515 140.583 66.379 141.727C68.1065 142.87 70.1321 143.48 72.2036 143.48C72.3129 143.48 72.4223 143.48 72.5295 143.48L72.6017 143.552L72.722 143.566C77.3151 144.021 81.0465 146.342 82.3041 149.408C82.6019 150.128 82.7565 150.9 82.759 151.679C82.7562 152.26 82.6427 152.835 82.4244 153.373C81.1318 156.64 76.3615 159.189 72.582 159.758C72.337 159.797 72.0964 159.824 71.8624 159.845L71.8208 159.887C69.7785 159.963 67.8022 160.63 66.1316 161.808C64.4611 162.986 63.1683 164.623 62.4101 166.522C61.6518 168.421 61.4609 170.499 61.8603 172.504C62.2597 174.509 63.2324 176.355 64.6603 177.818C66.0881 179.281 67.9098 180.297 69.904 180.744C71.8982 181.192 73.9793 181.05 75.8946 180.337C77.8099 179.623 79.477 178.369 80.6936 176.726C81.9102 175.083 82.6239 173.123 82.7481 171.082L82.7984 171.031C82.7787 170.714 82.7678 170.392 82.7678 170.066C82.7677 169.399 82.8079 168.732 82.8881 168.069C83.3911 163.911 85.434 160.509 88.1505 159.097C89.0176 158.637 89.9837 158.394 90.9654 158.39C92.1821 158.4 93.369 158.768 94.3775 159.449C96.7943 161.027 98.5769 164.224 99.0406 168.071C99.1186 168.731 99.1558 169.395 99.1521 170.06V170.104C99.1521 170.213 99.1521 170.322 99.1521 170.43C99.1517 172.503 99.7611 174.53 100.904 176.259C102.047 177.988 103.674 179.342 105.581 180.153C107.488 180.963 109.591 181.195 111.629 180.818C113.666 180.441 115.548 179.473 117.039 178.034C118.531 176.594 119.566 174.748 120.016 172.725C120.465 170.701 120.31 168.59 119.569 166.654C118.828 164.718 117.534 163.043 115.848 161.838C114.162 160.633 112.159 159.95 110.088 159.876L110.064 159.852C109.9 159.852 109.736 159.835 109.572 159.821C104.898 159.471 101.042 157.182 99.6814 154.132C99.3455 153.391 99.1656 152.588 99.1528 151.775C99.14 150.961 99.2946 150.153 99.6071 149.401C100.9 146.253 104.808 143.883 109.572 143.526C109.819 143.506 110.068 143.493 110.322 143.487L110.348 143.458C113.032 143.296 115.553 142.114 117.396 140.155C119.239 138.197 120.265 135.608 120.265 132.918Z" stroke="url(#paint1_linear_969_27590)" stroke-width="0.4" stroke-miterlimit="10"/>
<path d="M180.921 132.918C180.909 130.158 179.817 127.512 177.879 125.548C175.941 123.583 173.312 122.455 170.553 122.406C167.795 122.356 165.127 123.389 163.12 125.283C161.113 127.177 159.927 129.782 159.815 132.539L159.778 132.577C159.797 132.894 159.808 133.213 159.808 133.539C159.81 134.207 159.769 134.874 159.688 135.537C159.224 139.384 157.442 142.583 155.025 144.161C154.02 144.849 152.83 145.218 151.612 145.218C150.394 145.218 149.204 144.849 148.199 144.161C145.793 142.583 143.999 139.384 143.536 135.537C143.454 134.874 143.414 134.207 143.415 133.539C143.415 133.213 143.415 132.883 143.446 132.577L143.409 132.539C143.334 130.468 142.652 128.465 141.447 126.779C140.243 125.093 138.569 123.799 136.634 123.058C134.7 122.317 132.59 122.162 130.568 122.612C128.546 123.062 126.701 124.097 125.263 125.589C123.825 127.08 122.857 128.962 122.481 131C122.104 133.038 122.335 135.141 123.145 137.049C123.955 138.956 125.308 140.583 127.035 141.727C128.763 142.87 130.788 143.48 132.86 143.48C132.969 143.48 133.079 143.48 133.186 143.48L133.258 143.552L133.378 143.566C137.971 144.021 141.703 146.342 142.96 149.408C143.258 150.128 143.413 150.9 143.415 151.679C143.412 152.26 143.299 152.835 143.081 153.373C141.788 156.64 137.018 159.189 133.238 159.758C132.993 159.797 132.753 159.824 132.519 159.845L132.477 159.887C130.435 159.963 128.458 160.63 126.788 161.808C125.117 162.986 123.825 164.623 123.066 166.522C122.308 168.421 122.117 170.499 122.517 172.504C122.916 174.509 123.889 176.355 125.317 177.818C126.744 179.281 128.566 180.297 130.56 180.744C132.554 181.192 134.636 181.05 136.551 180.337C138.466 179.623 140.133 178.369 141.35 176.726C142.566 175.083 143.28 173.123 143.404 171.082L143.455 171.031C143.435 170.714 143.424 170.392 143.424 170.066C143.424 169.399 143.464 168.732 143.544 168.069C144.047 163.911 146.09 160.509 148.807 159.097C149.674 158.637 150.64 158.394 151.622 158.39C152.838 158.4 154.025 158.768 155.034 159.449C157.451 161.027 159.233 164.224 159.697 168.071C159.775 168.731 159.812 169.395 159.808 170.06V170.104C159.808 170.213 159.808 170.322 159.808 170.43C159.808 172.503 160.417 174.53 161.561 176.259C162.704 177.988 164.33 179.342 166.237 180.153C168.144 180.963 170.248 181.195 172.285 180.818C174.323 180.441 176.204 179.473 177.696 178.034C179.187 176.594 180.222 174.748 180.672 172.725C181.122 170.701 180.966 168.59 180.225 166.654C179.484 164.718 178.19 163.043 176.504 161.838C174.818 160.633 172.815 159.95 170.744 159.876L170.72 159.852C170.556 159.852 170.392 159.835 170.228 159.821C165.554 159.471 161.698 157.182 160.338 154.132C160.002 153.391 159.822 152.588 159.809 151.775C159.796 150.961 159.951 150.153 160.263 149.401C161.556 146.253 165.464 143.883 170.228 143.526C170.475 143.506 170.725 143.493 170.978 143.487L171.005 143.458C173.689 143.296 176.209 142.114 178.052 140.155C179.895 138.197 180.921 135.608 180.921 132.918Z" stroke="url(#paint2_linear_969_27590)" stroke-width="0.4" stroke-miterlimit="10"/>
<path d="M59.6168 72.2382C59.6041 69.4782 58.512 66.8327 56.5742 64.8681C54.6364 62.9034 52.0069 61.7757 49.2485 61.7262C46.4901 61.6767 43.8218 62.7095 41.8149 64.6034C39.808 66.4972 38.6218 69.1018 38.5102 71.8597L38.4731 71.8969C38.4927 72.2141 38.5037 72.5336 38.5037 72.8597C38.5049 73.5274 38.4648 74.1946 38.3834 74.8574C37.9197 78.7042 36.1371 81.9033 33.7203 83.481C32.7151 84.1696 31.5254 84.5381 30.3071 84.5381C29.0889 84.5381 27.8992 84.1696 26.894 83.481C24.4881 81.9033 22.6946 78.7042 22.2309 74.8574C22.1495 74.1946 22.1093 73.5274 22.1106 72.8597C22.1106 72.5336 22.1106 72.2032 22.1412 71.8969L22.104 71.8597C22.0293 69.7886 21.3472 67.7854 20.1426 66.0995C18.938 64.4135 17.2642 63.1195 15.3297 62.3784C13.3952 61.6374 11.2855 61.4823 9.2635 61.9322C7.24147 62.3822 5.39648 63.4175 3.95837 64.909C2.52026 66.4006 1.5526 68.2825 1.17596 70.3203C0.799313 72.3581 1.03033 74.4618 1.84022 76.3692C2.65011 78.2766 4.00307 79.9034 5.73056 81.047C7.45805 82.1906 9.4837 82.8004 11.5551 82.8005C11.6645 82.8005 11.7739 82.8005 11.881 82.8005L11.9532 82.8727L12.0735 82.8858C16.6666 83.341 20.398 85.6626 21.6557 88.7282C21.9535 89.4485 22.108 90.2201 22.1106 90.9996C22.1078 91.5803 21.9942 92.1551 21.776 92.6932C20.4833 95.9601 15.713 98.5093 11.9335 99.0783C11.6886 99.1177 11.448 99.1439 11.2139 99.1658L11.1724 99.2074C9.13011 99.2832 7.15374 99.9505 5.48321 101.128C3.81268 102.306 2.51983 103.944 1.76161 105.842C1.0034 107.741 0.812419 109.819 1.21187 111.824C1.61131 113.829 2.584 115.675 4.01186 117.138C5.43971 118.601 7.26132 119.618 9.25555 120.065C11.2498 120.512 13.3308 120.37 15.2461 119.657C17.1614 118.944 18.8285 117.689 20.0451 116.047C21.2617 114.404 21.9754 112.443 22.0997 110.402L22.15 110.352C22.1303 110.034 22.1193 109.713 22.1193 109.387C22.1193 108.719 22.1594 108.052 22.2396 107.389C22.7427 103.231 24.7855 99.8288 27.5021 98.4174C28.3692 97.957 29.3353 97.7144 30.317 97.7107C31.5337 97.7203 32.7206 98.0887 33.729 98.7697C36.1459 100.347 37.9284 103.544 38.3921 107.391C38.4702 108.051 38.5074 108.715 38.5037 109.38V109.424C38.5037 109.533 38.5037 109.643 38.5037 109.75C38.5033 111.823 39.1127 113.85 40.2558 115.579C41.399 117.308 43.0254 118.662 44.9325 119.473C46.8395 120.284 48.9429 120.515 50.9804 120.138C53.018 119.761 54.8997 118.793 56.391 117.354C57.8823 115.915 58.9174 114.068 59.3672 112.045C59.817 110.021 59.6617 107.91 58.9206 105.974C58.1795 104.038 56.8853 102.363 55.1994 101.158C53.5136 99.953 51.5104 99.2707 49.4397 99.1964L49.4156 99.1724C49.2516 99.1724 49.0876 99.1549 48.9235 99.1417C44.2495 98.7916 40.3934 96.5028 39.033 93.4525C38.6971 92.7112 38.5171 91.9087 38.5044 91.0948C38.4916 90.281 38.6462 89.4732 38.9586 88.7217C40.2513 85.5729 44.1598 83.2031 48.9235 82.8464C49.1707 82.8268 49.42 82.8136 49.6737 82.8071L49.7 82.7786C52.3839 82.6158 54.9046 81.4345 56.7475 79.4757C58.5904 77.5169 59.6167 74.9283 59.6168 72.2382Z" stroke="#5462E3" stroke-width="0.4" stroke-miterlimit="10"/>
<path d="M120.265 72.2382C120.253 69.4782 119.16 66.8327 117.223 64.8681C115.285 62.9034 112.655 61.7757 109.897 61.7262C107.138 61.6767 104.47 62.7095 102.463 64.6034C100.456 66.4972 99.2703 69.1018 99.1587 71.8597L99.1215 71.8969C99.1412 72.2141 99.1521 72.5336 99.1521 72.8597C99.1534 73.5274 99.1132 74.1946 99.0318 74.8574C98.5681 78.7042 96.7856 81.9033 94.3687 83.481C93.3636 84.1696 92.1738 84.5381 90.9556 84.5381C89.7374 84.5381 88.5476 84.1696 87.5424 83.481C85.1365 81.9033 83.343 78.7042 82.8793 74.8574C82.798 74.1946 82.7578 73.5274 82.759 72.8597C82.759 72.5336 82.759 72.2032 82.7897 71.8969L82.7525 71.8597C82.6778 69.7886 81.9957 67.7854 80.7911 66.0995C79.5865 64.4135 77.9126 63.1195 75.9781 62.3784C74.0436 61.6374 71.934 61.4823 69.9119 61.9322C67.8899 62.3822 66.0449 63.4175 64.6068 64.909C63.1687 66.4006 62.201 68.2825 61.8244 70.3203C61.4478 72.3581 61.6788 74.4618 62.4887 76.3692C63.2985 78.2766 64.6515 79.9034 66.379 81.047C68.1065 82.1906 70.1321 82.8004 72.2036 82.8005C72.3129 82.8005 72.4223 82.8005 72.5295 82.8005L72.6017 82.8727L72.722 82.8858C77.3151 83.341 81.0465 85.6626 82.3041 88.7282C82.6019 89.4485 82.7565 90.2201 82.759 90.9996C82.7562 91.5803 82.6427 92.1551 82.4244 92.6932C81.1318 95.9601 76.3615 98.5093 72.582 99.0783C72.337 99.1177 72.0964 99.1439 71.8624 99.1658L71.8208 99.2074C69.7785 99.2832 67.8022 99.9505 66.1316 101.128C64.4611 102.306 63.1683 103.944 62.4101 105.842C61.6518 107.741 61.4609 109.819 61.8603 111.824C62.2597 113.829 63.2324 115.675 64.6603 117.138C66.0881 118.601 67.9098 119.618 69.904 120.065C71.8982 120.512 73.9793 120.37 75.8946 119.657C77.8099 118.944 79.477 117.689 80.6936 116.047C81.9102 114.404 82.6239 112.443 82.7481 110.402L82.7984 110.352C82.7787 110.034 82.7678 109.713 82.7678 109.387C82.7677 108.719 82.8079 108.052 82.8881 107.389C83.3911 103.231 85.434 99.8288 88.1505 98.4174C89.0176 97.957 89.9837 97.7144 90.9654 97.7107C92.1821 97.7203 93.369 98.0887 94.3775 98.7697C96.7943 100.347 98.5769 103.544 99.0406 107.391C99.1186 108.051 99.1558 108.715 99.1521 109.38V109.424C99.1521 109.533 99.1521 109.643 99.1521 109.75C99.1517 111.823 99.7611 113.85 100.904 115.579C102.047 117.308 103.674 118.662 105.581 119.473C107.488 120.284 109.591 120.515 111.629 120.138C113.666 119.761 115.548 118.793 117.039 117.354C118.531 115.915 119.566 114.068 120.016 112.045C120.465 110.021 120.31 107.91 119.569 105.974C118.828 104.038 117.534 102.363 115.848 101.158C114.162 99.953 112.159 99.2707 110.088 99.1964L110.064 99.1724C109.9 99.1724 109.736 99.1549 109.572 99.1417C104.898 98.7916 101.042 96.5028 99.6814 93.4525C99.3455 92.7112 99.1656 91.9087 99.1528 91.0948C99.14 90.281 99.2946 89.4732 99.6071 88.7217C100.9 85.5729 104.808 83.2031 109.572 82.8464C109.819 82.8268 110.068 82.8136 110.322 82.8071L110.348 82.7786C113.032 82.6158 115.553 81.4345 117.396 79.4757C119.239 77.5169 120.265 74.9283 120.265 72.2382Z" stroke="#5462E3" stroke-width="0.4" stroke-miterlimit="10"/>
<path d="M170.366 120.322C173.124 120.31 175.769 119.217 177.733 117.278C179.696 115.34 180.824 112.709 180.873 109.949C180.922 107.19 179.89 104.52 177.997 102.513C176.104 100.505 173.501 99.3181 170.744 99.2065L170.707 99.1693C170.39 99.189 170.07 99.1999 169.744 99.1999C169.077 99.2011 168.41 99.161 167.748 99.0796C163.902 98.6157 160.705 96.8323 159.128 94.4144C158.439 93.4088 158.071 92.2185 158.071 90.9997C158.071 89.781 158.439 88.5907 159.128 87.5851C160.705 85.1781 163.902 83.3838 167.748 82.9199C168.41 82.8385 169.077 82.7983 169.744 82.7996C170.07 82.7996 170.401 82.7996 170.707 82.8302L170.744 82.793C172.814 82.7183 174.816 82.0359 176.502 80.8307C178.187 79.6256 179.48 77.9511 180.221 76.0157C180.962 74.0804 181.117 71.9698 180.667 69.9468C180.217 67.9239 179.182 66.0781 177.692 64.6394C176.201 63.2006 174.32 62.2325 172.283 61.8557C170.246 61.4789 168.143 61.71 166.236 62.5203C164.33 63.3305 162.704 64.6841 161.561 66.4123C160.418 68.1406 159.808 70.1671 159.808 72.2395C159.808 72.3489 159.808 72.4583 159.808 72.5655L159.736 72.6377L159.723 72.7581C159.268 77.3532 156.947 81.0863 153.883 82.3444C153.163 82.6424 152.392 82.797 151.613 82.7996C151.032 82.7968 150.457 82.6832 149.92 82.4648C146.654 81.1716 144.106 76.3992 143.537 72.618C143.498 72.373 143.472 72.1323 143.45 71.8981L143.408 71.8566C143.333 69.8134 142.666 67.8361 141.488 66.1649C140.311 64.4936 138.674 63.2002 136.776 62.4416C134.878 61.6831 132.801 61.492 130.797 61.8916C128.793 62.2913 126.948 63.2644 125.485 64.6929C124.023 66.1214 123.007 67.9438 122.56 69.9389C122.113 71.934 122.255 74.016 122.968 75.9321C123.681 77.8482 124.934 79.5161 126.577 80.7332C128.219 81.9503 130.179 82.6644 132.219 82.7886L132.269 82.839C132.586 82.8193 132.908 82.8083 133.233 82.8083C133.901 82.8082 134.568 82.8484 135.23 82.9287C139.386 83.432 142.787 85.4757 144.198 88.1934C144.658 89.061 144.901 90.0274 144.904 91.0096C144.895 92.2268 144.527 93.4142 143.846 94.4231C142.269 96.8411 139.073 98.6244 135.228 99.0883C134.568 99.1664 133.904 99.2036 133.24 99.1999L133.196 99.1999C133.087 99.1999 132.978 99.1999 132.87 99.1999C130.798 99.1995 128.772 99.8091 127.044 100.953C125.316 102.096 123.962 103.724 123.152 105.632C122.341 107.539 122.11 109.644 122.487 111.682C122.863 113.721 123.831 115.603 125.27 117.095C126.708 118.587 128.554 119.623 130.577 120.073C132.599 120.523 134.71 120.367 136.645 119.626C138.58 118.884 140.254 117.59 141.458 115.903C142.663 114.216 143.345 112.212 143.419 110.141L143.443 110.117C143.443 109.953 143.461 109.788 143.474 109.624C143.824 104.948 146.112 101.09 149.161 99.7294C149.902 99.3934 150.704 99.2134 151.517 99.2006C152.331 99.1878 153.138 99.3425 153.889 99.655C157.037 100.948 159.406 104.859 159.762 109.624C159.782 109.872 159.795 110.121 159.801 110.375L159.83 110.401C159.993 113.086 161.173 115.608 163.131 117.452C165.089 119.296 167.677 120.322 170.366 120.322Z" stroke="url(#paint3_linear_969_27590)" stroke-width="0.4" stroke-miterlimit="10"/>
<path d="M59.6168 11.5605C59.6041 8.80042 58.512 6.15497 56.5742 4.19034C54.6364 2.2257 52.0069 1.09796 49.2485 1.04848C46.4901 0.999011 43.8218 2.03174 41.8149 3.92562C39.808 5.81951 38.6218 8.42409 38.5102 11.1819L38.4731 11.2191C38.4927 11.5364 38.5037 11.8559 38.5037 12.1819C38.5049 12.8497 38.4648 13.5169 38.3834 14.1797C37.9197 18.0265 36.1371 21.2256 33.7203 22.8033C32.7151 23.4919 31.5254 23.8603 30.3071 23.8603C29.0889 23.8603 27.8992 23.4919 26.894 22.8033C24.4881 21.2256 22.6946 18.0265 22.2309 14.1797C22.1495 13.5169 22.1093 12.8497 22.1106 12.1819C22.1106 11.8559 22.1106 11.5255 22.1412 11.2191L22.104 11.1819C22.0293 9.11091 21.3472 7.10765 20.1426 5.42172C18.938 3.73579 17.2642 2.44172 15.3297 1.70071C13.3952 0.95971 11.2855 0.804532 9.2635 1.25451C7.24147 1.70449 5.39648 2.73974 3.95837 4.23128C2.52026 5.72283 1.5526 7.60473 1.17596 9.64255C0.799313 11.6804 1.03033 13.784 1.84022 15.6914C2.65011 17.5988 4.00307 19.2257 5.73056 20.3693C7.45805 21.5129 9.4837 22.1227 11.5551 22.1228C11.6645 22.1228 11.7739 22.1228 11.881 22.1228L11.9532 22.195L12.0735 22.2081C16.6666 22.6632 20.398 24.9849 21.6557 28.0505C21.9535 28.7708 22.108 29.5423 22.1106 30.3218C22.1078 30.9025 21.9942 31.4774 21.776 32.0155C20.4833 35.2824 15.713 37.8316 11.9335 38.4005C11.6886 38.4399 11.448 38.4662 11.2139 38.4881L11.1724 38.5296C9.13011 38.6054 7.15374 39.2727 5.48321 40.4505C3.81268 41.6283 2.51983 43.266 1.76161 45.1646C1.0034 47.0633 0.812419 49.1413 1.21187 51.1465C1.61131 53.1516 2.584 54.9977 4.01186 56.4605C5.43971 57.9233 7.26132 58.9399 9.25555 59.387C11.2498 59.8341 13.3308 59.6924 15.2461 58.9791C17.1614 58.2658 18.8285 57.0117 20.0451 55.3688C21.2617 53.726 21.9754 51.7651 22.0997 49.7243L22.15 49.674C22.1303 49.3567 22.1193 49.035 22.1193 48.709C22.1193 48.0413 22.1594 47.3741 22.2396 46.7112C22.7427 42.5537 24.7855 39.1511 27.5021 37.7397C28.3692 37.2793 29.3353 37.0367 30.317 37.0329C31.5337 37.0425 32.7206 37.4109 33.729 38.092C36.1459 39.6697 37.9284 42.8666 38.3921 46.7134C38.4702 47.3735 38.5074 48.0378 38.5037 48.7024V48.7462C38.5037 48.8556 38.5037 48.965 38.5037 49.0722C38.5033 51.1452 39.1127 53.1725 40.2558 54.9014C41.399 56.6304 43.0254 57.9846 44.9325 58.7953C46.8395 59.606 48.9429 59.8373 50.9804 59.4605C53.018 59.0837 54.8997 58.1154 56.391 56.6762C57.8823 55.237 58.9174 53.3906 59.3672 51.3671C59.817 49.3435 59.6617 47.2323 58.9206 45.2964C58.1795 43.3606 56.8853 41.6857 55.1994 40.4805C53.5136 39.2753 51.5104 38.593 49.4397 38.5187L49.4156 38.4946C49.2516 38.4946 49.0876 38.4771 48.9235 38.464C44.2495 38.1139 40.3934 35.8251 39.033 32.7748C38.6971 32.0334 38.5171 31.2309 38.5044 30.4171C38.4916 29.6032 38.6462 28.7955 38.9586 28.0439C40.2513 24.8952 44.1598 22.5254 48.9235 22.1687C49.1707 22.149 49.42 22.1359 49.6737 22.1293L49.7 22.1009C52.3839 21.9381 54.9046 20.7568 56.7475 18.7979C58.5904 16.8391 59.6167 14.2505 59.6168 11.5605Z" stroke="#5462E3" stroke-width="0.4" stroke-miterlimit="10"/>
<path d="M120.265 11.5605C120.253 8.80042 119.16 6.15497 117.223 4.19034C115.285 2.2257 112.655 1.09796 109.897 1.04848C107.138 0.999011 104.47 2.03174 102.463 3.92562C100.456 5.81951 99.2703 8.42409 99.1587 11.1819L99.1215 11.2191C99.1412 11.5364 99.1521 11.8559 99.1521 12.1819C99.1534 12.8497 99.1132 13.5169 99.0318 14.1797C98.5681 18.0265 96.7856 21.2256 94.3687 22.8033C93.3636 23.4919 92.1738 23.8603 90.9556 23.8603C89.7374 23.8603 88.5476 23.4919 87.5424 22.8033C85.1365 21.2256 83.343 18.0265 82.8793 14.1797C82.798 13.5169 82.7578 12.8497 82.759 12.1819C82.759 11.8559 82.759 11.5255 82.7897 11.2191L82.7525 11.1819C82.6778 9.11091 81.9957 7.10765 80.7911 5.42172C79.5865 3.73579 77.9126 2.44172 75.9781 1.70071C74.0436 0.95971 71.934 0.804532 69.9119 1.25451C67.8899 1.70449 66.0449 2.73974 64.6068 4.23128C63.1687 5.72283 62.201 7.60473 61.8244 9.64255C61.4478 11.6804 61.6788 13.784 62.4887 15.6914C63.2985 17.5988 64.6515 19.2257 66.379 20.3693C68.1065 21.5129 70.1321 22.1227 72.2036 22.1228C72.3129 22.1228 72.4223 22.1228 72.5295 22.1228L72.6017 22.195L72.722 22.2081C77.3151 22.6632 81.0465 24.9849 82.3041 28.0505C82.6019 28.7708 82.7565 29.5423 82.759 30.3218C82.7562 30.9025 82.6427 31.4774 82.4244 32.0155C81.1318 35.2824 76.3615 37.8316 72.582 38.4005C72.337 38.4399 72.0964 38.4662 71.8624 38.4881L71.8208 38.5296C69.7785 38.6054 67.8022 39.2727 66.1316 40.4505C64.4611 41.6283 63.1683 43.266 62.4101 45.1646C61.6518 47.0633 61.4609 49.1413 61.8603 51.1465C62.2597 53.1516 63.2324 54.9977 64.6603 56.4605C66.0881 57.9233 67.9098 58.9399 69.904 59.387C71.8982 59.8341 73.9793 59.6924 75.8946 58.9791C77.8099 58.2658 79.477 57.0117 80.6936 55.3688C81.9102 53.726 82.6239 51.7651 82.7481 49.7243L82.7984 49.674C82.7787 49.3567 82.7678 49.035 82.7678 48.709C82.7677 48.0413 82.8079 47.3741 82.8881 46.7112C83.3911 42.5537 85.434 39.1511 88.1505 37.7397C89.0176 37.2793 89.9837 37.0367 90.9654 37.0329C92.1821 37.0425 93.369 37.4109 94.3775 38.092C96.7943 39.6697 98.5769 42.8666 99.0406 46.7134C99.1186 47.3735 99.1558 48.0378 99.1521 48.7024V48.7462C99.1521 48.8556 99.1521 48.965 99.1521 49.0722C99.1517 51.1452 99.7611 53.1725 100.904 54.9014C102.047 56.6304 103.674 57.9846 105.581 58.7953C107.488 59.606 109.591 59.8373 111.629 59.4605C113.666 59.0837 115.548 58.1154 117.039 56.6762C118.531 55.237 119.566 53.3906 120.016 51.3671C120.465 49.3435 120.31 47.2323 119.569 45.2964C118.828 43.3606 117.534 41.6857 115.848 40.4805C114.162 39.2753 112.159 38.593 110.088 38.5187L110.064 38.4946C109.9 38.4946 109.736 38.4771 109.572 38.464C104.898 38.1139 101.042 35.8251 99.6814 32.7748C99.3455 32.0334 99.1656 31.2309 99.1528 30.4171C99.14 29.6032 99.2946 28.7955 99.6071 28.0439C100.9 24.8952 104.808 22.5254 109.572 22.1687C109.819 22.149 110.068 22.1359 110.322 22.1293L110.348 22.1009C113.032 21.9381 115.553 20.7568 117.396 18.7979C119.239 16.8391 120.265 14.2505 120.265 11.5605Z" stroke="#5462E3" stroke-width="0.4" stroke-miterlimit="10"/>
<path d="M170.366 59.6426C173.124 59.6299 175.769 58.5373 177.733 56.5987C179.696 54.66 180.824 52.0294 180.873 49.2697C180.922 46.5101 179.89 43.8407 177.997 41.8329C176.104 39.8251 173.501 38.6384 170.744 38.5268L170.707 38.4896C170.39 38.5093 170.07 38.5202 169.744 38.5202C169.077 38.5215 168.41 38.4813 167.748 38.3999C163.902 37.936 160.705 36.1526 159.128 33.7347C158.439 32.7291 158.071 31.5388 158.071 30.3201C158.071 29.1013 158.439 27.911 159.128 26.9054C160.705 24.4984 163.902 22.7041 167.748 22.2402C168.41 22.1588 169.077 22.1187 169.744 22.1199C170.07 22.1199 170.401 22.1199 170.707 22.1505L170.744 22.1133C172.814 22.0386 174.816 21.3562 176.502 20.1511C178.187 18.9459 179.48 17.2714 180.221 15.336C180.962 13.4007 181.117 11.2901 180.667 9.26714C180.217 7.24422 179.182 5.39842 177.692 3.95967C176.201 2.52093 174.32 1.55285 172.283 1.17604C170.246 0.799227 168.143 1.03034 166.236 1.84059C164.33 2.65084 162.704 4.0044 161.561 5.73265C160.418 7.4609 159.808 9.48744 159.808 11.5598C159.808 11.6692 159.808 11.7786 159.808 11.8858L159.736 11.958L159.723 12.0784C159.268 16.6735 156.947 20.4066 153.883 21.6648C153.163 21.9627 152.392 22.1173 151.613 22.1199C151.032 22.1171 150.457 22.0035 149.92 21.7851C146.654 20.4919 144.106 15.7195 143.537 11.9384C143.498 11.6933 143.472 11.4526 143.45 11.2184L143.408 11.1769C143.333 9.13369 142.666 7.15645 141.488 5.48519C140.311 3.81392 138.674 2.5205 136.776 1.76195C134.878 1.0034 132.801 0.812337 130.797 1.21196C128.793 1.61158 126.948 2.5847 125.485 4.01319C124.023 5.44167 123.007 7.26408 122.56 9.25918C122.113 11.2543 122.255 13.3363 122.968 15.2524C123.681 17.1685 124.934 18.8364 126.577 20.0535C128.219 21.2707 130.179 21.9847 132.219 22.109L132.269 22.1593C132.586 22.1396 132.908 22.1286 133.233 22.1286C133.901 22.1286 134.568 22.1688 135.23 22.249C139.386 22.7523 142.787 24.796 144.198 27.5137C144.658 28.3813 144.901 29.3478 144.904 30.3299C144.895 31.5472 144.527 32.7345 143.846 33.7434C142.269 36.1614 139.073 37.9447 135.228 38.4086C134.568 38.4867 133.904 38.5239 133.24 38.5202L133.196 38.5202C133.087 38.5202 132.978 38.5202 132.87 38.5202C130.798 38.5198 128.772 39.1295 127.044 40.2731C125.316 41.4168 123.962 43.044 123.152 44.9518C122.341 46.8597 122.11 48.964 122.487 51.0024C122.863 53.0409 123.831 54.9234 125.27 56.4154C126.708 57.9074 128.554 58.9429 130.577 59.3929C132.599 59.8429 134.71 59.6875 136.645 58.9461C138.58 58.2047 140.254 56.91 141.458 55.2233C142.663 53.5367 143.345 51.5327 143.419 49.4611L143.443 49.437C143.443 49.2729 143.461 49.1088 143.474 48.9446C143.824 44.2685 146.112 40.4108 149.161 39.0498C149.902 38.7137 150.704 38.5337 151.517 38.5209C152.331 38.5081 153.138 38.6628 153.889 38.9753C157.037 40.2686 159.406 44.1788 159.762 48.9446C159.782 49.1919 159.795 49.4414 159.801 49.6952L159.83 49.7214C159.993 52.4066 161.173 54.9283 163.131 56.7721C165.089 58.6158 167.677 59.6425 170.366 59.6426Z" stroke="url(#paint4_linear_969_27590)" stroke-width="0.4" stroke-miterlimit="10"/>
<defs>
<linearGradient id="paint0_linear_969_27590" x1="30.3095" y1="181" x2="30.3095" y2="122.36" gradientUnits="userSpaceOnUse">
<stop stop-color="#5462E3" stop-opacity="0"/>
<stop offset="1" stop-color="#5462E3"/>
</linearGradient>
<linearGradient id="paint1_linear_969_27590" x1="90.9579" y1="181" x2="90.9579" y2="122.36" gradientUnits="userSpaceOnUse">
<stop stop-color="#5462E3" stop-opacity="0"/>
<stop offset="1" stop-color="#5462E3"/>
</linearGradient>
<linearGradient id="paint2_linear_969_27590" x1="122.281" y1="122.36" x2="180.991" y2="181.044" gradientUnits="userSpaceOnUse">
<stop stop-color="#5462E3"/>
<stop offset="0.655" stop-color="#5462E3" stop-opacity="0"/>
</linearGradient>
<linearGradient id="paint3_linear_969_27590" x1="122.305" y1="91.0021" x2="180.919" y2="91.0021" gradientUnits="userSpaceOnUse">
<stop stop-color="#5462E3"/>
<stop offset="1" stop-color="#5462E3" stop-opacity="0"/>
</linearGradient>
<linearGradient id="paint4_linear_969_27590" x1="122.305" y1="30.3224" x2="180.919" y2="30.3224" gradientUnits="userSpaceOnUse">
<stop stop-color="#5462E3"/>
<stop offset="1" stop-color="#5462E3" stop-opacity="0"/>
</linearGradient>
</defs>
</svg>
