<svg width="30" height="30" viewBox="0 0 30 30" fill="none" xmlns="http://www.w3.org/2000/svg">
<path d="M0 12.8C0 8.31958 0 6.07937 0.871948 4.36808C1.63893 2.86278 2.86278 1.63893 4.36808 0.871948C6.07937 0 8.31958 0 12.8 0H17.2C21.6804 0 23.9206 0 25.6319 0.871948C27.1372 1.63893 28.3611 2.86278 29.1281 4.36808C30 6.07937 30 8.31958 30 12.8V17.2C30 21.6804 30 23.9206 29.1281 25.6319C28.3611 27.1372 27.1372 28.3611 25.6319 29.1281C23.9206 30 21.6804 30 17.2 30H12.8C8.31958 30 6.07937 30 4.36808 29.1281C2.86278 28.3611 1.63893 27.1372 0.871948 25.6319C0 23.9206 0 21.6804 0 17.2V12.8Z" fill="#5462E3"/>
<path d="M22.0109 11.3249C22.5609 10.8916 22.9193 10.2166 22.9193 9.45825C22.9193 8.14159 21.8609 7.08325 20.5443 7.08325C19.7859 7.08325 19.1109 7.44159 18.6859 7.99159H18.6776M22.0109 11.3249C21.6109 11.6416 21.1026 11.8333 20.5443 11.8333M22.0109 11.3249C21.6026 11.6416 21.1026 11.8333 20.5443 11.8333M22.0109 11.3249C22.5943 12.4249 22.9193 13.6749 22.9193 14.9999C22.9193 16.3333 22.5943 17.5749 22.0109 18.6749M20.5443 11.8333C19.2276 11.8333 18.1693 10.7749 18.1693 9.45825M18.1693 9.45825C18.1693 8.89992 18.3609 8.39992 18.6776 7.99159M18.1693 9.45825C18.1693 8.89992 18.3609 8.39159 18.6776 7.99159M18.6776 7.99159C17.5776 7.40825 16.3359 7.08325 15.0026 7.08325C13.6776 7.08325 12.4276 7.40825 11.3276 7.99159M7.99427 11.3249C8.4026 11.6416 8.9026 11.8333 9.46094 11.8333C10.7776 11.8333 11.8359 10.7749 11.8359 9.45825C11.8359 8.89992 11.6443 8.39992 11.3276 7.99159M7.99427 11.3249C7.44427 10.8916 7.08594 10.2166 7.08594 9.45825C7.08594 8.14159 8.14427 7.08325 9.46094 7.08325C10.2193 7.08325 10.8943 7.44159 11.3276 7.99159M7.99427 11.3249C7.41094 12.4249 7.08594 13.6749 7.08594 14.9999C7.08594 16.3333 7.41094 17.5749 7.99427 18.6749M18.6776 22.0083H18.6859C19.1109 22.5583 19.7859 22.9166 20.5443 22.9166C21.8609 22.9166 22.9193 21.8583 22.9193 20.5416C22.9193 19.7833 22.5609 19.1083 22.0109 18.6833V18.6749M18.6776 22.0083C18.3609 21.6083 18.1693 21.0999 18.1693 20.5416M18.6776 22.0083C18.3609 21.5999 18.1693 21.0999 18.1693 20.5416M18.6776 22.0083C17.5776 22.5916 16.3359 22.9166 15.0026 22.9166C13.6776 22.9166 12.4276 22.5916 11.3276 22.0083M18.1693 20.5416C18.1693 19.2249 19.2276 18.1666 20.5443 18.1666M20.5443 18.1666C21.1026 18.1666 21.6026 18.3583 22.0109 18.6749M20.5443 18.1666C21.1026 18.1666 21.6109 18.3583 22.0109 18.6749M11.8359 20.5416C11.8359 21.0999 11.6443 21.5999 11.3276 22.0083M11.8359 20.5416C11.8359 19.2249 10.7776 18.1666 9.46094 18.1666M11.8359 20.5416C11.8359 21.0999 11.6443 21.6083 11.3276 22.0083M11.3276 22.0083C10.8943 22.5666 10.2193 22.9166 9.46094 22.9166C8.14427 22.9166 7.08594 21.8583 7.08594 20.5416C7.08594 19.7833 7.44427 19.1083 7.99427 18.6833V18.6749M7.99427 18.6749C8.39427 18.3583 8.9026 18.1666 9.46094 18.1666M7.99427 18.6749C8.4026 18.3583 8.9026 18.1666 9.46094 18.1666" stroke="#FCFCFD" stroke-width="1.5" stroke-linecap="round" stroke-linejoin="round"/>
</svg>
