<svg width="48" height="48" viewBox="0 0 48 48" fill="none" xmlns="http://www.w3.org/2000/svg">
<rect width="48" height="48" rx="14" fill="#ECECEF"/>
<path d="M32.41 19.59C33.07 19.07 33.5 18.26 33.5 17.35C33.5 15.77 32.23 14.5 30.65 14.5C29.74 14.5 28.93 14.93 28.42 15.59H28.41M32.41 19.59C31.93 19.97 31.32 20.2 30.65 20.2M32.41 19.59C31.92 19.97 31.32 20.2 30.65 20.2M32.41 19.59C33.11 20.91 33.5 22.41 33.5 24C33.5 25.6 33.11 27.09 32.41 28.41M30.65 20.2C29.07 20.2 27.8 18.93 27.8 17.35M27.8 17.35C27.8 16.68 28.03 16.08 28.41 15.59M27.8 17.35C27.8 16.68 28.03 16.07 28.41 15.59M28.41 15.59C27.09 14.89 25.6 14.5 24 14.5C22.41 14.5 20.91 14.89 19.59 15.59M15.59 19.59C16.08 19.97 16.68 20.2 17.35 20.2C18.93 20.2 20.2 18.93 20.2 17.35C20.2 16.68 19.97 16.08 19.59 15.59M15.59 19.59C14.93 19.07 14.5 18.26 14.5 17.35C14.5 15.77 15.77 14.5 17.35 14.5C18.26 14.5 19.07 14.93 19.59 15.59M15.59 19.59C14.89 20.91 14.5 22.41 14.5 24C14.5 25.6 14.89 27.09 15.59 28.41M28.41 32.41H28.42C28.93 33.07 29.74 33.5 30.65 33.5C32.23 33.5 33.5 32.23 33.5 30.65C33.5 29.74 33.07 28.93 32.41 28.42V28.41M28.41 32.41C28.03 31.93 27.8 31.32 27.8 30.65M28.41 32.41C28.03 31.92 27.8 31.32 27.8 30.65M28.41 32.41C27.09 33.11 25.6 33.5 24 33.5C22.41 33.5 20.91 33.11 19.59 32.41M27.8 30.65C27.8 29.07 29.07 27.8 30.65 27.8M30.65 27.8C31.32 27.8 31.92 28.03 32.41 28.41M30.65 27.8C31.32 27.8 31.93 28.03 32.41 28.41M20.2 30.65C20.2 31.32 19.97 31.92 19.59 32.41M20.2 30.65C20.2 29.07 18.93 27.8 17.35 27.8M20.2 30.65C20.2 31.32 19.97 31.93 19.59 32.41M19.59 32.41C19.07 33.08 18.26 33.5 17.35 33.5C15.77 33.5 14.5 32.23 14.5 30.65C14.5 29.74 14.93 28.93 15.59 28.42V28.41M15.59 28.41C16.07 28.03 16.68 27.8 17.35 27.8M15.59 28.41C16.08 28.03 16.68 27.8 17.35 27.8" stroke="#5462E3" stroke-width="1.5" stroke-linecap="round" stroke-linejoin="round"/>
</svg>
