<svg width="32" height="32" viewBox="0 0 32 32" fill="none" xmlns="http://www.w3.org/2000/svg">
<rect width="32" height="32" rx="8" fill="#ECECEF"/>
<path d="M18.5511 22.1585C21.1511 22.4085 22.5345 21.1918 23.2345 18.1835L24.0511 14.7002C24.8678 11.2168 23.8011 9.49184 20.3095 8.67517L18.9178 8.35017C16.1345 7.69184 14.4761 8.2335 13.5011 10.2502M18.5511 22.1585C18.1345 22.1252 17.6845 22.0502 17.2011 21.9335L15.8011 21.6002C12.3261 20.7752 11.2511 19.0585 12.0678 15.5752L12.8845 12.0835C13.0511 11.3752 13.2511 10.7585 13.5011 10.2502M18.5511 22.1585C18.0345 22.5085 17.3846 22.8002 16.5929 23.0586L15.2763 23.4919C11.9679 24.5586 10.2263 23.6669 9.15126 20.3586L8.08459 17.0669C7.01793 13.7586 7.90126 12.0086 11.2096 10.9419L12.5263 10.5086C12.8679 10.4002 13.1928 10.3085 13.5011 10.2502M16.534 13.1083L20.5757 14.1333M15.7178 16.3334L18.1344 16.9501" stroke="#5462E3" stroke-width="1.25" stroke-linecap="round" stroke-linejoin="round"/>
</svg>
