<svg width="72" height="72" viewBox="0 0 72 72" fill="none" xmlns="http://www.w3.org/2000/svg">
<rect width="72" height="72" rx="18.0729" fill="#ECECEF"/>
<path d="M37.198 29.467L46.3286 31.7826M35.3625 36.7528L40.822 38.1459M54.1782 33.0629L52.3332 40.9322C50.7518 47.7283 47.6267 50.4769 41.7531 49.9121C40.8118 49.8368 39.7952 49.6674 38.7033 49.4038L35.5405 48.6508C27.6901 46.787 25.2616 42.9089 27.1065 35.0397L28.9514 27.1516C29.328 25.5514 29.7798 24.1583 30.3446 23.0099C32.5472 18.454 36.2936 17.2304 42.5814 18.7176L45.7253 19.4518C53.6134 21.2968 56.0231 25.1937 54.1782 33.0629ZM41.7615 49.9123C40.5943 50.703 39.1258 51.3619 37.3374 51.9455L34.3629 52.9245C26.889 55.3342 22.9544 53.3198 20.5258 45.8459L18.1161 38.4097C15.7064 30.9358 17.7019 26.9823 25.1758 24.5726L28.1503 23.5937C28.9222 23.3489 29.6564 23.1419 30.353 23.0101C29.7882 24.1585 29.3364 25.5516 28.9598 27.1518L27.1149 35.0398C25.27 42.9091 27.6985 46.7872 35.5489 48.651L38.7117 49.404C39.8036 49.6676 40.8202 49.837 41.7615 49.9123Z" stroke="#8C8C96" stroke-width="2.82389" stroke-linecap="round" stroke-linejoin="round"/>
</svg>
