<svg width="65" height="65" viewBox="0 0 65 65" fill="none" xmlns="http://www.w3.org/2000/svg">
<rect width="64.9716" height="64.9716" rx="18.8346" fill="#ECECEF"/>
<path d="M32.4956 17.0591V27.8576L35.5809 24.7723M32.4968 27.8577L29.4115 24.7724M17.0391 34.0282H23.8421C24.4283 34.0282 24.9528 34.3522 25.2151 34.8767L27.02 38.4865C27.5445 39.5355 28.6089 40.1988 29.7813 40.1988H35.2268C36.3992 40.1988 37.4637 39.5355 37.9882 38.4865L39.7931 34.8767C40.0553 34.3522 40.5952 34.0282 41.166 34.0282H47.8919M24.7812 20.3449C19.3202 21.1471 17.068 24.3558 17.068 30.9428V37.1134C17.068 44.8266 20.1533 47.9119 27.8665 47.9119H37.1223C44.8356 47.9119 47.9209 44.8266 47.9209 37.1134V30.9428C47.9209 24.3558 45.6686 21.1471 40.2076 20.3449" stroke="#8C8C96" stroke-width="2.31089" stroke-linecap="round" stroke-linejoin="round"/>
</svg>
