<svg width="61" height="65" viewBox="0 0 61 65" fill="none" xmlns="http://www.w3.org/2000/svg">
<rect width="60.7028" height="64.4678" rx="18.0729" fill="#ECECEF"/>
<path d="M43.5262 32.2342V20.9392C43.5262 16.7789 43.5262 13.4092 35.9963 13.4092H24.7013C17.1713 13.4092 17.1713 16.7789 17.1713 20.9392V32.2342M27.6191 27.0197H33.8879M26.0567 21.3722H35.4692M20.9363 32.2342C13.4062 32.2342 13.4062 35.6039 13.4062 39.7642V41.6467C13.4062 46.8424 13.4062 51.0592 22.8188 51.0592H37.8788C45.4088 51.0592 47.2913 46.8424 47.2913 41.6467V39.7642C47.2913 35.6039 47.2913 32.2342 39.7613 32.2342C37.8788 32.2342 37.3517 32.6295 36.3728 33.3637L34.4526 35.3968C32.2313 37.7687 28.4663 37.7687 26.2261 35.3968L24.3248 33.3637C23.3459 32.6295 22.8188 32.2342 20.9363 32.2342Z" stroke="#8C8C96" stroke-width="2.5" stroke-linecap="round" stroke-linejoin="round"/>
</svg>
