<svg width="19" height="19" viewBox="0 0 19 19" fill="none" xmlns="http://www.w3.org/2000/svg">
<path d="M16.6252 16.6249L13.187 13.1867M13.187 13.1867C13.7751 12.5986 14.2416 11.9004 14.5599 11.132C14.8782 10.3636 15.042 9.53998 15.042 8.70825C15.042 7.87653 14.8782 7.05294 14.5599 6.28453C14.2416 5.51611 13.7751 4.81791 13.187 4.22979C12.5988 3.64167 11.9006 3.17515 11.1322 2.85686C10.3638 2.53858 9.54022 2.37476 8.7085 2.37476C7.87677 2.37476 7.05319 2.53858 6.28477 2.85686C5.51636 3.17515 4.81816 3.64167 4.23004 4.22979C3.04228 5.41756 2.375 7.0285 2.375 8.70825C2.375 10.388 3.04228 11.9989 4.23004 13.1867C5.4178 14.3745 7.02875 15.0417 8.7085 15.0417C10.3882 15.0417 11.9992 14.3745 13.187 13.1867Z" stroke="#AAB2C0" stroke-width="1.5" stroke-linecap="round" stroke-linejoin="round"/>
</svg>
