<svg width="20" height="20" viewBox="0 0 20 20" fill="none" xmlns="http://www.w3.org/2000/svg">
<path d="M11.446 2.92495L12.9127 5.85828C13.1127 6.26662 13.646 6.65828 14.096 6.73328L16.7543 7.17495C18.4543 7.45828 18.8543 8.69162 17.6293 9.90828L15.5627 11.975C15.2127 12.325 15.021 13 15.1293 13.4833L15.721 16.0416C16.1877 18.0666 15.1127 18.85 13.321 17.7916L10.8293 16.3166C10.3793 16.05 9.63765 16.05 9.17932 16.3166L6.68765 17.7916C4.90432 18.85 3.82099 18.0583 4.28765 16.0416L4.87932 13.4833C4.98765 13 4.79599 12.325 4.44599 11.975L2.37932 9.90828C1.16265 8.69162 1.55432 7.45828 3.25432 7.17495L5.91265 6.73328C6.35432 6.65828 6.88765 6.26662 7.08765 5.85828L8.55432 2.92495C9.35432 1.33328 10.6543 1.33328 11.446 2.92495Z" fill="#5462E3" stroke="#5462E3" stroke-linecap="round" stroke-linejoin="round"/>
</svg>
