<svg width="24" height="24" viewBox="0 0 24 24" fill="none" xmlns="http://www.w3.org/2000/svg">
<path d="M5.62562 13.08L5.61562 17.77C5.61562 19.04 6.59562 20.4 7.79562 20.8L10.9856 21.86C11.5356 22.04 12.4456 22.04 13.0056 21.86L16.1956 20.8C17.3956 20.4 18.3756 19.04 18.3756 17.77V13.13M21.3956 15V9.00004M10.0456 2.53004L4.02562 6.46004C2.09563 7.72004 2.09563 10.54 4.02562 11.8L10.0456 15.73C11.1256 16.44 12.9056 16.44 13.9856 15.73L19.9756 11.8C21.8956 10.54 21.8956 7.73004 19.9756 6.47004L13.9856 2.54004C12.9056 1.82004 11.1256 1.82004 10.0456 2.53004Z" stroke="#5462E3" stroke-width="1.5" stroke-linecap="round" stroke-linejoin="round"/>
</svg>
