<svg width="28" height="28" viewBox="0 0 28 28" fill="none" xmlns="http://www.w3.org/2000/svg">
<rect width="28" height="28" rx="6" fill="#ECECEF"/>
<path d="M18.1448 16.0334C19.2865 16.2251 20.5448 16.0251 21.4281 15.4334C22.6031 14.6501 22.6031 13.3668 21.4281 12.5834C20.5365 11.9918 19.2615 11.7918 18.1198 11.9918M9.83646 16.0334C8.69479 16.2251 7.43646 16.0251 6.55312 15.4334C5.37813 14.6501 5.37813 13.3668 6.55312 12.5834C7.44479 11.9918 8.71979 11.7918 9.86146 11.9918M19.0031 9.96675C18.9531 9.95842 18.8948 9.95842 18.8448 9.96675C17.6948 9.92508 16.7781 8.98342 16.7781 7.81675C16.7781 6.62508 17.7365 5.66675 18.9281 5.66675C20.1198 5.66675 21.0781 6.63342 21.0781 7.81675C21.0698 8.98342 20.1531 9.92508 19.0031 9.96675ZM8.97812 9.96675C9.02812 9.95842 9.08646 9.95842 9.13646 9.96675C10.2865 9.92508 11.2031 8.98342 11.2031 7.81675C11.2031 6.62508 10.2448 5.66675 9.05312 5.66675C7.86146 5.66675 6.90312 6.63342 6.90312 7.81675C6.91146 8.98342 7.82812 9.92508 8.97812 9.96675ZM14.0031 16.1918C13.9531 16.1834 13.8948 16.1834 13.8448 16.1918C12.6948 16.1501 11.7781 15.2084 11.7781 14.0418C11.7781 12.8501 12.7365 11.8917 13.9281 11.8917C15.1198 11.8917 16.0781 12.8584 16.0781 14.0418C16.0698 15.2084 15.1531 16.1584 14.0031 16.1918ZM11.5781 18.8167C10.4031 19.6001 10.4031 20.8834 11.5781 21.6667C12.9115 22.5584 15.0948 22.5584 16.4281 21.6667C17.6031 20.8834 17.6031 19.6001 16.4281 18.8167C15.1031 17.9334 12.9115 17.9334 11.5781 18.8167Z" stroke="#5462E3" stroke-width="1.5" stroke-linecap="round" stroke-linejoin="round"/>
</svg>
