<svg width="24" height="24" viewBox="0 0 24 24" fill="none" xmlns="http://www.w3.org/2000/svg">
<rect x="0.3" y="0.3" width="23.4" height="23.4" rx="5.7" fill="#EFF0F6"/>
<rect x="0.3" y="0.3" width="23.4" height="23.4" rx="5.7" stroke="#5462E3" stroke-width="0.6"/>
<path d="M15.0156 7.76636L12.949 6.16636C12.6823 5.8997 12.0823 5.76636 11.6823 5.76636H9.14896C8.34896 5.76636 7.48229 6.36636 7.28229 7.16636L5.68229 12.033C5.34896 12.9664 5.94896 13.7664 6.94896 13.7664H9.61563C10.0156 13.7664 10.349 14.0997 10.2823 14.5664L9.94896 16.6997C9.81563 17.2997 10.2156 17.9664 10.8156 18.1664C11.349 18.3664 12.0156 18.0997 12.2823 17.6997L15.0156 13.633" stroke="#5462E3" stroke-width="1.5" stroke-miterlimit="10"/>
<path d="M18.4141 7.76641V14.2997C18.4141 15.2331 18.0141 15.5664 17.0807 15.5664H16.4141C15.4807 15.5664 15.0807 15.2331 15.0807 14.2997V7.76641C15.0807 6.83307 15.4807 6.49974 16.4141 6.49974H17.0807C18.0141 6.49974 18.4141 6.83307 18.4141 7.76641Z" stroke="#5462E3" stroke-width="1.5" stroke-linecap="round" stroke-linejoin="round"/>
</svg>
