<svg width="24" height="24" viewBox="0 0 24 24" fill="none" xmlns="http://www.w3.org/2000/svg">
<rect x="0.3" y="0.3" width="23.4" height="23.4" rx="5.7" fill="#EFF0F6"/>
<rect x="0.3" y="0.3" width="23.4" height="23.4" rx="5.7" stroke="#5462E3" stroke-width="0.6"/>
<path d="M8.98438 16.2336L11.051 17.8336C11.3177 18.1003 11.9177 18.2336 12.3177 18.2336H14.851C15.651 18.2336 16.5177 17.6336 16.7177 16.8336L18.3177 11.967C18.651 11.0336 18.051 10.2336 17.051 10.2336H14.3844C13.9844 10.2336 13.651 9.9003 13.7177 9.43364L14.051 7.3003C14.1844 6.7003 13.7844 6.03364 13.1844 5.83364C12.651 5.63364 11.9844 5.9003 11.7177 6.3003L8.98438 10.367" stroke="#5462E3" stroke-width="1.5" stroke-miterlimit="10"/>
<path d="M5.58594 16.2336V9.70026C5.58594 8.76693 5.98594 8.43359 6.91927 8.43359H7.58594C8.51927 8.43359 8.91927 8.76693 8.91927 9.70026V16.2336C8.91927 17.1669 8.51927 17.5003 7.58594 17.5003H6.91927C5.98594 17.5003 5.58594 17.1669 5.58594 16.2336Z" stroke="#5462E3" stroke-width="1.5" stroke-linecap="round" stroke-linejoin="round"/>
</svg>
