<svg width="24" height="24" viewBox="0 0 24 24" fill="none" xmlns="http://www.w3.org/2000/svg">
<path d="M18.63 7.1499C18.67 7.7599 18.62 8.4499 18.5 9.2199L17.77 13.9099C17.15 17.8199 15.34 19.1399 11.43 18.5299L6.73999 17.7899C5.38999 17.5799 4.34999 17.2199 3.58999 16.6799M18.63 7.1499C18.5 4.6499 17.03 3.3699 13.89 2.8799L9.19999 2.1399C5.28999 1.5299 3.47999 2.8499 2.85999 6.7599L2.11999 11.4499C1.71999 14.0099 2.13999 15.6699 3.58999 16.6799M18.63 7.1499C21.02 8.4199 21.54 10.3399 20.5 13.4699L19 17.9799C17.75 21.7399 15.75 22.7399 11.99 21.4899L7.47999 19.9899C5.20999 19.2399 3.94999 18.1999 3.58999 16.6799M9.97999 7.2399C9.97999 8.20087 9.20097 8.9799 8.23999 8.9799C7.27902 8.9799 6.49999 8.20087 6.49999 7.2399C6.49999 6.27892 7.27902 5.4999 8.23999 5.4999C9.20097 5.4999 9.97999 6.27892 9.97999 7.2399Z" stroke="#5462E3" stroke-width="1.5" stroke-linecap="round" stroke-linejoin="round"/>
</svg>
