<svg width="16" height="16" viewBox="0 0 16 16" fill="none" xmlns="http://www.w3.org/2000/svg">
<path d="M12.7893 11.779C12.9235 11.9132 12.9988 12.0951 12.9988 12.2848C12.9988 12.4745 12.9235 12.6564 12.7893 12.7905C12.6552 12.9246 12.4732 13 12.2835 13C12.0938 13 11.9119 12.9246 11.7778 12.7905L8 9.01177L4.22103 12.7893C4.08689 12.9235 3.90496 12.9988 3.71526 12.9988C3.52556 12.9988 3.34363 12.9235 3.2095 12.7893C3.07536 12.6552 3 12.4733 3 12.2836C3 12.0939 3.07536 11.912 3.2095 11.7779L6.98847 8.0003L3.21069 4.22155C3.07655 4.08742 3.00119 3.9055 3.00119 3.71581C3.00119 3.52613 3.07655 3.34421 3.21069 3.21008C3.34482 3.07595 3.52675 3.00059 3.71645 3.00059C3.90615 3.00059 4.08808 3.07595 4.22222 3.21008L8 6.98882L11.779 3.20948C11.9131 3.07535 12.095 3 12.2847 3C12.4744 3 12.6564 3.07535 12.7905 3.20948C12.9246 3.34361 13 3.52553 13 3.71522C13 3.90491 12.9246 4.08683 12.7905 4.22096L9.01153 8.0003L12.7893 11.779Z" fill="#3B3B3C"/>
</svg>
