<svg width="44" height="44" viewBox="0 0 44 44" fill="none" xmlns="http://www.w3.org/2000/svg">
<path d="M22 0C32.3709 0 37.5563 0 40.7782 3.22183C44 6.44365 44 11.6291 44 22C44 32.3709 44 37.5563 40.7782 40.7782C37.5563 44 32.3709 44 22 44C11.6291 44 6.44365 44 3.22183 40.7782C0 37.5563 0 32.3709 0 22C0 11.6291 0 6.44365 3.22183 3.22183C6.44365 0 11.6291 0 22 0Z" fill="#5462E3"/>
<path d="M20.3776 15.5123C20.8708 12.6588 21.9904 11.6968 22.3795 11.2456C22.3975 11.2247 22.388 11.1927 22.3616 11.1846C19.6551 10.3501 16.1369 11.5192 14.9006 12.233C12.542 13.7054 11.5209 15.5938 11.2585 17.1895C10.7866 20.0581 12.4045 21.4216 13.8928 22.0697C15.9456 22.9637 18.0961 22.0384 18.9433 21.0672C20.1731 19.6574 20.0014 17.6892 20.3776 15.5123Z" fill="#CCD3FF"/>
<path d="M23.7284 28.396C23.2352 31.2495 22.1155 32.2115 21.7265 32.6627C21.7084 32.6836 21.718 32.7156 21.7444 32.7238C24.4509 33.5582 27.9691 32.3891 29.2054 31.6753C31.5639 30.203 32.5851 28.3145 32.8475 26.7188C33.3194 23.8503 31.7015 22.4867 30.2132 21.8386C28.1603 20.9447 26.0099 21.8699 25.1627 22.8411C23.9329 24.2509 24.1046 26.2192 23.7284 28.396Z" fill="#CCD3FF"/>
<path d="M28.5932 20.1807C31.4467 20.6739 32.4087 21.7935 32.8599 22.1826C32.8808 22.2006 32.9128 22.1911 32.921 22.1647C33.7554 19.4582 32.5863 15.94 31.8725 14.7036C30.4001 12.3451 28.5117 11.324 26.916 11.0615C24.0475 10.5897 22.6839 12.2076 22.0358 13.6958C21.1418 15.7487 22.0671 17.8991 23.0383 18.7464C24.4481 19.9762 26.4163 19.8045 28.5932 20.1807Z" fill="#F1F2F9"/>
<path d="M15.5123 23.7277C12.6588 23.2345 11.6968 22.1148 11.2456 21.7258C11.2247 21.7077 11.1927 21.7173 11.1846 21.7437C10.3501 24.4502 11.5192 27.9684 12.233 29.2047C13.7054 31.5632 15.5938 32.5843 17.1895 32.8468C20.0581 33.3186 21.4216 31.7008 22.0697 30.2125C22.9637 28.1596 22.0384 26.0092 21.0672 25.1619C19.6574 23.9321 17.6892 24.1039 15.5123 23.7277Z" fill="#F1F2F9"/>
</svg>
