<svg width="16" height="16" viewBox="0 0 16 16" fill="none" xmlns="http://www.w3.org/2000/svg">
<path d="M8 5.33325V1.33325M8 1.33325L6.66667 2.66659M8 1.33325L9.33333 2.66659M3.33333 7.99992V6.66658C3.33333 5.32658 3.33333 4.21992 5.33333 4.02659M12.6667 7.99992V6.66658C12.6667 5.32658 12.6667 4.21992 10.6667 4.02659M4.66667 7.99992C2 7.99992 2 9.19325 2 10.6666V11.3333C2 13.1733 2 14.6666 5.33333 14.6666H10.6667C13.3333 14.6666 14 13.1733 14 11.3333V10.6666C14 9.19325 14 7.99992 11.3333 7.99992C10.6667 7.99992 10.48 8.13992 10.1333 8.39992L9.45333 9.11992C8.66667 9.95992 7.33333 9.95992 6.54 9.11992L5.86667 8.39992C5.52 8.13992 5.33333 7.99992 4.66667 7.99992Z" stroke="#1D1E20" stroke-width="1.5" stroke-miterlimit="10" stroke-linecap="round" stroke-linejoin="round"/>
</svg>
