<svg width="16" height="16" viewBox="0 0 16 16" fill="none" xmlns="http://www.w3.org/2000/svg">
<path d="M7.33594 1.33325H6.0026C2.66927 1.33325 1.33594 2.66659 1.33594 5.99992V9.99992C1.33594 13.3333 2.66927 14.6666 6.0026 14.6666H10.0026C13.3359 14.6666 14.6693 13.3333 14.6693 9.99992V8.66658M9.9375 2.7666C10.3842 4.35994 11.6308 5.6066 13.2308 6.05994M10.6972 2.01326L5.44383 7.26659C5.24383 7.46659 5.04383 7.85992 5.00383 8.14659L4.71716 10.1533C4.61049 10.8799 5.12383 11.3866 5.85049 11.2866L7.85716 10.9999C8.13716 10.9599 8.53049 10.7599 8.73716 10.5599L13.9905 5.30659C14.8972 4.39992 15.3238 3.34659 13.9905 2.01326C12.6572 0.679924 11.6038 1.10659 10.6972 2.01326Z" stroke="#FCFCFD" stroke-width="1.5" stroke-miterlimit="10" stroke-linecap="round" stroke-linejoin="round"/>
</svg>
