<svg width="16" height="16" viewBox="0 0 16 16" fill="none" xmlns="http://www.w3.org/2000/svg">
<path d="M7.8748 12.2602C8.16813 12.3002 8.46812 12.3202 8.77479 12.3202L11.5681 13.9801C12.0415 14.2668 12.6348 13.8802 12.5681 13.3268L12.3081 11.2202C13.7348 10.2202 14.6615 8.62682 14.6615 6.82682C14.6615 3.79349 12.0281 1.3335 8.77479 1.3335C5.52146 1.3335 2.88812 3.79349 2.88812 6.82682C2.88812 7.00016 2.89479 7.16683 2.91479 7.3335M7.8748 12.2602C8.36813 11.6802 8.66146 10.9468 8.66146 10.1535C8.66146 8.26015 7.02146 6.72685 4.99479 6.72685C4.22146 6.72685 3.50813 6.94683 2.91479 7.3335M7.8748 12.2602C7.2148 13.0602 6.16813 13.5735 4.99479 13.5735L3.25479 14.6068C2.96146 14.7868 2.58812 14.5402 2.62812 14.2002L2.79479 12.8868C1.90146 12.2668 1.32812 11.2735 1.32812 10.1535C1.32812 8.98015 1.95479 7.94683 2.91479 7.3335" stroke="#FCFCFD" stroke-width="1.5" stroke-linecap="round" stroke-linejoin="round"/>
</svg>
