<svg width="14" height="16" viewBox="0 0 14 16" fill="none" xmlns="http://www.w3.org/2000/svg">
<path d="M7 5.33325V1.33325M7 1.33325L5.66667 2.66659M7 1.33325L8.33333 2.66659M2.33333 7.99992V6.66658C2.33333 5.32658 2.33333 4.21992 4.33333 4.02659M11.6667 7.99992V6.66658C11.6667 5.32658 11.6667 4.21992 9.66667 4.02659M3.66667 7.99992C1 7.99992 1 9.19325 1 10.6666V11.3333C1 13.1733 1 14.6666 4.33333 14.6666H9.66667C12.3333 14.6666 13 13.1733 13 11.3333V10.6666C13 9.19325 13 7.99992 10.3333 7.99992C9.66667 7.99992 9.48 8.13992 9.13333 8.39992L8.45333 9.11992C7.66667 9.95992 6.33333 9.95992 5.54 9.11992L4.86667 8.39992C4.52 8.13992 4.33333 7.99992 3.66667 7.99992Z" stroke="#FCFCFD" stroke-width="1.8" stroke-miterlimit="10" stroke-linecap="round" stroke-linejoin="round"/>
</svg>
